<svg id="Capa_1" data-name="Capa 1" xmlns="http://www.w3.org/2000/svg" viewBox="0 0 470.62 372.48"><defs><style>.cls-1{fill:#e53935;}.cls-2{fill:#455a64;}.cls-3{fill:#37474f;}.cls-4{fill:#e53835;}.cls-4,.cls-5{stroke:#e53835;stroke-miterlimit:10;stroke-width:2px;}.cls-5{fill:none;}</style></defs><g id="freepik--Confetti--inject-20"><path class="cls-1" d="M305.9,222.94c1.4-3.3,1.3-6.7,5.6-7.8,1.8-.5,6.3-.9,7.7.7a7,7,0,0,1,.3.7v.7c-.07.27-.13.5-.2.7a1.7,1.7,0,0,1-.5.5c-1.1,1-1.9-.2-2.2-1.2a3.88,3.88,0,0,1-.1-1.5,11.06,11.06,0,0,1,.3-1.5,4,4,0,0,1,.8-1.2,5.17,5.17,0,0,1,1.1-1,8.3,8.3,0,0,1,3-1.2,7,7,0,0,1,3.1-.1,7.18,7.18,0,0,1,3,1.1,9,9,0,0,1,2.4,2c.2.2.3,0,.3-.2-3.3-7.5-19-2.3-14,5,1.5,2.1,4.2.2,3.7-2.1-.6-2.6-4.9-2.4-6.9-2.3a11,11,0,0,0-1.4.1,4.42,4.42,0,0,0-1.4.4,8.46,8.46,0,0,0-1.3.7,3.76,3.76,0,0,0-1.2.8c-1.7,1.7-1.9,4.4-2.3,6.6C305.7,222.94,305.8,223.14,305.9,222.94Z"/><path class="cls-1" d="M418,60.64c3.1-.9,7.3-.7,9.9,1.4,2,1.6,3.1,5.1.2,6.3-1.2.4-5,.4-5.4-1.1-.4-1.1.8-1.8,1.8-1.9,2.7-.4,5.3,2.4,5.2,5-.1,3.9-4.6,5.2-7.8,5.3-.2,0-.2.4,0,.4,5.4.5,11.5-4.6,6.7-9.6-1.3-1.4-3.4-2.3-5.2-1.6-1.1.4-1.9,1.4-1.4,2.5.8,1.9,4.2,2.2,5.9,1.7a2,2,0,0,0,1.2-.6,2.53,2.53,0,0,0,.9-1,4.28,4.28,0,0,0,.4-1.3,4.21,4.21,0,0,0-.2-1.3c-1.3-5-8.2-6-12.3-4.5-.1,0-.1.3.1.3Z"/><path class="cls-1" d="M458.2,267c3.1-.9,7.3-.6,9.9,1.4,2,1.6,3.1,5.1.2,6.3-1.2.4-5,.4-5.4-1.1-.3-1.1.8-1.8,1.8-1.9,2.7-.4,5.3,2.5,5.2,5.1,0,3.9-4.6,5.1-7.8,5.2-.2,0-.1.4,0,.4,5.5.5,11.5-4.5,6.7-9.6a4.93,4.93,0,0,0-5.2-1.6,2,2,0,0,0-1.4,2.6c.9,1.8,4.3,2.1,5.9,1.7a4.4,4.4,0,0,0,1.3-.6,4.14,4.14,0,0,0,1.2-2.4,2.14,2.14,0,0,0-.2-1.3c-1.3-4.9-8.2-6-12.3-4.5-.1,0,0,.3.1.3Z"/><path class="cls-2" d="M310.7,178.74s-.3,4.8,3.3,7.5l3.8-1.1s-2.6-1.2-3.8-6.4Z"/><path class="cls-3" d="M341.4,233.24s-.3,4.9,3.3,7.6l3.8-1.2s-2.5-1.2-3.8-6.4Z"/><path class="cls-2" d="M459.3,85.84s-2.2,4.3-6.7,4.8l-2.7-2.9s2.8.3,6.5-3.6Z"/><path class="cls-2" d="M433.5,240.24s-2.2,4.4-6.7,4.9l-2.7-2.9s2.8.2,6.5-3.6Z"/><path class="cls-1" d="M372.9,149.54s-2.2,4.3-6.6,4.9l-2.7-2.9s2.8.2,6.4-3.7Z"/><path class="cls-1" d="M416,102.74s-4.8.6-7.7-2.8l.8-3.8s1.4,2.4,6.7,3.3Z"/><path class="cls-1" d="M322.9,133.14s-4.8.6-7.7-2.8l.9-3.8s1.4,2.4,6.6,3.3Z"/><path class="cls-1" d="M466.8,168.94s-4.8.6-7.7-2.8l.9-3.8s1.3,2.4,6.6,3.3Z"/><path class="cls-2" d="M382.1,120.54s-2.2,4.3-6.7,4.8l-2.7-2.9s3.3.5,7-3.3Z"/><path class="cls-3" d="M386.9,126.84s-.8,4.8-5,6.6l-3.4-2a8.33,8.33,0,0,0,1.7-1,7.05,7.05,0,0,0,1.6-1.2,8.33,8.33,0,0,0,1.3-1.4c.4-.53.77-1.06,1.1-1.6Z"/><path class="cls-1" d="M211.4,229.54c-1.5-3.3-1.3-6.8-5.6-7.9-1.9-.4-6.3-.9-7.8.8l-.2.6a1.19,1.19,0,0,0,0,.7,1.25,1.25,0,0,0,.2.7l.4.6c1.1,1,2-.2,2.3-1.3a10,10,0,0,0,.1-1.5,5.8,5.8,0,0,0-.4-1.4,5.49,5.49,0,0,0-.8-1.3,3.23,3.23,0,0,0-1.1-1,8.83,8.83,0,0,0-6.1-1.3,9.57,9.57,0,0,0-3,1.1,8.3,8.3,0,0,0-2.4,2.1c-.2.2-.3,0-.3-.3,3.3-7.5,19-2.3,14,5-1.5,2.2-4.2.2-3.7-2.1.6-2.5,5-2.4,6.9-2.3a13.48,13.48,0,0,1,1.5.1l1.4.4c.4.2.83.44,1.3.7a7.43,7.43,0,0,1,1.1.9c1.7,1.6,2,4.3,2.3,6.6,0,.1-.1.2-.1.1Z"/><path class="cls-1" d="M72.3,201.24c-6.2.5-5.1,12.4-.1,14a1.06,1.06,0,0,0,.5.1h.5a1.57,1.57,0,0,0,.5-.1.85.85,0,0,0,.4-.1,1.7,1.7,0,0,0,.5-.5l.4-.6.2-.6a2.74,2.74,0,0,0,.1-.7c-.6-2-4,.5-4.4,1.3a5.46,5.46,0,0,0-.7,1.7,4.12,4.12,0,0,0-.2,1.8,9,9,0,0,0,.4,1.8,11,11,0,0,0,.9,1.5c2.6,2.8,7.5,2.9,10.7,1.3.2-.1.2.2.1.3-3.5,2.2-9.3,1.9-11.8-1.6-2-2.8-.6-10.2,3.8-9.6,4.2.6,1.3,5.4-1.9,4.7s-4.2-4.8-4.5-7.4c-.4-3.2.5-7.6,4.6-7.6.1,0,.1.3,0,.3Z"/><path class="cls-2" d="M209.7,190.14s.3,4.8-3.3,7.5l-3.8-1.1s2.5-1.2,3.8-6.4Z"/><path class="cls-3" d="M194.8,248s.3,4.8-3.3,7.5l-3.7-1.2s2.5-1.2,3.7-6.3Z"/><path class="cls-2" d="M44.6,85.84s2.2,4.3,6.7,4.8l2.7-2.9s-2.8.3-6.5-3.6Z"/><path class="cls-2" d="M91.1,235s2.2,4.3,6.7,4.8l2.7-2.9s-2.8.3-6.5-3.6Z"/><path class="cls-1" d="M139.5,155.14s2.2,4.3,6.6,4.9l2.7-2.9s-2.8.2-6.4-3.7Z"/><path class="cls-1" d="M89.9,102.74s4.8.6,7.7-2.8l-.9-3.8s-1.4,2.4-6.6,3.3Z"/><path class="cls-1" d="M182.9,129.14s4.8.6,7.7-2.8l-.8-3.9s-1.4,2.5-6.7,3.3Z"/><path class="cls-2" d="M121.8,120.54s2.2,4.3,6.6,4.8l2.7-2.9s-3.3.5-7-3.3Z"/><path class="cls-3" d="M117,126.84s.9,4.8,5,6.6l3.4-2a8.33,8.33,0,0,1-1.7-1,11.91,11.91,0,0,1-1.6-1.2,8.33,8.33,0,0,1-1.3-1.4c-.4-.53-.77-1.06-1.1-1.6Z"/><path id="Layer_copy_3" data-name="Layer copy 3" class="cls-1" d="M396,150.64c3.1-.9,7.3-.7,9.9,1.4,2,1.6,3.1,5.1.2,6.3-1.2.4-5,.4-5.4-1.1-.4-1.1.8-1.8,1.8-1.9,2.7-.4,5.3,2.5,5.2,5-.1,3.9-4.6,5.2-7.8,5.2-.2,0-.2.4,0,.5,5.4.5,11.5-4.6,6.7-9.6-1.3-1.4-3.4-2.4-5.2-1.6-1.1.4-1.9,1.4-1.4,2.5.8,1.9,4.2,2.2,5.9,1.7a2,2,0,0,0,1.2-.6,2.53,2.53,0,0,0,.9-1,4.28,4.28,0,0,0,.4-1.3,4.21,4.21,0,0,0-.2-1.3c-1.3-5-8.2-6-12.3-4.5-.1,0-.1.3.1.3Z"/><path id="Layer_copy_4" data-name="Layer copy 4" class="cls-1" d="M436.2,357c3.1-.9,7.3-.6,9.9,1.4,2,1.6,3.1,5.1.2,6.3-1.2.4-5,.4-5.4-1.1-.3-1.1.8-1.8,1.8-1.9,2.7-.4,5.3,2.5,5.2,5.1,0,3.9-4.6,5.1-7.8,5.2-.2,0-.1.4,0,.4,5.5.5,11.5-4.5,6.7-9.6a4.93,4.93,0,0,0-5.2-1.6,2,2,0,0,0-1.4,2.6c.9,1.8,4.3,2.1,5.9,1.7a4.4,4.4,0,0,0,1.3-.6,4.14,4.14,0,0,0,1.2-2.4,2.14,2.14,0,0,0-.2-1.3c-1.3-4.9-8.2-6-12.3-4.5C436,356.74,436.1,357,436.2,357Z"/><path id="Layer_copy_7" data-name="Layer copy 7" class="cls-2" d="M351,151.54s-.3,4.9,3.3,7.6l3.8-1.2s-2.5-1.2-3.8-6.4Z"/><path id="Layer_copy_8" data-name="Layer copy 8" class="cls-2" d="M287.7,268.74s-.3,4.8,3.3,7.5l3.8-1.1s-2.6-1.2-3.8-6.4Z"/><path id="Layer_copy_9" data-name="Layer copy 9" class="cls-3" d="M348.28,312.43s-.3,4.9,3.3,7.6l3.8-1.2s-2.5-1.2-3.8-6.4Z"/><path id="Layer_copy_10" data-name="Layer copy 10" class="cls-2" d="M436.3,175.84s-2.2,4.3-6.7,4.8l-2.7-2.9s2.8.3,6.5-3.6Z"/><path id="Layer_copy_11" data-name="Layer copy 11" class="cls-2" d="M410.5,330.24s-2.2,4.4-6.7,4.9l-2.7-2.9s2.8.2,6.5-3.6Z"/><path id="Layer_copy_12" data-name="Layer copy 12" class="cls-1" d="M387.42,237.09s-2.2,4.3-6.6,4.8l-2.7-2.8s2.8.2,6.4-3.7Z"/><path id="Layer_copy_13" data-name="Layer copy 13" class="cls-2" d="M308.9,186.24s-2.2,4.3-6.6,4.8l-2.7-2.8s2.8.2,6.4-3.7Z"/><path id="Layer_copy_14" data-name="Layer copy 14" class="cls-1" d="M393,192.74s-4.8.6-7.7-2.8l.8-3.8s1.4,2.4,6.7,3.3Z"/><path id="Layer_copy_15" data-name="Layer copy 15" class="cls-1" d="M323.3,169.14s-4.8.6-7.8-2.8l.9-3.8s1.4,2.4,6.6,3.3Z"/><path id="Layer_copy_16" data-name="Layer copy 16" class="cls-1" d="M242.4,158.64s-4.8.6-7.7-2.8l.8-3.8s1.4,2.4,6.7,3.3Z"/><path id="Layer_copy_17" data-name="Layer copy 17" class="cls-1" d="M316.7,258.94s-4.8.6-7.7-2.8l.9-3.8s1.4,2.4,6.6,3.3Z"/><path id="Layer_copy_18" data-name="Layer copy 18" class="cls-1" d="M443.8,258.94s-4.8.6-7.7-2.8l.9-3.8s1.3,2.4,6.6,3.3Z"/><path id="Layer_copy_19" data-name="Layer copy 19" class="cls-2" d="M359.1,210.54c0-.1-2.2,4.3-6.7,4.8l-2.7-2.9s3.3.5,7-3.3Z"/><path id="Layer_copy_20" data-name="Layer copy 20" class="cls-3" d="M363.9,216.84s-.8,4.8-5,6.6l-3.4-2a8.33,8.33,0,0,0,1.7-1,7.05,7.05,0,0,0,1.6-1.2,8.33,8.33,0,0,0,1.3-1.4c.4-.53.77-1.06,1.1-1.6Z"/><path id="Layer_copy_21" data-name="Layer copy 21" class="cls-1" d="M195.9,155.54c4.7-.4,11,7.4,6.4,11.1-2.5,2.1-8.1,1.2-8-2.7a.09.09,0,0,1,.1-.1v-.2a.28.28,0,0,0,.2-.1h.1c3.7-.9,7.3.7,6.7,5a6.94,6.94,0,0,1-.9,2.6,7.85,7.85,0,0,1-1.8,2.1,9.13,9.13,0,0,1-2.3,1.5,9,9,0,0,1-2.7.6c-.2,0-.2-.4,0-.5,3.2-.6,6.2-2.6,6.8-6a4.78,4.78,0,0,0,.1-1,2,2,0,0,0,0-.9,9.44,9.44,0,0,0-.3-.9,5.49,5.49,0,0,0-.5-.8,2,2,0,0,0-.3-.4,1.31,1.31,0,0,1-.4-.3c-.13-.06-.3-.13-.5-.2l-.4-.2c-.6-.2-2.6-.5-3,0-.9.9,1.5,2.4,2.2,2.6a4.55,4.55,0,0,0,1.1.3,2.9,2.9,0,0,0,1.1,0,2.55,2.55,0,0,0,1-.2,6.66,6.66,0,0,0,1-.5c2-1.3,1.5-3.9.5-5.7a7.66,7.66,0,0,0-6.3-4.5c-.3,0-.1-.5.1-.5Z"/><path id="Layer_copy_23" data-name="Layer copy 23" class="cls-1" d="M65.5,150.64c-3.1-.9-7.3-.7-9.9,1.4-2,1.6-3.1,5.1-.2,6.3,1.2.4,5,.4,5.4-1.1.4-1.1-.8-1.8-1.8-1.9-2.7-.4-5.3,2.5-5.2,5,.1,3.9,4.6,5.2,7.8,5.2.2,0,.2.4,0,.5-5.4.5-11.5-4.6-6.7-9.6,1.3-1.4,3.4-2.4,5.2-1.6,1.1.4,1.9,1.4,1.4,2.5-.8,1.9-4.2,2.2-5.9,1.7a2,2,0,0,1-1.2-.6,2.53,2.53,0,0,1-.9-1,4.28,4.28,0,0,1-.4-1.3,4.21,4.21,0,0,1,.2-1.3c1.3-5,8.2-6,12.3-4.5.1,0,.1.3-.1.3Z"/><path id="Layer_copy_24" data-name="Layer copy 24" class="cls-1" d="M29.8,353.34c-3.1-.9-7.3-.6-9.9,1.4-2,1.6-3.1,5.1-.2,6.3,1.2.4,5,.4,5.4-1.1.3-1.1-.8-1.8-1.8-1.9-2.7-.4-5.3,2.5-5.2,5.1.1,3.9,4.6,5.1,7.8,5.2.2,0,.2.4,0,.4-5.5.5-11.5-4.5-6.7-9.6a4.93,4.93,0,0,1,5.2-1.6c1.1.5,1.9,1.4,1.4,2.6-.8,1.8-4.3,2.1-5.9,1.7a3.23,3.23,0,0,1-1.2-.6,3.41,3.41,0,0,1-.9-1.1,4.28,4.28,0,0,1-.4-1.3,2.14,2.14,0,0,1,.2-1.3c1.3-4.9,8.2-6,12.3-4.5C30,353,30,353.34,29.8,353.34Z"/><path id="Layer_copy_26" data-name="Layer copy 26" class="cls-1" d="M49.3,291.24c-6.2.5-5.1,12.4-.1,14a1.06,1.06,0,0,0,.5.1h.5a1.57,1.57,0,0,0,.5-.1.85.85,0,0,0,.4-.1,1.7,1.7,0,0,0,.5-.5l.4-.6.2-.6a2.74,2.74,0,0,0,.1-.7c-.6-2-4,.5-4.4,1.3a5.46,5.46,0,0,0-.7,1.7,4.12,4.12,0,0,0-.2,1.8,9,9,0,0,0,.4,1.8,11,11,0,0,0,.9,1.5c2.6,2.8,7.5,2.9,10.7,1.3.2-.1.2.2.1.3-3.5,2.2-9.3,1.9-11.8-1.6-2-2.8-.6-10.2,3.8-9.6,4.2.6,1.3,5.4-1.9,4.7s-4.2-4.8-4.5-7.4c-.4-3.2.5-7.6,4.6-7.6.1,0,.1.3,0,.3Z"/><path id="Layer_copy_44" data-name="Layer copy 44" class="cls-1" d="M49.3,291.24c-6.2.5-5.1,12.4-.1,14a1.06,1.06,0,0,0,.5.1h.5a1.57,1.57,0,0,0,.5-.1.85.85,0,0,0,.4-.1,1.7,1.7,0,0,0,.5-.5l.4-.6.2-.6a2.74,2.74,0,0,0,.1-.7c-.6-2-4,.5-4.4,1.3a5.46,5.46,0,0,0-.7,1.7,4.12,4.12,0,0,0-.2,1.8,9,9,0,0,0,.4,1.8,11,11,0,0,0,.9,1.5c2.6,2.8,7.5,2.9,10.7,1.3.2-.1.2.2.1.3-3.5,2.2-9.3,1.9-11.8-1.6-2-2.8-.6-10.2,3.8-9.6,4.2.6,1.3,5.4-1.9,4.7s-4.2-4.8-4.5-7.4c-.4-3.2.5-7.6,4.6-7.6.1,0,.1.3,0,.3Z"/><path id="Layer_copy_43" data-name="Layer copy 43" class="cls-1" d="M126.3,292.24c-6.2.5-5.1,12.4-.1,14a1.06,1.06,0,0,0,.5.1h.5a1.57,1.57,0,0,0,.5-.1.85.85,0,0,0,.4-.1,1.7,1.7,0,0,0,.5-.5l.4-.6.2-.6a2.74,2.74,0,0,0,.1-.7c-.6-2-4,.5-4.4,1.3a5.46,5.46,0,0,0-.7,1.7,4.12,4.12,0,0,0-.2,1.8,9,9,0,0,0,.4,1.8,11,11,0,0,0,.9,1.5c2.6,2.8,7.5,2.9,10.7,1.3.2-.1.2.2.1.3-3.5,2.2-9.3,1.9-11.8-1.6-2-2.8-.6-10.2,3.8-9.6,4.2.6,1.3,5.4-1.8,4.7s-4.3-4.8-4.6-7.4c-.4-3.2.6-7.6,4.6-7.6.1,0,.1.3,0,.3Z"/><path id="Layer_copy_45" data-name="Layer copy 45" class="cls-1" d="M240.3,271.24c-6.2.5-5.1,12.4-.1,14a1.06,1.06,0,0,0,.5.1h.5a1.57,1.57,0,0,0,.5-.1.85.85,0,0,0,.4-.1,1.7,1.7,0,0,0,.5-.5l.4-.6.2-.6a1.19,1.19,0,0,0,0-.7c-.6-2-4,.5-4.3,1.3a5.46,5.46,0,0,0-.7,1.7,4.12,4.12,0,0,0-.2,1.8,9,9,0,0,0,.4,1.8,11,11,0,0,0,.9,1.5c2.6,2.8,7.5,2.9,10.7,1.3.2-.1.2.2.1.3-3.5,2.2-9.3,1.9-11.8-1.6-2-2.8-.6-10.2,3.8-9.6,4.2.6,1.3,5.4-1.9,4.7s-4.2-4.8-4.5-7.4c-.4-3.2.5-7.6,4.6-7.6.1,0,.1.3,0,.3Z"/><path id="Layer_copy_27" data-name="Layer copy 27" class="cls-1" d="M127.5,191.44c4.3-.5,13.6,3.1,11.2,9-1.3,3.2-7,5.2-8.9,1.6a.26.26,0,0,1-.1-.2.09.09,0,0,1,.1-.1.29.29,0,0,1,.1-.2l.1-.1c9-5.1,18.5,9.7,8.9,15-.3.2-.3-.3-.1-.4a9.37,9.37,0,0,0,2.1-2.2,7.5,7.5,0,0,0,1.1-2.7,7.79,7.79,0,0,0-1.3-5.7c-.27-.4-.53-.76-.8-1.1l-1-1a4.24,4.24,0,0,0-1.1-.8,6.44,6.44,0,0,0-1.1-.7c-1.3-.6-4.3-1.4-5.5-.2-.5.5-.5-.2-.2.5l.2.2a1,1,0,0,0,.2.3.69.69,0,0,0,.3.1.85.85,0,0,0,.4.1,1.18,1.18,0,0,0,.7.2,3.13,3.13,0,0,0,.8.1,3.35,3.35,0,0,1,.7-.1l.8-.2a4.21,4.21,0,0,0,3-4.8c-1.1-4.4-6.7-6-10.7-6.1-.2,0-.1-.5.1-.5Z"/><path id="Layer_copy_28" data-name="Layer copy 28" class="cls-2" d="M109,160.34s.3,4.9-3.3,7.6l-3.8-1.2s2.5-1.2,3.8-6.4Z"/><path id="Layer_copy_29" data-name="Layer copy 29" class="cls-2" d="M186.7,280.14s.3,4.8-3.3,7.5l-3.8-1.1s2.5-1.2,3.8-6.4Z"/><path id="Layer_copy_30" data-name="Layer copy 30" class="cls-3" d="M171.8,338s.3,4.8-3.3,7.5l-3.7-1.2s2.5-1.2,3.7-6.3Z"/><path id="Layer_copy_31" data-name="Layer copy 31" class="cls-2" d="M21.6,175.84s2.2,4.3,6.7,4.8l2.7-2.8s-2.8.2-6.5-3.7Z"/><path id="Layer_copy_32" data-name="Layer copy 32" class="cls-2" d="M68.1,325s2.2,4.3,6.7,4.8l2.7-2.9s-2.8.3-6.5-3.6Z"/><path id="Layer_copy_33" data-name="Layer copy 33" class="cls-1" d="M116.5,245.14s2.2,4.3,6.6,4.9l2.7-2.9s-2.8.2-6.4-3.7Z"/><path id="Layer_copy_34" data-name="Layer copy 34" class="cls-2" d="M159,188.64s2.2,4.3,6.7,4.8l2.6-2.9s-2.7.3-6.4-3.6Z"/><path id="Layer_copy_35" data-name="Layer copy 35" class="cls-1" d="M66.9,192.74s4.8.6,7.7-2.8l-.9-3.8s-1.4,2.4-6.6,3.3Z"/><path id="Layer_copy_36" data-name="Layer copy 36" class="cls-1" d="M149,155.34s4.8.6,7.7-2.8l-.8-3.9s-1.4,2.4-6.7,3.3Z"/><path id="Layer_copy_37" data-name="Layer copy 37" class="cls-1" d="M159.9,219.14s4.8.6,7.7-2.8l-.8-3.9s-1.4,2.5-6.7,3.4Z"/><path id="Layer_copy_38" data-name="Layer copy 38" class="cls-1" d="M4,314.24s4.8.6,7.7-2.8l-.8-3.9s-1.4,2.4-6.7,3.3Z"/><path id="Layer_copy_39" data-name="Layer copy 39" class="cls-2" d="M98.8,210.54c0-.1,2.2,4.3,6.6,4.8l2.7-2.9s-3.3.5-7-3.3Z"/><path id="Layer_copy_40" data-name="Layer copy 40" class="cls-3" d="M94,216.84s.9,4.8,5,6.6l3.4-2a8.33,8.33,0,0,1-1.7-1,11.91,11.91,0,0,1-1.6-1.2,8.33,8.33,0,0,1-1.3-1.4c-.4-.53-.77-1.06-1.1-1.6Z"/><path id="Layer_copy_41" data-name="Layer copy 41" class="cls-2" d="M251.9,191.94s-2.2,4.4-6.7,4.9l-2.7-2.9s3.3.5,7-3.3Z"/><path id="Layer_copy_42" data-name="Layer copy 42" class="cls-3" d="M230.3,186.84s-.8,4.7-5,6.5l-3.4-2a11.94,11.94,0,0,0,1.7-.9,17.08,17.08,0,0,0,1.6-1.2,12.49,12.49,0,0,0,1.3-1.5,9.19,9.19,0,0,0,1.1-1.6Z"/></g><line class="cls-4" x1="236.35" y1="324.29" x2="250.22" y2="339.89"/><line class="cls-5" x1="235.95" y1="339.77" x2="250.09" y2="324.31"/><line class="cls-4" x1="440.35" y1="303.39" x2="454.22" y2="318.99"/><line class="cls-5" x1="439.95" y1="318.87" x2="454.08" y2="303.42"/><line class="cls-4" x1="357.16" y1="264.69" x2="371.03" y2="280.29"/><line class="cls-5" x1="356.77" y1="280.17" x2="370.9" y2="264.72"/><line class="cls-4" x1="253.45" y1="227.59" x2="267.32" y2="243.19"/><line class="cls-5" x1="253.05" y1="243.07" x2="267.18" y2="227.62"/><line class="cls-4" x1="433.96" y1="121.39" x2="447.83" y2="136.98"/><line class="cls-5" x1="433.56" y1="136.86" x2="447.69" y2="121.41"/><line class="cls-4" x1="270.26" y1="143.34" x2="284.13" y2="158.94"/><line class="cls-5" x1="269.86" y1="158.82" x2="283.99" y2="143.37"/><line class="cls-4" x1="19.56" y1="121.34" x2="33.43" y2="136.94"/><line class="cls-5" x1="19.17" y1="136.82" x2="33.3" y2="121.36"/><line class="cls-4" x1="70.76" y1="264.69" x2="84.63" y2="280.29"/><line class="cls-5" x1="70.37" y1="280.17" x2="84.5" y2="264.72"/><line class="cls-4" x1="12.1" y1="221.79" x2="25.97" y2="237.39"/><line class="cls-5" x1="11.7" y1="237.26" x2="25.83" y2="221.81"/></svg>