<svg version="1.2" xmlns="http://www.w3.org/2000/svg" viewBox="0 0 500 500" width="500" height="500">
	<title>Business solution-rafiki</title>
	<style>
		.s0 { fill: #f0f0f0 } 
		.s1 { fill: #e0e0e0 } 
		.s2 { fill: #00843d } 
		.s3 { opacity: .2;fill: #000000 } 
		.s4 { opacity: .3;fill: #ffffff } 
		.s5 { opacity: .1;fill: #ffffff } 
		.s6 { opacity: .4;fill: #ffffff } 
		.s7 { fill: #263238 } 
		.s8 { opacity: .9;fill: #ffffff } 
		.s9 { fill: #000000 } 
		.s10 { fill: #ffc2bc } 
		.s11 { opacity: .2;fill: #ffffff } 
		.s12 { opacity: .8;fill: #ffffff } 
		.s13 { opacity: .7;fill: #ffffff } 
		.s14 { fill: #d4827d } 
		.s15 { opacity: .3;fill: #000000 } 
		.s16 { fill: #ebc0bb } 
	</style>
	<g id="freepik--background-complete--inject-62">
		<path class="s0" d="m245.6 161q-0.6-2.8-1.4-5.5-0.8-2.8-1.9-5.4-1.1-2.6-2.5-5.1-1.3-2.6-2.9-4.9l7.5-9.1-16-16-9.1 7.5q-2.3-1.6-4.9-2.9-2.5-1.4-5.1-2.5-2.7-1.1-5.4-1.9-2.7-0.8-5.5-1.4l-1.1-11.7h-22.7l-1.1 11.7q-2.8 0.6-5.5 1.4-2.8 0.8-5.4 1.9-2.6 1.1-5.1 2.5-2.6 1.3-4.9 2.9l-9.1-7.5-16 16 7.5 9.1q-1.6 2.3-2.9 4.9-1.4 2.5-2.5 5.1-1.1 2.7-1.9 5.4-0.9 2.7-1.5 5.5l-11.6 1.1v22.7l11.6 1.1q0.6 2.8 1.5 5.5 0.8 2.7 1.9 5.4 1.1 2.6 2.5 5.1 1.3 2.6 2.9 4.9l-7.5 9.1 16 16 9.1-7.5q2.3 1.6 4.9 2.9 2.5 1.4 5.1 2.5 2.7 1 5.4 1.9 2.7 0.8 5.5 1.4l1.1 11.7h22.7l1.1-11.7q2.8-0.6 5.5-1.4 2.7-0.9 5.4-1.9 2.6-1.1 5.1-2.5 2.5-1.3 4.9-2.9l9.1 7.5 16-16-7.5-9.1q1.6-2.3 2.9-4.9 1.3-2.5 2.4-5.1 1.1-2.6 2-5.4 0.8-2.7 1.4-5.5l11.7-1.1v-22.7zm-29 12.5c0 12.4-7.5 23.6-19 28.3-11.4 4.8-24.6 2.2-33.4-6.6-8.8-8.8-11.4-22-6.7-33.5 4.8-11.5 16-18.9 28.4-18.9 4 0 8 0.8 11.7 2.3 3.8 1.6 7.2 3.8 10 6.7 2.9 2.8 5.1 6.2 6.7 9.9 1.5 3.8 2.3 7.8 2.3 11.8z"/>
		<path class="s0" d="m310.7 269.9l0.8 8.4h16.3l0.7-8.4q2-0.5 4-1.1 1.9-0.6 3.8-1.4 1.9-0.7 3.7-1.7 1.8-1 3.5-2.1l6.6 5.4 11.5-11.5-5.4-6.5q1.2-1.7 2.1-3.5 1-1.8 1.8-3.7 0.8-1.9 1.4-3.9 0.6-1.9 1-3.9l8.4-0.8v-16.3l-8.4-0.8q-0.4-2-1-4-0.6-1.9-1.4-3.8-0.8-1.9-1.8-3.7-0.9-1.8-2.1-3.5l5.4-6.5-11.5-11.6-6.5 5.4q-1.7-1.1-3.5-2.1-1.8-1-3.7-1.7-1.9-0.8-3.9-1.4-1.9-0.6-3.9-1.1l-0.8-8.4h-16.3l-0.8 8.4q-2 0.5-4 1.1-1.9 0.6-3.8 1.4-1.9 0.7-3.7 1.7-1.8 1-3.5 2.1l-6.6-5.4-11.5 11.5 5.4 6.5q-1.1 1.7-2.1 3.5-0.9 1.8-1.7 3.7-0.8 1.9-1.4 3.8-0.6 2-1.1 4l-8.3 0.8v16.3l8.3 0.8q0.5 2 1.1 4 0.6 1.9 1.4 3.8 0.7 1.9 1.7 3.8 1 1.8 2.1 3.5l-5.4 6.5 11.5 11.5 6.5-5.4q1.7 1.1 3.5 2.1 1.8 1 3.7 1.7 1.9 0.8 3.9 1.4 2 0.6 4 1.1zm8.9-20.9c-8.9 0-17-5.4-20.4-13.6-3.4-8.3-1.5-17.8 4.8-24.1 6.3-6.3 15.8-8.2 24.1-4.7 8.2 3.4 13.6 11.5 13.6 20.4 0 2.9-0.6 5.8-1.7 8.4-1.1 2.7-2.8 5.1-4.8 7.2-2.1 2-4.5 3.6-7.2 4.7-2.6 1.1-5.5 1.7-8.4 1.7z"/>
		<path class="s0" d="m224.1 384h19.4l1-10q2.4-0.5 4.7-1.2 2.3-0.7 4.6-1.7 2.2-0.9 4.4-2.1 2.2-1.1 4.2-2.5l7.7 6.5 13.8-13.7-6.5-7.8q1.4-2 2.5-4.2 1.2-2.2 2.1-4.4 1-2.3 1.7-4.6 0.7-2.3 1.2-4.7l10-1v-19.4l-10-0.9q-0.5-2.4-1.2-4.7-0.7-2.4-1.7-4.6-0.9-2.3-2.1-4.4-1.1-2.2-2.5-4.2l6.5-7.8-13.8-13.7-7.7 6.4q-2-1.3-4.2-2.5-2.2-1.1-4.4-2-2.3-1-4.6-1.7-2.3-0.7-4.7-1.2l-1-10h-19.4l-0.9 10q-2.4 0.5-4.7 1.2-2.4 0.7-4.6 1.7-2.3 0.9-4.4 2-2.2 1.2-4.2 2.5l-7.8-6.4-13.7 13.7 6.4 7.8q-1.3 2-2.5 4.2-1.1 2.1-2 4.4-1 2.2-1.7 4.6-0.7 2.3-1.2 4.7l-10 0.9v19.4l10 1q0.5 2.4 1.2 4.7 0.7 2.3 1.7 4.6 0.9 2.2 2 4.4 1.2 2.2 2.5 4.2l-6.4 7.8 13.7 13.7 7.8-6.4q2 1.3 4.2 2.4 2.1 1.2 4.4 2.1 2.2 1 4.6 1.7 2.3 0.7 4.7 1.2zm9.7-34.8c-10.6 0-20.2-6.4-24.3-16.2-4-9.8-1.8-21.1 5.7-28.6 7.5-7.5 18.8-9.8 28.6-5.7 9.9 4.1 16.3 13.6 16.3 24.3 0 3.4-0.7 6.8-2.1 10-1.3 3.2-3.2 6.1-5.6 8.5-2.5 2.4-5.4 4.4-8.6 5.7-3.1 1.3-6.6 2-10 2z"/>
		<path class="s0" d="m326.1 148.2c1.6 2.8 1.4 6.3-0.6 8.9-2 2.6-5.3 3.7-8.4 2.9-3.2-0.9-5.5-3.5-5.9-6.7-0.4-3.2 1.1-6.4 4-8q1.3-0.8 2.9-1 1.6-0.2 3.1 0.2 1.5 0.4 2.8 1.4 1.3 1 2 2.3z"/>
		<path class="s1" d="m317.1 151.5c0.3 0.5 0.8 0.4 1.4 0.3l-0.9-1.6c-0.6 0.5-0.7 0.9-0.5 1.3z"/>
		<path class="s1" d="m319.9 152.6l0.9 1.6c0.6-0.5 0.7-0.9 0.5-1.3-0.2-0.4-0.7-0.4-1.4-0.3z"/>
		<path class="s1" d="m315.7 146.3c-2.4 1.4-3.7 4.1-3.3 6.8 0.3 2.8 2.3 5 5 5.7 2.6 0.7 5.5-0.2 7.1-2.4 1.7-2.2 1.9-5.2 0.5-7.6q-0.6-1.1-1.7-2-1.1-0.8-2.4-1.2-1.3-0.3-2.7-0.1-1.3 0.2-2.5 0.8zm5.7 8.9l0.6 1-0.8 0.4-0.5-1q-0.3 0.2-0.6 0.3-0.4 0.1-0.7 0.1-0.3 0.1-0.7 0.1-0.3 0-0.6 0l-0.1-1.1q0.3 0 0.6 0 0.2 0 0.5 0 0.3-0.1 0.6-0.1 0.2-0.1 0.5-0.3l-1-1.7c-1.1 0.3-2.4 0.6-3.1-0.6-0.5-1-0.3-2.1 1-3l-0.6-1 0.7-0.5 0.6 1q0.3-0.1 0.5-0.2 0.3-0.1 0.5-0.1 0.3-0.1 0.6-0.1 0.3-0.1 0.5-0.1l0.2 1.2q-0.2-0.1-0.5 0-0.2 0-0.4 0-0.2 0.1-0.4 0.1-0.2 0.1-0.4 0.2l1 1.8c1.1-0.3 2.3-0.6 3.1 0.6 0.4 0.9 0.2 2-1.1 3z"/>
		<path fill-rule="evenodd" class="s0" d="m117.7 361.4c-4.5 5.5-12.7 6.3-18.2 1.8-5.6-4.6-6.4-12.8-1.8-18.3 4.5-5.6 12.7-6.4 18.3-1.8 5.5 4.5 6.3 12.7 1.7 18.3z"/>
		<path class="s1" d="m106.4 349.9c-0.3 0.8 0.3 1.3 1.1 1.9l0.9-2.8c-1.2-0.2-1.8 0.2-2 0.9z"/>
		<path class="s1" d="m108.1 354.5l-0.9 2.8c1.2 0.2 1.9-0.2 2.1-0.9 0.2-0.7-0.3-1.3-1.2-1.9z"/>
		<path class="s1" d="m111.1 342.5c-4.3-1.3-8.9 0-11.8 3.4-2.9 3.4-3.5 8.3-1.4 12.3 2 4 6.3 6.3 10.7 5.9 4.5-0.3 8.3-3.4 9.7-7.6 0.4-1.4 0.6-2.9 0.5-4.3-0.1-1.5-0.6-2.9-1.2-4.2-0.7-1.3-1.6-2.4-2.7-3.4-1.1-0.9-2.4-1.6-3.8-2.1zm-4.4 16.5l-0.6 1.8-1.3-0.4 0.5-1.8q-0.5-0.2-1-0.4-0.4-0.3-0.9-0.6-0.4-0.4-0.8-0.7-0.4-0.4-0.7-0.9l1.2-1.4q0.3 0.4 0.6 0.7 0.3 0.4 0.6 0.7 0.4 0.2 0.8 0.5 0.4 0.2 0.8 0.4l1-3.2c-1.6-1-3.3-2.2-2.6-4.4 0.5-1.6 2.1-2.7 4.7-2.1l0.6-1.8 1.3 0.4-0.6 1.8q0.4 0.1 0.8 0.3 0.4 0.3 0.8 0.5 0.3 0.3 0.7 0.6 0.3 0.3 0.6 0.6l-1.2 1.4q-0.2-0.3-0.5-0.5-0.2-0.3-0.5-0.5-0.3-0.2-0.6-0.4-0.3-0.1-0.7-0.3l-1 3.2c1.7 1 3.4 2.2 2.7 4.4-0.5 1.7-2.2 2.7-4.7 2.1z"/>
		<path fill-rule="evenodd" class="s0" d="m417.4 294.9c-6.9 2.3-14.2-1.4-16.4-8.3-2.3-6.8 1.5-14.1 8.3-16.4 6.8-2.2 14.1 1.5 16.4 8.3 2.2 6.9-1.5 14.2-8.3 16.4z"/>
		<path class="s1" d="m410 281.5c0.4 0.6 1.2 0.6 2.2 0.3l-1.5-2.5c-0.9 0.8-1 1.5-0.7 2.2z"/>
		<path class="s1" d="m414.6 283.2l1.5 2.5c1-0.8 1.1-1.5 0.8-2.1-0.4-0.6-1.3-0.7-2.3-0.4z"/>
		<path class="s1" d="m407.6 273c-3.8 2.3-5.9 6.7-5.2 11.1 0.6 4.5 3.9 8.1 8.2 9.2 4.4 1.1 8.9-0.6 11.6-4.1 2.7-3.6 3-8.5 0.7-12.3-0.8-1.3-1.8-2.4-2.9-3.3-1.2-0.8-2.5-1.5-3.9-1.8-1.5-0.4-2.9-0.5-4.4-0.2-1.4 0.2-2.8 0.7-4.1 1.4zm9.5 14.3l0.9 1.6-1.1 0.7-1-1.6q-0.5 0.2-1 0.4-0.5 0.2-1 0.3-0.6 0.2-1.1 0.2-0.6 0-1.1 0l-0.2-1.8q0.4 0 0.9 0 0.4 0 0.9-0.1 0.4-0.1 0.8-0.2 0.5-0.2 0.9-0.4l-1.7-2.8c-1.9 0.5-3.9 1-5-1-0.9-1.4-0.6-3.3 1.5-4.9l-1-1.6 1.2-0.7 0.9 1.6q0.4-0.2 0.9-0.4 0.4-0.2 0.8-0.3 0.4-0.1 0.9-0.1 0.4-0.1 0.9-0.1l0.2 1.8q-0.3 0-0.7 0.1-0.3 0-0.7 0.1-0.3 0-0.7 0.2-0.3 0.1-0.6 0.2l1.7 2.9c1.8-0.5 3.8-1.1 5 0.9 0.9 1.5 0.6 3.4-1.5 5z"/>
		<path class="s0" d="m287.9 118.2c-3.2 4.2-8.6 6.1-13.7 4.8-5.1-1.3-8.9-5.6-9.6-10.8-0.7-5.2 1.7-10.3 6.3-13 4.5-2.7 10.2-2.4 14.4 0.8 1.3 1 2.5 2.3 3.4 3.8 0.8 1.4 1.4 3.1 1.6 4.8 0.3 1.6 0.2 3.4-0.2 5-0.5 1.7-1.2 3.2-2.2 4.6z"/>
		<path class="s1" d="m277.2 106.9c-0.4 0.7-0.1 1.4 0.5 2.2l1.8-2.4c-1.1-0.6-1.8-0.4-2.3 0.2z"/>
		<path class="s1" d="m277.4 111.8l-1.8 2.4c1.1 0.6 1.9 0.4 2.3-0.1 0.4-0.6 0.1-1.5-0.5-2.3z"/>
		<path class="s1" d="m284.1 101.5c-3.5-2.7-8.4-3-12.3-0.7-3.8 2.3-5.9 6.7-5.3 11.1 0.6 4.5 3.9 8.1 8.2 9.2 4.4 1.1 8.9-0.5 11.6-4.1 0.9-1.1 1.6-2.4 1.9-3.9 0.4-1.4 0.5-2.8 0.3-4.3-0.2-1.4-0.7-2.8-1.5-4.1-0.7-1.2-1.7-2.3-2.9-3.2zm-9.6 14.1l-1.1 1.5-1.1-0.8 1.1-1.5q-0.4-0.3-0.8-0.7-0.4-0.4-0.7-0.9-0.3-0.4-0.5-0.9-0.3-0.5-0.4-1l1.6-0.9q0.1 0.4 0.3 0.8 0.2 0.4 0.4 0.8 0.3 0.4 0.6 0.7 0.3 0.4 0.6 0.7l2-2.7c-1.2-1.5-2.5-3.2-1-5 1-1.4 2.9-1.8 5.1-0.4l1.2-1.6 1.1 0.9-1.2 1.5q0.4 0.2 0.7 0.6 0.3 0.3 0.6 0.6 0.2 0.4 0.5 0.8 0.2 0.4 0.3 0.8l-1.5 0.9q-0.2-0.3-0.3-0.6-0.2-0.3-0.4-0.6-0.2-0.3-0.4-0.6-0.3-0.3-0.5-0.5l-2 2.7c1.2 1.5 2.4 3.2 1 5-1.1 1.4-2.9 1.8-5.2 0.4z"/>
		<path class="s0" d="m91.3 159.3c3.1 1.6 4.9 5 4.6 8.5-0.3 3.5-2.7 6.5-6.1 7.5-3.4 1-7-0.1-9.3-2.8-2.2-2.7-2.6-6.5-1-9.6 0.6-1 1.3-1.9 2.2-2.7 0.8-0.7 1.9-1.2 3-1.6 1.1-0.3 2.2-0.4 3.3-0.3 1.2 0.1 2.3 0.4 3.3 0.9z"/>
		<path class="s1" d="m85 167.5c0.5 0.2 0.9-0.1 1.4-0.6l-1.8-0.9c-0.3 0.8-0.1 1.2 0.4 1.5z"/>
		<path class="s1" d="m88.2 166.9l1.7 0.9c0.3-0.8 0.1-1.3-0.3-1.5-0.4-0.2-0.9 0.1-1.4 0.6z"/>
		<path class="s1" d="m80.6 163.5c-1.4 2.6-1 5.9 0.9 8.2 1.9 2.3 5 3.3 7.9 2.4 2.9-0.9 5-3.4 5.2-6.4 0.3-3-1.2-5.9-3.9-7.3q-1.3-0.7-2.8-0.9-1.5-0.1-2.9 0.3-1.4 0.5-2.5 1.4-1.2 1-1.9 2.3zm10.4 4.9l1.1 0.6-0.4 0.8-1.1-0.6q-0.2 0.3-0.4 0.6-0.3 0.3-0.5 0.5-0.3 0.3-0.6 0.5-0.3 0.2-0.6 0.4l-0.8-1q0.3-0.2 0.5-0.3 0.3-0.2 0.5-0.4 0.2-0.2 0.4-0.4 0.2-0.3 0.4-0.5l-2-1.1c-0.8 1-1.8 2-3.2 1.3-1-0.6-1.5-1.8-0.8-3.4l-1.2-0.6 0.5-0.8 1.1 0.6q0.1-0.3 0.3-0.5 0.2-0.3 0.4-0.5 0.2-0.2 0.4-0.4 0.3-0.2 0.5-0.3l0.8 0.9q-0.2 0.2-0.4 0.3-0.1 0.2-0.3 0.3-0.2 0.2-0.3 0.4-0.2 0.2-0.3 0.4l2 1c0.8-1 1.8-2 3.2-1.2 1 0.5 1.5 1.7 0.8 3.4z"/>
		<path class="s0" d="m247.6 237.6c2.9 1.6 4.6 4.8 4.3 8.2-0.3 3.3-2.6 6.1-5.8 7.1-3.2 1-6.7 0-8.8-2.6-2.2-2.6-2.5-6.2-1-9.2q0.8-1.5 2.1-2.5 1.2-1.1 2.8-1.6 1.6-0.4 3.2-0.3 1.7 0.2 3.2 0.9z"/>
		<path class="s1" d="m241.5 245.5c0.5 0.2 0.9-0.1 1.3-0.5l-1.6-0.9c-0.3 0.7-0.1 1.2 0.3 1.4z"/>
		<path class="s1" d="m244.6 244.9l1.7 0.9c0.2-0.8 0-1.2-0.4-1.4-0.4-0.3-0.9 0-1.3 0.5z"/>
		<path class="s1" d="m237.4 241.7c-1.3 2.5-1 5.6 0.8 7.8 1.8 2.2 4.8 3.1 7.5 2.3 2.8-0.9 4.7-3.3 5-6.1 0.3-2.9-1.2-5.6-3.7-7q-1.3-0.6-2.7-0.8-1.4-0.1-2.7 0.3-1.4 0.4-2.5 1.3-1 0.9-1.7 2.2zm9.9 4.6l1 0.6-0.4 0.8-1-0.6q-0.2 0.3-0.4 0.6-0.2 0.3-0.5 0.5-0.2 0.2-0.5 0.4-0.3 0.2-0.6 0.4l-0.7-0.9q0.2-0.2 0.5-0.3 0.2-0.2 0.4-0.4 0.2-0.2 0.4-0.4 0.2-0.2 0.4-0.4l-1.9-1c-0.8 0.9-1.8 1.8-3.1 1.1-1-0.5-1.4-1.6-0.8-3.2l-1-0.5 0.4-0.8 1 0.5q0.1-0.2 0.3-0.4 0.2-0.3 0.4-0.5 0.2-0.2 0.4-0.3 0.2-0.2 0.5-0.4l0.7 0.9q-0.2 0.1-0.4 0.3-0.1 0.1-0.3 0.3-0.2 0.1-0.3 0.3-0.2 0.2-0.3 0.4l1.9 1c0.8-0.9 1.7-1.9 3.1-1.2 1 0.5 1.4 1.7 0.8 3.2z"/>
		<path class="s0" d="m370.4 344.9c-2.4 7.2-8.9 12.4-16.5 13-7.7 0.6-14.9-3.4-18.4-10.2-3.5-6.8-2.6-15.1 2.4-20.9 4.9-5.8 12.9-8.1 20.2-5.8 2.4 0.8 4.6 2 6.5 3.6 1.9 1.6 3.4 3.6 4.6 5.8 1.1 2.2 1.8 4.6 2 7.1 0.2 2.5-0.1 5-0.8 7.4z"/>
		<path class="s1" d="m350.3 334.4c-0.3 1.1 0.5 2 1.7 2.8l1.4-4.1c-1.8-0.3-2.7 0.3-3.1 1.3z"/>
		<path class="s1" d="m352.9 341.1l-1.3 4.1c1.7 0.3 2.7-0.3 3-1.3 0.4-1-0.4-2-1.7-2.8z"/>
		<path class="s1" d="m357.3 323.7c-6.3-2-13.1-0.1-17.3 4.9-4.2 5-5 12.1-2 17.9 2.9 5.8 9.1 9.2 15.7 8.7 6.5-0.6 12-5 14-11.2 0.7-2 0.9-4.2 0.7-6.3-0.1-2.1-0.7-4.1-1.7-6-1-1.9-2.3-3.6-3.9-5-1.7-1.3-3.5-2.4-5.6-3zm-6.4 24l-0.9 2.6-1.9-0.6 0.9-2.6q-0.8-0.3-1.5-0.6-0.7-0.4-1.4-0.9-0.6-0.5-1.2-1-0.5-0.6-1-1.2l1.8-2q0.4 0.5 0.8 1 0.5 0.5 1 0.9 0.5 0.4 1.1 0.7 0.5 0.3 1.1 0.6l1.5-4.6c-2.3-1.5-4.8-3.2-3.8-6.4 0.8-2.4 3.1-3.9 6.9-3.1l0.8-2.6 1.9 0.6-0.8 2.6q0.6 0.2 1.2 0.5 0.6 0.3 1.1 0.7 0.5 0.3 1 0.8 0.5 0.4 0.9 0.9l-1.7 2q-0.3-0.4-0.7-0.8-0.4-0.3-0.8-0.6-0.4-0.3-0.9-0.6-0.4-0.3-0.9-0.5l-1.5 4.7c2.4 1.5 4.9 3.2 3.9 6.4-0.8 2.4-3.2 3.9-6.9 3.1z"/>
		<path fill-rule="evenodd" class="s0" d="m85.1 281.2c-9.8 3.5-20.6-1.6-24.1-11.5-3.5-9.9 1.6-20.7 11.5-24.2 9.8-3.5 20.6 1.6 24.1 11.5 3.5 9.9-1.6 20.7-11.5 24.2z"/>
		<path class="s1" d="m80.6 258.6c-1 0.6-1 1.8-0.7 3.2l3.8-2.1c-1.1-1.4-2.2-1.6-3.1-1.1z"/>
		<path class="s1" d="m77.8 265.2l-3.7 2.1c1.1 1.4 2.1 1.7 3.1 1.2 0.9-0.6 1-1.8 0.6-3.3z"/>
		<path class="s1" d="m93 255.6c-3.1-5.8-9.4-9-15.9-8.3-6.5 0.7-12 5.3-13.8 11.5-1.8 6.3 0.3 13.1 5.4 17.2 5.1 4 12.2 4.7 17.9 1.5 1.9-1 3.5-2.4 4.8-4 1.4-1.7 2.4-3.6 3-5.6 0.5-2.1 0.7-4.2 0.5-6.3-0.2-2.1-0.9-4.2-1.9-6zm-21.2 13l-2.4 1.3-1-1.8 2.3-1.3q-0.3-0.7-0.6-1.5-0.2-0.7-0.4-1.5-0.1-0.8-0.1-1.6-0.1-0.8 0-1.6l2.7-0.2q-0.1 0.6-0.1 1.3 0 0.7 0.1 1.3 0.1 0.7 0.3 1.3 0.2 0.6 0.4 1.3l4.3-2.4c-0.7-2.7-1.3-5.6 1.6-7.3 2.2-1.2 5-0.6 7.1 2.5l2.4-1.3 1 1.8-2.4 1.2q0.3 0.6 0.5 1.3 0.2 0.6 0.4 1.2 0.1 0.6 0.1 1.3 0.1 0.6 0.1 1.3l-2.6 0.3q0-0.5-0.1-1 0-0.6-0.1-1.1-0.1-0.5-0.3-1-0.1-0.5-0.3-1l-4.3 2.4c0.7 2.7 1.4 5.7-1.6 7.3-2.1 1.2-4.9 0.6-7.1-2.5z"/>
	</g>
	<g id="freepik--Coin--inject-62">
		<path class="s2" d="m384.2 106.8h-4c-11 0-19.9 10.8-19.9 24 0 13.3 8.9 24.1 19.9 24.1h4c11 0 19.9-10.8 19.9-24.1 0-13.2-8.9-24-19.9-24z"/>
		<path class="s3" d="m384.2 106.8h-4c-11 0-19.9 10.8-19.9 24 0 13.3 8.9 24.1 19.9 24.1h4c11 0 19.9-10.8 19.9-24.1 0-13.2-8.9-24-19.9-24z"/>
		<path fill-rule="evenodd" class="s2" d="m380.2 154.9c-11 0-19.9-10.7-19.9-24.1 0-13.3 8.9-24 19.9-24 11 0 19.9 10.7 19.9 24 0 13.4-8.9 24.1-19.9 24.1z"/>
		<path fill-rule="evenodd" class="s4" d="m380.2 151.4c-9.4 0-17-9.2-17-20.6 0-11.3 7.6-20.5 17-20.5 9.4 0 17 9.2 17 20.5 0 11.4-7.6 20.6-17 20.6z"/>
		<path class="s2" d="m381.4 141.9v3.5h-2.1v-3.4q-0.8 0-1.7-0.2-0.8-0.2-1.6-0.5-0.8-0.4-1.6-0.8-0.7-0.5-1.4-1.1l1.2-3.1q0.5 0.5 1.1 0.9 0.6 0.4 1.3 0.7 0.6 0.3 1.3 0.5 0.7 0.2 1.4 0.3v-6.2c-2.8-0.9-5.9-2-5.9-6.3 0-3.1 1.9-5.9 5.9-6.4v-3.4h2.1v3.4q0.7 0 1.4 0.2 0.7 0.1 1.4 0.3 0.6 0.3 1.2 0.6 0.7 0.4 1.2 0.8l-1 3.1q-0.5-0.3-1-0.6-0.5-0.3-1-0.5-0.5-0.2-1.1-0.4-0.5-0.1-1.1-0.2v6.3c2.9 0.8 6 1.9 6 6.2 0 3.1-1.9 5.8-6 6.3zm-2.1-13.2v-5.5q-0.5 0-1 0.2-0.5 0.3-0.8 0.7-0.4 0.4-0.6 0.9-0.2 0.5-0.2 1c0 1.5 1.1 2.2 2.6 2.7zm4.8 7.1c0-1.5-1.1-2.2-2.7-2.7v5.4c1.9-0.3 2.7-1.3 2.7-2.7z"/>
	</g>
	<g id="freepik--Bars--inject-62">
		<path class="s2" d="m411.7 170.2h-54.7q-0.9 0-1.8 0.4-0.8 0.3-1.5 1-0.6 0.6-1 1.5-0.3 0.8-0.3 1.8v241.1h64v-241.1q0-1-0.4-1.8-0.3-0.9-1-1.5-0.7-0.7-1.5-1-0.9-0.4-1.8-0.4z"/>
		<path class="s5" d="m411.7 170.2h-54.7q-0.9 0-1.8 0.4-0.8 0.3-1.5 1-0.6 0.6-1 1.5-0.3 0.8-0.3 1.8v241.1h64v-241.1q0-1-0.4-1.8-0.3-0.9-1-1.5-0.7-0.7-1.5-1-0.9-0.4-1.8-0.4z"/>
		<path class="s4" d="m357 170.2h51.7q1 0 1.8 0.4 0.9 0.3 1.5 1 0.7 0.6 1 1.5 0.4 0.8 0.4 1.8v241.1h-61v-241.1q0-1 0.3-1.8 0.4-0.9 1-1.5 0.7-0.7 1.5-1 0.9-0.4 1.8-0.4z"/>
		<path class="s2" d="m319.3 250.3h-54.7q-0.9 0-1.8 0.3-0.8 0.4-1.5 1-0.6 0.7-1 1.5-0.3 0.9-0.3 1.8v42.5h28.4q-0.5-0.6-1-1.2-0.4-0.6-0.7-1.3-0.3-0.7-0.4-1.5-0.2-0.7-0.2-1.5 0-1.3 0.4-2.5 0.5-1.3 1.3-2.3 0.8-1 1.9-1.7 1-0.7 2.3-1 1.3 0.3 2.4 1 1.1 0.7 1.9 1.7 0.8 1 1.2 2.3 0.4 1.2 0.4 2.5 0 0.8-0.2 1.5-0.1 0.7-0.4 1.5-0.3 0.7-0.7 1.3-0.4 0.6-1 1.2h28.4v-42.5q0-0.9-0.4-1.8-0.3-0.8-1-1.5-0.6-0.6-1.5-1-0.8-0.3-1.8-0.3z"/>
		<path class="s2" d="m298.6 343.4l-3 0.1q0.5 0.5 0.9 1.1 0.5 0.7 0.8 1.4 0.2 0.7 0.4 1.4 0.1 0.8 0.1 1.5 0 1.3-0.4 2.5-0.4 1.3-1.2 2.3-0.8 1-1.9 1.7-1.1 0.7-2.3 1-1.3-0.3-2.4-1-1.1-0.7-1.9-1.7-0.8-1-1.2-2.3-0.4-1.2-0.4-2.5 0-0.7 0.1-1.5 0.2-0.7 0.5-1.4 0.3-0.7 0.7-1.4 0.4-0.6 1-1.2l-28.4 0.1v72.5h64v-72.5z"/>
		<path class="s5" d="m319.3 250.3h-54.7q-0.9 0-1.8 0.3-0.8 0.4-1.5 1-0.6 0.7-1 1.5-0.3 0.9-0.3 1.8v42.5h28.4q-0.5-0.6-1-1.2-0.4-0.6-0.7-1.3-0.3-0.7-0.4-1.5-0.2-0.7-0.2-1.5 0-1.3 0.4-2.5 0.5-1.3 1.3-2.3 0.8-1 1.9-1.7 1-0.7 2.3-1 1.3 0.3 2.4 1 1.1 0.7 1.9 1.7 0.8 1 1.2 2.3 0.4 1.2 0.4 2.5 0 0.8-0.2 1.5-0.1 0.7-0.4 1.5-0.3 0.7-0.7 1.3-0.4 0.6-1 1.2h28.4v-42.5q0-0.9-0.4-1.8-0.3-0.8-1-1.5-0.6-0.6-1.5-1-0.8-0.3-1.8-0.3z"/>
		<path class="s5" d="m298.6 343.4l-3 0.1q0.5 0.5 0.9 1.1 0.5 0.7 0.8 1.4 0.2 0.7 0.4 1.4 0.1 0.8 0.1 1.5 0 1.3-0.4 2.5-0.4 1.3-1.2 2.3-0.8 1-1.9 1.7-1.1 0.7-2.3 1-1.3-0.3-2.4-1-1.1-0.7-1.9-1.7-0.8-1-1.2-2.3-0.4-1.2-0.4-2.5 0-0.7 0.1-1.5 0.2-0.7 0.5-1.4 0.3-0.7 0.7-1.4 0.4-0.6 1-1.2l-28.4 0.1v72.5h64v-72.5z"/>
		<path class="s4" d="m295.6 343.4q0.5 0.6 0.9 1.2 0.5 0.7 0.8 1.4 0.2 0.7 0.4 1.4 0.1 0.8 0.1 1.5c0.1 2-0.6 4-2 5.4-1.4 1.5-3.3 2.3-5.3 2.3-2 0-4-0.8-5.3-2.3-1.4-1.4-2.2-3.4-2.1-5.4q0-0.7 0.1-1.5 0.2-0.7 0.5-1.4 0.3-0.7 0.7-1.4 0.4-0.6 1-1.2l-25.4 0.1v72.5h61v-72.5z"/>
		<path class="s4" d="m260 254.9v42.5h25.4q-0.5-0.6-1-1.2-0.4-0.6-0.7-1.3-0.3-0.7-0.4-1.5-0.2-0.7-0.2-1.5c0-2 0.7-4 2.1-5.4 1.4-1.4 3.3-2.3 5.3-2.3 2 0 3.9 0.9 5.3 2.3 1.4 1.4 2.1 3.4 2.1 5.4q0 0.8-0.2 1.5-0.1 0.7-0.4 1.5-0.3 0.7-0.7 1.3-0.4 0.6-1 1.2h25.4v-42.5q0-0.9-0.3-1.8-0.4-0.8-1.1-1.5-0.6-0.6-1.5-1-0.8-0.3-1.7-0.3h-51.8q-0.9 0-1.8 0.3-0.8 0.4-1.5 1-0.6 0.7-1 1.5-0.3 0.9-0.3 1.8z"/>
	</g>
	<g id="freepik--speech-bubble--inject-62">
		<path class="s2" d="m181.8 157.2h-25.4q-1.6 0-3 0.6-1.4 0.6-2.5 1.7-1.1 1.1-1.7 2.5-0.6 1.5-0.6 3v25.7q0 1.5 0.6 3 0.6 1.4 1.7 2.5 1.1 1.1 2.5 1.7 1.4 0.6 3 0.6h10l2.7 7 2.7-7h10q1.6 0 3-0.6 1.4-0.6 2.6-1.7 1-1.1 1.6-2.5 0.6-1.5 0.6-3v-25.7q0-1.6-0.6-3-0.6-1.4-1.7-2.5-1.1-1.1-2.5-1.7-1.4-0.6-3-0.6z"/>
		<path class="s6" d="m181.8 157.2h-25.4q-1.6 0-3 0.6-1.4 0.6-2.5 1.7-1.1 1.1-1.7 2.5-0.6 1.5-0.6 3v25.7q0 1.5 0.6 3 0.6 1.4 1.7 2.5 1.1 1.1 2.5 1.7 1.4 0.6 3 0.6h10l2.7 7 2.7-7h10q1.6 0 3-0.6 1.4-0.6 2.6-1.7 1-1.1 1.6-2.5 0.6-1.5 0.6-3v-25.7q0-1.6-0.6-3-0.6-1.4-1.7-2.5-1.1-1.1-2.5-1.7-1.4-0.6-3-0.6z"/>
		<path fill-rule="evenodd" class="s7" d="m169.2 193.9c-2.3 0-4.2-1.1-4.2-2.5 0-1.4 1.9-2.5 4.2-2.5 2.3 0 4.2 1.1 4.2 2.4 0.1 1.4-1.8 2.6-4.2 2.6z"/>
		<path fill-rule="evenodd" class="s6" d="m169.2 193.9c-2.3 0-4.2-1.1-4.2-2.5 0-1.4 1.9-2.5 4.2-2.5 2.3 0 4.2 1.1 4.2 2.4 0.1 1.4-1.8 2.6-4.2 2.6z"/>
		<path class="s7" d="m175.3 186.7q0 0 0.1-0.1 0.1-0.1 0.1-0.2 0.1-0.1 0.1-0.3 0-0.1 0-0.2c0-1.3-2.9-2.4-6.4-2.4-3.6 0-6.4 1.1-6.4 2.5q0 0.1 0 0.2 0 0.2 0.1 0.3 0 0.1 0.1 0.2 0.1 0.1 0.1 0.1 0 0.1 0 0.1 0 0.1 0 0.1 0 0.1-0.1 0.1 0 0.1 0 0.2 0 0.1 0.1 0.2 0 0.1 0.1 0.2 0 0.1 0.1 0.2 0 0.1 0.1 0.2 0 0 0 0.1 0 0-0.1 0.1 0 0 0 0.1 0 0.1 0 0.1 0 0.1 0.1 0.2 0 0.2 0 0.3 0.1 0.1 0.2 0.2 0 0 0.1 0.1 0 0.1 0 0.1-0.1 0.1-0.1 0.1 0 0.1 0 0.2 0 0 0 0.1 0 0.1 0 0.2 0.1 0.1 0.1 0.2 0.1 0.1 0.1 0.2 0.1 0.1 0.2 0.2 0 0 0 0.1-0.1 0-0.1 0.1 0 0 0 0.1 0 0.1 0 0.1c0 1.1 2.4 2 5.3 2 3 0 5.4-1 5.4-2.1q0 0 0-0.1-0.1 0-0.1-0.1 0-0.1 0-0.1 0-0.1-0.1-0.1 0.1-0.1 0.2-0.2 0.1-0.1 0.1-0.2 0.1-0.1 0.1-0.2 0-0.1 0-0.2 0-0.1 0-0.1 0-0.1 0-0.1 0-0.1 0-0.2-0.1 0-0.1-0.1 0.1-0.1 0.2-0.2 0.1-0.2 0.2-0.3 0-0.2 0-0.4 0-0.1-0.1-0.3 0.1-0.1 0.2-0.2 0-0.1 0.1-0.2 0-0.1 0-0.2 0.1-0.1 0.1-0.2 0-0.1 0-0.1 0-0.1-0.1-0.1 0-0.1 0-0.2 0 0-0.1-0.1z"/>
		<path class="s2" d="m180.5 174.7c0-3.9-2-7.6-5.4-9.6-3.3-2.1-7.4-2.3-10.9-0.6-3.6 1.7-6 5.1-6.4 8.9-0.4 3.9 1.1 7.8 4.2 10.2q0.2 0.2 0.3 0.3 0.2 0.2 0.3 0.4 0 0.2 0.1 0.5 0 0.2 0 0.4 0 0 0 0.1 0 0 0 0 0 0 0 0 0 0 0 0c0 1.4 3 2.5 6.6 2.5 3.6-0.1 6.5-1.2 6.5-2.6v-0.1q0-0.2 0-0.4 0-0.3 0.1-0.5 0.1-0.2 0.2-0.4 0.2-0.2 0.4-0.3 0.9-0.8 1.7-1.8 0.7-1 1.3-2.2 0.5-1.1 0.7-2.3 0.3-1.3 0.3-2.5z"/>
		<path class="s8" d="m180.5 174.7c0-3.9-2-7.6-5.4-9.6-3.3-2.1-7.4-2.3-10.9-0.6-3.6 1.7-6 5.1-6.4 8.9-0.4 3.9 1.1 7.8 4.2 10.2q0.2 0.2 0.3 0.3 0.2 0.2 0.3 0.4 0 0.2 0.1 0.5 0 0.2 0 0.4 0 0 0 0.1 0 0 0 0 0 0 0 0 0 0 0 0c0 1.4 3 2.5 6.6 2.5 3.6-0.1 6.5-1.2 6.5-2.6v-0.1q0-0.2 0-0.4 0-0.3 0.1-0.5 0.1-0.2 0.2-0.4 0.2-0.2 0.4-0.3 0.9-0.8 1.7-1.8 0.7-1 1.3-2.2 0.5-1.1 0.7-2.3 0.3-1.3 0.3-2.5z"/>
		<g style="opacity: .2">
			<path class="s9" d="m166.8 186.2q0 0-0.1 0-0.1-0.1-0.1-0.1-0.1-0.1-0.1-0.2-0.1 0-0.1-0.1c0-3.9-3.2-6.9-3.2-7q-0.1-0.1-0.1-0.2 0-0.1 0-0.2 0.1-0.1 0.2-0.2 0.1-0.1 0.2-0.1h1.8l0.6-1.3q0-0.1 0.1-0.1 0-0.1 0.1-0.1 0 0 0.1-0.1 0 0 0.1 0 0 0 0.1 0 0 0 0.1 0.1 0 0 0.1 0 0 0.1 0 0.1l1.1 2 1-2q0 0 0.1-0.1 0 0 0.1 0 0-0.1 0.1-0.1 0 0 0.1 0 0 0 0.1 0 0.1 0 0.1 0.1 0 0 0.1 0 0 0.1 0 0.1l1.1 2.2 1-2.2q0 0 0.1-0.1 0 0 0.1-0.1 0 0 0.1 0 0 0 0.1 0 0 0 0.1 0 0.1 0 0.1 0 0.1 0.1 0.1 0.1 0 0.1 0 0.1l0.6 1.4h1.9q0.1 0 0.1 0 0.1 0 0.2 0.1 0 0 0 0.1 0.1 0 0.1 0.1 0 0 0 0.1 0 0.1 0 0.1 0 0.1-0.1 0.2 0 0-0.1 0c-2.7 1.6-3.4 7-3.4 7q0 0.2-0.2 0.3-0.1 0.1-0.3 0.1-0.1-0.1-0.2-0.2-0.1-0.1-0.1-0.3c0-0.2 0.6-4.5 2.8-6.8h-1q0 0-0.1 0 0 0-0.1-0.1 0 0-0.1 0 0-0.1 0-0.1l-0.4-0.8-1 2.1q0 0.1 0 0.1-0.1 0.1-0.1 0.1-0.1 0-0.1 0.1-0.1 0-0.2 0 0 0-0.1 0 0-0.1-0.1-0.1 0 0-0.1-0.1 0 0 0-0.1l-1.1-2.2-1 1.9q0 0.1-0.1 0.1 0 0.1-0.1 0.1 0 0-0.1 0 0 0-0.1 0c-0.1 0-0.3 0-0.3-0.2l-1-1.8-0.4 0.8q0 0.1 0 0.1-0.1 0.1-0.1 0.1-0.1 0-0.1 0-0.1 0.1-0.2 0.1h-1.2q0.7 0.7 1.2 1.5 0.5 0.8 0.9 1.6 0.3 0.9 0.5 1.8 0.2 1 0.3 1.9 0 0.1-0.1 0.2 0 0 0 0.1-0.1 0.1-0.2 0.1 0 0-0.1 0z"/>
		</g>
	</g>
	<g id="freepik--Character--inject-62">
		<path class="s2" d="m134.6 395.4h-54.7q-0.9-0.1-1.8 0.3-0.8 0.4-1.5 1-0.6 0.7-1 1.5-0.4 0.9-0.4 1.8l0.1 16h64v-16q0-0.9-0.4-1.8-0.3-0.8-1-1.5-0.7-0.6-1.5-1-0.9-0.3-1.8-0.3z"/>
		<path class="s5" d="m134.6 395.4h-54.7q-0.9-0.1-1.8 0.3-0.8 0.4-1.5 1-0.6 0.7-1 1.5-0.4 0.9-0.4 1.8l0.1 16h64v-16q0-0.9-0.4-1.8-0.3-0.8-1-1.5-0.7-0.6-1.5-1-0.9-0.3-1.8-0.3z"/>
		<path class="s4" d="m79.9 395.4h51.7q1 0 1.8 0.3 0.9 0.4 1.5 1 0.7 0.7 1 1.5 0.4 0.9 0.4 1.8v16h-61v-16q0-0.9 0.3-1.8 0.4-0.8 1-1.5 0.7-0.6 1.5-1 0.9-0.3 1.8-0.3z"/>
		<path class="s2" d="m227 345.9h-54.8q-0.9 0-1.7 0.4-0.9 0.3-1.5 1-0.7 0.6-1 1.5-0.4 0.8-0.4 1.7v65.5h64v-65.5q0-0.9-0.4-1.8-0.3-0.8-1-1.4-0.6-0.7-1.4-1-0.9-0.4-1.8-0.4z"/>
		<path class="s5" d="m227 345.9h-54.8q-0.9 0-1.7 0.4-0.9 0.3-1.5 1-0.7 0.6-1 1.5-0.4 0.8-0.4 1.7v65.5h64v-65.5q0-0.9-0.4-1.8-0.3-0.8-1-1.4-0.6-0.7-1.4-1-0.9-0.4-1.8-0.4z"/>
		<path class="s4" d="m172.2 345.9h51.8q0.9 0 1.8 0.4 0.8 0.3 1.5 1 0.6 0.6 1 1.5 0.3 0.8 0.3 1.7v65.5h-61v-65.5q0-0.9 0.4-1.8 0.4-0.8 1-1.4 0.6-0.7 1.5-1 0.8-0.4 1.7-0.4z"/>
		<path class="s7" d="m184.9 254.8c3.8 2.3 10.9 16.6 10.9 16.6l-6.3 4.9-8.5-9.7z"/>
		<path class="s6" d="m195.8 271.4l-6.3 4.9-4.7-5.3-3.8-4.4 1.4-4.2 2.6-7.6c3.7 2.3 10.8 16.6 10.8 16.6z"/>
		<path class="s3" d="m184.8 271l-3.8-4.4 1.4-4.2q0.5 1.1 0.8 2.1 0.4 1.1 0.7 2.1 0.3 1.1 0.5 2.2 0.3 1.1 0.4 2.2z"/>
		<path fill-rule="evenodd" class="s7" d="m177.8 301.2l-25.9-3.8 2.7-28.3 26.3 2.9-3.1 29.2z"/>
		<path fill-rule="evenodd" class="s4" d="m177.8 301.2l-25.9-3.8 2.7-28.3 26.3 2.9-3.1 29.2z"/>
		<path fill-rule="evenodd" class="s10" d="m140.9 343.3l20.3 1.4-0.4-7.9-22 2.2"/>
		<path class="s7" d="m135.8 336.1l-0.3 1.1 1.2 0.7q-0.5 0.6-1 1.2-0.5 0.7-1 1.4-0.4 0.6-0.9 1.3-0.4 0.7-0.7 1.5-0.4 0.8-0.7 1.7-0.3 0.8-0.5 1.7-0.2 0.9-0.3 1.8-0.2 0.9-0.2 1.8c0 0.6 1.1 1.9 3.5-2.2q0 0 0.1-0.1 0-0.1 0.1-0.1 0-0.1 0.1-0.2 0.1 0 0.1-0.1c1.8-2 6.5-4.3 6.5-4.3l1.4-5.1q-0.1-0.1-0.1-0.2-0.1 0-0.2-0.1-0.1-0.1-0.1-0.2-0.1 0-0.2-0.1-0.7-0.7-1.5-1.1-0.8-0.4-1.7-0.6-0.9-0.2-1.8-0.2-1 0.1-1.8 0.4z"/>
		<path class="s10" d="m142.6 337.6c0.6 0.9-3.6 3-5.4 4.9-1.5 1.7-2.6 3.8-1.9 5.1 1.8-2 7.7-4.4 7.7-4.4l1.1-4c0 0-1.1-1.2-1.5-1.6z"/>
		<path class="s7" d="m172.9 286.6l2.9 13.2c0 0 26.4 25.6 26.2 35.5 0 2.1 2.1 8.3-13.9 10.3-8.1 1-40.7-1.5-40.7-1.5v-7.1c0 0 22.6-3.5 34.8-3.7l-26.9-24-9-11.5 7-16.1z"/>
		<path class="s11" d="m188.1 345.6q-1.6 0.1-3.1 0.1-1.6 0.1-3.1 0.1-1.6 0-3.2 0-1.5 0-3.1-0.1c-12.4-0.4-28.2-1.6-28.2-1.6v-7.1c0 0 15.8-2.4 28.1-3.4 2.4-0.2 4.7-0.3 6.7-0.3l-9.1-8.2-17.8-15.8-3.4-4.4-5.6-7.1 7-16.1 19.6 4.9 2.9 13.2c0 0 26.4 25.6 26.3 35.5-0.1 2.1 2 8.3-14 10.3z"/>
		<path class="s3" d="m155.3 309.3l-3.4-4.4 6.6-4.1c0 0 8.6 7.7 14.6 24.3z"/>
		<path class="s3" d="m175.6 345.7c-12.4-0.4-28.2-1.6-28.2-1.6v-7.1c0 0 15.8-2.4 28.1-3.4q0.2 1.5 0.3 3 0.1 1.5 0.1 3.1 0.1 1.5 0 3-0.1 1.5-0.3 3z"/>
		<path class="s7" d="m118.8 394.8h1.2l0.3-1.4 3.8 1.8 9.6 0.3c0 0 1.6-1.5-3-2.8q-0.1-0.1-0.2-0.1 0 0-0.1-0.1-0.1 0-0.2 0-0.1-0.1-0.1-0.1c-2.5-1.2-5.8-5.2-5.8-5.2l-5.3-0.1q-0.6 0.8-0.9 1.8-0.3 1-0.3 2-0.1 1 0.2 2 0.3 1 0.8 1.9z"/>
		<path class="s10" d="m118.6 387.8c0.7-0.7 3.8 2.8 6.1 4 2 1.1 4.3 1.7 5.4 0.6-2.4-1.2-6.1-6.3-6.1-6.3l-4.3-0.1c0 0-0.9 1.4-1.1 1.8z"/>
		<path fill-rule="evenodd" class="s10" d="m124.3 387.2l14.6-14.2-6.2-4.9-13 17.9"/>
		<path class="s7" d="m171.5 339c-1.8-11.9-5.4-27.2-8.4-39l-1.3-15-14.4-2.5c0 0-7 12.4-3.8 24.1 2.5 9.1 8 20.2 15.3 33.2-15.9 12.6-29 28.9-36.4 40q0.2 0.4 0.5 0.8 0.3 0.3 0.5 0.7 0.3 0.3 0.6 0.6 0.3 0.3 0.7 0.6 0.3 0.4 0.8 0.7 0.4 0.4 0.8 0.6 0.5 0.3 0.9 0.6 0.5 0.2 1 0.4c11.7-11.2 27.6-25 38.8-35.5 3.8-3.4 5.3-6.2 4.4-10.3z"/>
		<path class="s11" d="m171.5 339c-1.8-11.9-5.4-27.2-8.4-39l-1.3-15-14.4-2.5c0 0-7 12.4-3.8 24.1 2.5 9.1 8 20.2 15.3 33.2-15.9 12.6-29 28.9-36.4 40q0.2 0.4 0.5 0.8 0.3 0.3 0.5 0.7 0.3 0.3 0.6 0.6 0.3 0.3 0.7 0.6 0.3 0.4 0.8 0.7 0.4 0.4 0.8 0.6 0.5 0.3 0.9 0.6 0.5 0.2 1 0.4c11.7-11.2 27.6-25 38.8-35.5 3.8-3.4 5.3-6.2 4.4-10.3z"/>
		<path class="s2" d="m184.9 254.8c0 0-2.2 17.7-12 31.8 0-0.1-20.9-2.7-25.5-4.1 2.8-8.5 4.6-14.2 5.8-30.3 0.3-3.9 3.8-6.1 7.6-5.4q1.4 0.1 2.8 0.3 1.4 0.2 2.8 0.4 1.4 0.3 2.8 0.7 1.3 0.3 2.7 0.8 1.6 0.6 3.3 1.3 1.7 0.7 3.3 1.4 1.6 0.7 3.2 1.5 1.6 0.8 3.2 1.6z"/>
		<path class="s12" d="m184.9 254.8q-0.2 1.6-0.6 3.3-0.3 1.6-0.6 3.3-0.4 1.6-0.9 3.2-0.4 1.7-0.9 3.3-0.8 2.4-1.8 4.9-0.9 2.4-2 4.7-1.1 2.4-2.4 4.6-1.3 2.3-2.8 4.5c-1 1.4-20.9-2.7-25.6-4 0.6-1.7 1.1-3.2 1.6-4.7q0.6-1.9 1.1-3.8 0.5-1.9 0.9-3.9 0.4-1.9 0.7-3.9 0.4-2 0.6-4c0.3-2.5 0.6-5.3 0.9-8.6 0-0.5 0-1 0.1-1.5 0.3-3.9 3.8-6.1 7.6-5.4 0.5 0.1 1.7 0.1 3.5 0.4q0.3 0 0.5 0 0.9 0.2 1.8 0.4 0.9 0.1 1.8 0.4 0.9 0.2 1.7 0.4 0.9 0.3 1.8 0.6c1.1 0.3 2.5 0.9 4 1.5 4.3 1.8 9 4.3 9 4.3z"/>
		<path class="s7" d="m163.9 266.7q-0.4 3.3-1 7-0.1 0.6-0.1 0.6-0.6 3.8-1.4 8-0.5 2.3-1.1 4.7-0.5 2.3-1.1 4.6-0.6 2.3-1.3 4.6-0.7 2.3-1.4 4.6l-16-4.6c0 0 7.7-19 9.5-25.3q0.1-0.3 0.2-0.5 0-0.3 0.1-0.6 0.1-0.3 0.1-0.5 0.1-0.3 0.1-0.6c0.7-3.6 1-8.3 1.4-12.3 0.3-3.4 0.8-6.3 1.7-7.6 1.6-2.2 7-2 9.6-1.8h0.1c0.5 0 0.9 0.1 1.1 0.2h0.4q0.1 2.4 0.1 4.9-0.1 2.4-0.2 4.8-0.1 2.5-0.3 4.9-0.2 2.4-0.5 4.9z"/>
		<path class="s7" d="m175.8 250.5c0 0 5.5 11.9 0.8 51.5l3.4-0.9 2-26.5c0 0 2.9-14.7 2.9-19.8 0 0-6.7-4.1-9.1-4.3z"/>
		<path class="s6" d="m163.9 266.7q-0.4 3.3-1 7-0.1 0.6-0.1 0.6-0.6 3.8-1.4 8-0.5 2.3-1.1 4.7-0.5 2.3-1.1 4.6-0.6 2.3-1.3 4.6-0.7 2.3-1.4 4.6l-16-4.6c0 0 7.7-19 9.5-25.3q0.1-0.3 0.2-0.5 0-0.3 0.1-0.6 0.1-0.3 0.1-0.5 0.1-0.3 0.1-0.6c0.7-3.6 1-8.3 1.4-12.3 0.3-3.4 0.8-6.3 1.7-7.6 1.6-2.2 7-2 9.6-1.8h0.1c0.5 0 0.9 0.1 1.1 0.2h0.4q0.1 2.4 0.1 4.9-0.1 2.4-0.2 4.8-0.1 2.5-0.3 4.9-0.2 2.4-0.5 4.9z"/>
		<path class="s6" d="m175.8 250.5c0 0 5.5 11.9 0.8 51.5l3.4-0.9 2-26.5c0 0 2.9-14.7 2.9-19.8 0 0-6.7-4.1-9.1-4.3z"/>
		<path class="s7" d="m164 267c-0.4 3.2-0.8 5.7-1 6.8q-0.1 0.5-0.1 0.5l-2.5-15.3-0.7-4.7 3.5 0.8-5.2-4.6 5.2-3.4h0.1l1.1 0.1h0.4c0.9 5 0 13.6-0.8 19.8z"/>
		<path class="s7" d="m175.8 250.5l-0.7-0.9c0 0 5 3.1 7 7l-3.1 1.3 2.5 0.9-2.9 16.7c0 0-1-18.6-2.7-24.3"/>
		<path class="s11" d="m164 267c-0.4 3.2-0.8 5.7-1 6.8q-0.1 0.5-0.1 0.5l-2.5-15.3-0.7-4.7 3.5 0.8-5.2-4.6 5.2-3.4h0.1l1.1 0.1h0.4c0.9 5 0 13.6-0.8 19.8z"/>
		<path class="s11" d="m175.8 250.5l-0.7-0.9c0 0 5 3.1 7 7l-3.1 1.3 2.5 0.9-2.9 16.7c0 0-1-18.6-2.7-24.3"/>
		<path class="s3" d="m164 267c-0.4 3.2-0.8 5.7-1 6.8q-0.1 0.5-0.1 0.5-0.6 3.9-1.5 8c-4.7-1.4-8.4-7.8-10.8-13.6 0.7-3.6 0.9-8.3 1.3-12.3 2.4-1 5-1.6 6.6-0.3q0.3 0.3 0.6 0.7 0.2 0.3 0.5 0.7 0.3 0.3 0.5 0.7 0.2 0.4 0.4 0.8 0.5 0.9 1 1.8 0.4 1 0.9 2 0.4 0.9 0.8 1.9 0.4 1 0.8 2z"/>
		<path class="s2" d="m163 256c0 0-2.4-13.9 8.6-9.3 6.9 2.8 7 13.2 7 13.2l-3.1-3.2q-0.3 1.2-0.7 2.3-0.4 1.1-0.8 2.2-0.4 1.2-0.8 2.3-0.5 1.1-1 2.1-1-1.2-1.8-2.5-0.9-1.3-1.6-2.7-0.7-1.4-1.2-2.9-0.6-1.5-1-3z"/>
		<path class="s13" d="m163 256c0 0-2.4-13.9 8.6-9.3 6.9 2.8 7 13.2 7 13.2l-3.1-3.2q-0.3 1.2-0.7 2.3-0.4 1.1-0.8 2.2-0.4 1.2-0.8 2.3-0.5 1.1-1 2.1-1-1.2-1.8-2.5-0.9-1.3-1.6-2.7-0.7-1.4-1.2-2.9-0.6-1.5-1-3z"/>
		<path class="s10" d="m174.6 252.7c0.4 4.1-2.4 12.7-2.4 12.7-4.3-4.2-5.7-17.6-5.7-17.6 1.3-0.1 1.9-2.3 2.2-4.4q0-0.5 0.1-1 0-0.5 0-1 0.1-0.5 0.1-1 0-0.4 0-0.9l6.9 2.3q-0.4 0.8-0.7 1.7-0.3 0.9-0.6 1.8-0.2 0.9-0.3 1.8-0.2 1-0.2 1.9 0 0.3 0 0.6 0 0.2 0 0.5 0 0.3 0.1 0.5 0 0.3 0.1 0.6 0 0.2 0.1 0.4 0 0.2 0.1 0.3 0 0.2 0.1 0.4 0.1 0.2 0.1 0.4z"/>
		<path class="s3" d="m175.8 241.8q-0.4 0.8-0.7 1.7-0.3 0.9-0.6 1.8-0.2 0.9-0.3 1.8-0.2 1-0.2 1.9-0.9-0.5-1.6-1.1-0.8-0.6-1.5-1.3-0.7-0.7-1.3-1.5-0.5-0.8-1-1.7 0.1-0.5 0.1-1 0.1-0.5 0.1-1 0-0.4 0-0.9 0.1-0.5 0.1-1z"/>
		<path class="s7" d="m164.3 224.5c0 0-2-4.2-6.3-2.4-4.2 1.8-4 10.8 3 8 7-2.8 3.3-5.6 3.3-5.6z"/>
		<path class="s2" d="m166.8 224.1c0 0-2.4-1-5 2-2.5 2.9-0.8 6.4-0.1 6.1 0.7-0.4 5.5-6.2 5.1-8.1z"/>
		<path class="s7" d="m172.2 242.2c0 0-7.1 4.1-11.1-6.2-4-10.3 10.8-19 15.4-10.2 4.6 8.8-4.3 16.4-4.3 16.4z"/>
		<path class="s10" d="m164 233.7c2 5.8 2.7 8.4 6.6 10.8 5.8 3.6 12.7 0.3 12.4-6-0.1-5.7-3.4-14.3-10-15.4-1.4-0.3-2.8-0.2-4.1 0.3-1.4 0.4-2.6 1.2-3.5 2.3-0.9 1.1-1.5 2.4-1.8 3.8-0.2 1.4-0.1 2.8 0.4 4.2z"/>
		<path class="s7" d="m168.5 228.5c-2.7 4.8 4.9 8.8-2 9.5-6.8 0.7-5.5-9.4-1.7-12.2 3.7-2.8 3.7 2.7 3.7 2.7z"/>
		<path class="s7" d="m164.8 225.9c1.4 4 2.2 5 5.7 3.3q-0.2-0.3-0.4-0.6-0.2-0.3-0.3-0.7-0.2-0.3-0.3-0.7 0-0.3-0.1-0.7 0.2 0.4 0.5 0.7 0.2 0.3 0.5 0.5 0.4 0.3 0.7 0.5 0.4 0.2 0.7 0.3 0.4-0.2 0.7-0.4 0.4-0.2 0.8-0.4 0.3-0.1 0.7-0.3 0.4-0.1 0.8-0.3-0.1-0.2-0.2-0.4-0.1-0.2-0.2-0.4 0-0.3 0-0.5-0.1-0.2-0.1-0.4 0.2 0.2 0.3 0.4 0.2 0.2 0.4 0.4 0.2 0.2 0.5 0.4 0.2 0.1 0.4 0.3 0.5-0.1 0.9-0.1 0.4-0.1 0.9 0 0.4 0 0.8 0 0.4 0.1 0.8 0.2c-0.6-4.4-8.7-8-14.5-1.1z"/>
		<path class="s7" d="m173.7 233.3c0.1 0.5 0.5 0.8 0.9 0.8 0.3-0.1 0.4-0.6 0.3-1.1-0.2-0.4-0.6-0.8-0.9-0.7-0.3 0-0.4 0.5-0.3 1z"/>
		<path class="s7" d="m179.8 232c0.2 0.5 0.6 0.8 0.9 0.8 0.3-0.1 0.4-0.6 0.3-1-0.2-0.5-0.5-0.9-0.9-0.8-0.3 0.1-0.4 0.5-0.3 1z"/>
		<path class="s7" d="m180 231l1.1-0.6c0 0-0.3 1.1-1.1 0.6z"/>
		<path class="s14" d="m178.4 233.2q0.3 0.4 0.6 0.8 0.3 0.4 0.6 0.7 0.4 0.4 0.7 0.7 0.4 0.3 0.8 0.6-0.2 0.2-0.4 0.3-0.2 0.2-0.4 0.3-0.2 0.1-0.4 0.1-0.3 0.1-0.5 0.1z"/>
		<path class="s7" d="m177.1 239.2q0.1 0 0.2 0 0.1 0 0.2 0 0.1 0 0.2 0 0.1 0 0.2-0.1 0.1 0 0.1 0 0 0 0 0 0.1-0.1 0.1-0.1 0 0 0 0-0.1-0.1-0.1-0.1 0 0 0-0.1 0 0-0.1 0 0 0 0 0-0.5 0.1-1 0.1-0.5 0-1-0.1-0.4-0.1-0.9-0.3-0.4-0.2-0.8-0.5 0-0.1-0.1-0.1-0.1 0-0.1 0.1-0.1 0-0.1 0.1 0 0.1 0.1 0.1 0.3 0.3 0.7 0.5 0.4 0.2 0.8 0.3 0.4 0.1 0.8 0.2 0.4 0.1 0.8 0z"/>
		<path class="s10" d="m164.2 239.6q0.3 0.4 0.6 0.7 0.3 0.3 0.7 0.5 0.3 0.3 0.8 0.4 0.4 0.2 0.8 0.3c1.5 0.1 1.9-1.6 1.2-3.1-0.7-1.4-2.2-3.2-3.5-2.6-1.4 0.5-1.5 2.5-0.6 3.8z"/>
		<path class="s7" d="m171.6 230.8q0 0 0 0 0.1-0.1 0.1-0.1 0 0 0 0 0.1 0 0.1-0.1 0.1-0.2 0.3-0.4 0.2-0.1 0.5-0.3 0.2-0.1 0.5-0.2 0.2 0 0.5-0.1 0.1 0.1 0.1 0 0.1 0 0.1 0 0.1-0.1 0.1-0.1 0-0.1 0-0.1 0-0.1 0-0.1 0-0.1-0.1-0.1 0-0.1-0.1-0.1 0 0-0.1 0-0.3 0-0.7 0-0.3 0.1-0.6 0.3-0.3 0.2-0.6 0.4-0.3 0.2-0.5 0.5 0 0.1 0 0.1 0 0.1 0 0.2 0 0 0.1 0.1 0 0 0 0.1 0.1 0 0.1 0 0 0 0.1 0 0 0 0 0 0 0 0.1 0z"/>
		<path class="s7" d="m180.8 228.9q0 0 0 0 0.1 0 0.1-0.1 0 0 0 0 0.1 0 0.1 0 0-0.1 0-0.1 0.1-0.1 0.1-0.1-0.1-0.1-0.1-0.2 0 0-0.1-0.1-0.2-0.2-0.6-0.4-0.3-0.2-0.6-0.3-0.4-0.1-0.8-0.1-0.3 0-0.7 0.1 0 0-0.1 0 0 0.1-0.1 0.1 0 0.1 0 0.1 0 0.1 0 0.1 0 0.1 0.1 0.2 0 0 0.1 0 0 0.1 0.1 0.1 0 0 0.1 0 0.3-0.1 0.6-0.1 0.3 0 0.6 0.1 0.2 0.1 0.5 0.3 0.2 0.1 0.5 0.3 0 0 0 0 0 0 0.1 0.1 0 0 0 0 0.1 0 0.1 0z"/>
		<path class="s7" d="m173.9 232.3l1.1-0.6c0 0-0.4 1.1-1.1 0.6z"/>
		<path class="s2" d="m223.5 326.4l17.7-42.6-23.1-9.6q0.8-0.3 1.6-0.9 0.8-0.6 1.4-1.3 0.6-0.7 1-1.6 0.4-0.8 0.6-1.8 0.2-1 0.1-2.1 0-1.1-0.4-2.2-0.4-1-1.1-1.9-0.7-0.9-1.6-1.5-0.6-0.4-1.3-0.7-0.6-0.3-1.4-0.4-0.7-0.1-1.4-0.1-0.8 0-1.5 0.2-1.1 0-2.3 0.3-1.1 0.3-2.1 0.9-0.9 0.7-1.7 1.6-0.7 0.9-1.2 2-0.2 0.5-0.3 1.1-0.2 0.6-0.2 1.2-0.1 0.6 0 1.2 0 0.6 0.1 1.2l-20.7-8.6-2 0.2-17.6 42.6 23.1 9.6q-0.9 0.3-1.7 0.9-0.7 0.6-1.3 1.3-0.6 0.7-1 1.6-0.4 0.8-0.6 1.8-0.3 1-0.2 2.1 0.1 1.1 0.5 2.2 0.3 1 1 1.9 0.7 0.8 1.6 1.5 0.6 0.4 1.3 0.7 0.7 0.2 1.4 0.4 0.7 0.1 1.5 0.1 0.7 0 1.4-0.2 1.2 0 2.3-0.3 1.1-0.3 2.1-1 1-0.6 1.7-1.5 0.8-0.9 1.2-2 0.2-0.6 0.4-1.1 0.1-0.6 0.2-1.2 0-0.6 0-1.2-0.1-0.6-0.2-1.2l20.7 8.6z"/>
		<path class="s15" d="m223.5 326.4l17.7-42.6-23.1-9.6q0.8-0.3 1.6-0.9 0.8-0.6 1.4-1.3 0.6-0.7 1-1.6 0.4-0.8 0.6-1.8 0.2-1 0.1-2.1 0-1.1-0.4-2.2-0.4-1-1.1-1.9-0.7-0.9-1.6-1.5-0.6-0.4-1.3-0.7-0.6-0.3-1.4-0.4-0.7-0.1-1.4-0.1-0.8 0-1.5 0.2-1.1 0-2.3 0.3-1.1 0.3-2.1 0.9-0.9 0.7-1.7 1.6-0.7 0.9-1.2 2-0.2 0.5-0.3 1.1-0.2 0.6-0.2 1.2-0.1 0.6 0 1.2 0 0.6 0.1 1.2l-20.7-8.6-2 0.2-17.6 42.6 23.1 9.6q-0.9 0.3-1.7 0.9-0.7 0.6-1.3 1.3-0.6 0.7-1 1.6-0.4 0.8-0.6 1.8-0.3 1-0.2 2.1 0.1 1.1 0.5 2.2 0.3 1 1 1.9 0.7 0.8 1.6 1.5 0.6 0.4 1.3 0.7 0.7 0.2 1.4 0.4 0.7 0.1 1.5 0.1 0.7 0 1.4-0.2 1.2 0 2.3-0.3 1.1-0.3 2.1-1 1-0.6 1.7-1.5 0.8-0.9 1.2-2 0.2-0.6 0.4-1.1 0.1-0.6 0.2-1.2 0-0.6 0-1.2-0.1-0.6-0.2-1.2l20.7 8.6z"/>
		<path class="s2" d="m241.2 283.8l-23.1-9.6q0.8-0.3 1.6-0.9 0.8-0.6 1.4-1.3 0.6-0.7 1-1.6 0.4-0.8 0.6-1.8c0.4-1.8 0.2-3.7-0.7-5.3-0.9-1.7-2.4-2.9-4.2-3.4-1.8-0.6-3.8-0.4-5.4 0.5-1.7 0.8-3 2.3-3.6 4.1q-0.3 0.7-0.4 1.4-0.2 0.8-0.2 1.5 0 0.8 0.2 1.5 0.1 0.8 0.4 1.5l-23.1-9.6-17.6 42.6 23.1 9.6q-0.9 0.4-1.7 0.9-0.7 0.6-1.3 1.3-0.6 0.8-1 1.6-0.4 0.9-0.6 1.8c-0.5 1.8-0.2 3.7 0.7 5.3 0.9 1.6 2.4 2.8 4.2 3.3 1.8 0.6 3.7 0.4 5.3-0.4 1.7-0.9 3-2.3 3.6-4q0.3-0.7 0.4-1.5 0.2-0.7 0.2-1.5 0-0.8-0.2-1.5-0.1-0.7-0.4-1.5l23.1 9.6z"/>
		<path class="s10" d="m220.3 276.4l-2.2-2.1q-0.1-0.1-0.2-0.3 0-0.1 0-0.3 0-0.2 0-0.4 0.1-0.2 0.2-0.3l1-0.9q0.4-0.2 0.8-0.4 0.3-0.1 0.8-0.1 0.4 0.1 0.7 0.3 0.4 0.2 0.6 0.5l2.6 3.5 0.2 1-1.5-0.6-1.9 0.4q-0.1 0.1-0.3 0.1-0.2 0-0.3-0.1-0.2 0-0.3-0.1-0.1 0-0.3-0.1z"/>
		<path class="s16" d="m158.7 256.3c1.6 5.9 2.8 12.3 5.5 17.8 0 0.1 0.3 0.4 1 0.7 2.9 1.1 7 1.2 10.3 1.3 3.8 0 7.7-0.2 11.5-0.4 0.5-0.1 1 0.1 1.3 0.4 0.4 0.3 0.7 0.7 0.8 1.2 0 0.5-0.1 0.9-0.3 1.4-0.3 0.4-0.7 0.7-1.2 0.8q-1.4 0.4-2.9 0.7-1.5 0.3-2.9 0.6-1.5 0.3-3 0.5-1.5 0.3-3 0.4c-4.4 0.5-8.4 0.8-12.9-0.5q-0.7-0.3-1.4-0.6-0.6-0.3-1.2-0.7-0.6-0.5-1.1-1-0.6-0.5-1-1.1l-0.5-0.8c-2.5-4.2-3.8-8.6-5.2-13.1-0.5-2-1-3.9-1.4-5.9-0.2-1 0-2.1 0.5-2.9 0.6-0.9 1.5-1.5 2.5-1.8 1-0.2 2 0 2.9 0.6 0.9 0.5 1.5 1.4 1.7 2.4z"/>
		<path class="s10" d="m185.8 276l4.6-3.1 0.9 6.4q-0.8 0.3-1.7 0.3-0.8 0-1.6-0.1-0.9-0.2-1.6-0.5-0.8-0.3-1.5-0.8z"/>
		<path fill-rule="evenodd" class="s10" d="m195.8 273.4l-0.2 4.9-4.3 1-0.9-6.4 5.4 0.5z"/>
		<path class="s7" d="m154.9 247.8c-5.6 2-5.1 9.9-2.2 19.4 2.8 9.5 7.3 15.4 11.6 16l4-7.8q-0.5-0.2-0.9-0.5-0.5-0.3-0.9-0.6-0.4-0.3-0.8-0.6-0.4-0.3-0.8-0.7c-1.6-2-6.9-21.8-6.9-21.8z"/>
		<path class="s6" d="m154.9 247.8c-5.6 2-5.1 9.9-2.2 19.4 2.8 9.5 7.3 15.4 11.6 16l4-7.8q-0.5-0.2-0.9-0.5-0.5-0.3-0.9-0.6-0.4-0.3-0.8-0.6-0.4-0.3-0.8-0.7c-1.6-2-6.9-21.8-6.9-21.8z"/>
		<path fill-rule="evenodd" class="s7" d="m168.8 275l-2.3-1.1-6.4 9.2 4.8 0.5 3.9-8.6z"/>
		<path fill-rule="evenodd" class="s11" d="m168.8 275l-2.3-1.1-6.4 9.2 4.8 0.5 3.9-8.6z"/>
	</g>
</svg>