<svg version="1.2" xmlns="http://www.w3.org/2000/svg" viewBox="0 0 500 500" width="500" height="500">
	<title>Login-rafiki</title>
	<style>
		.s0 { fill: #f5f5f5 } 
		.s1 { fill: #00843d } 
		.s2 { opacity: .8;fill: #ffffff } 
		.s3 { fill: #ffffff } 
		.s4 { opacity: .3;fill: #ffffff } 
		.s5 { opacity: .3;fill: #000000 } 
		.s6 { fill: #263238 } 
		.s7 { fill: #803e3c } 
		.s8 { fill: #7f3e3b } 
		.s9 { fill: #630f0f } 
		.s10 { opacity: .2;fill: #000000 } 
		.s11 { opacity: .4;fill: #000000 } 
		.s12 { opacity: .5;fill: #000000 } 
		.s13 { opacity: .4;fill: #ffffff } 
	</style>
	<g id="freepik--Shadow--inject-67">
		<path id="freepik--path--inject-67" fill-rule="evenodd" class="s0" d="m250 427.6c-107.2 0-193.9-5.1-193.9-11.4 0-6.2 86.7-11.3 193.9-11.3 107.2 0 193.9 5.1 193.9 11.3 0 6.3-86.7 11.4-193.9 11.4z"/>
	</g>
	<g id="freepik--Login--inject-67">
		<path class="s1" d="m260.4 365.5h-127.6q-1.5 0-2.9-0.6-1.4-0.6-2.6-1.6-1.1-1.1-1.7-2.5-0.7-1.4-0.8-2.9l-11.4-221.6q-0.1-1.5 0.4-2.9 0.5-1.4 1.6-2.5 1-1.1 2.4-1.7 1.3-0.5 2.8-0.5h127.6q1.5 0 3 0.6 1.4 0.6 2.5 1.6 1.1 1.1 1.8 2.5 0.6 1.4 0.7 2.9l11.4 221.6q0.1 1.5-0.4 2.9-0.5 1.4-1.5 2.5-1 1-2.4 1.6-1.4 0.6-2.9 0.6z"/>
		<path class="s2" d="m260.4 365.5h-127.6q-1.5 0-2.9-0.6-1.4-0.6-2.6-1.6-1.1-1.1-1.7-2.5-0.7-1.4-0.8-2.9l-11.4-221.6q-0.1-1.5 0.4-2.9 0.5-1.4 1.6-2.5 1-1.1 2.4-1.7 1.3-0.5 2.8-0.5h127.6q1.5 0 3 0.6 1.4 0.6 2.5 1.6 1.1 1.1 1.8 2.5 0.6 1.4 0.7 2.9l11.4 221.6q0.1 1.5-0.4 2.9-0.5 1.4-1.5 2.5-1 1-2.4 1.6-1.4 0.6-2.9 0.6z"/>
		<path fill-rule="evenodd" class="s1" d="m221.5 121.5h14.1v1h-14.1z"/>
		<path fill-rule="evenodd" class="s1" d="m211.4 121.5h5.2v1h-5.2z"/>
		<path class="s1" d="m265.9 351.4h-122q-1.5 0-2.8-0.5-1.4-0.6-2.5-1.6-1-1-1.7-2.3-0.6-1.4-0.7-2.9l-10.9-211.8q-0.1-1.5 0.4-2.8 0.5-1.4 1.5-2.4 1-1.1 2.3-1.6 1.3-0.6 2.7-0.6l122 0.1q1.5 0 2.9 0.5 1.3 0.6 2.4 1.6 1.1 1 1.7 2.3 0.6 1.4 0.7 2.8l10.9 212q0.1 1.4-0.4 2.7-0.5 1.4-1.4 2.4-1 1-2.4 1.6-1.3 0.6-2.7 0.5z"/>
		<path class="s3" d="m265.9 346.6h-122q-0.5 0-1-0.3-0.5-0.2-0.9-0.5-0.4-0.4-0.6-0.9-0.3-0.5-0.3-1l-10.9-211.9q-0.1-0.2 0-0.4 0-0.2 0.1-0.4 0-0.2 0.1-0.4 0.2-0.2 0.3-0.4 0.1-0.1 0.3-0.2 0.2-0.1 0.4-0.2 0.2-0.1 0.4-0.1 0.2-0.1 0.4-0.1h122q0.6 0.1 1 0.3 0.5 0.2 0.9 0.5 0.4 0.4 0.6 0.9 0.3 0.5 0.3 1l11 211.9q0 0.4-0.1 0.8-0.1 0.4-0.4 0.7-0.3 0.4-0.7 0.5-0.4 0.2-0.8 0.2zm-133.7-216.5q-0.2 0-0.4 0-0.2 0-0.4 0.1-0.1 0.1-0.3 0.2-0.1 0.1-0.3 0.2-0.1 0.2-0.2 0.3-0.1 0.2-0.1 0.4-0.1 0.1-0.1 0.3-0.1 0.2 0 0.4l10.9 211.9q0 0.5 0.2 0.9 0.2 0.4 0.6 0.8 0.4 0.3 0.8 0.5 0.5 0.2 0.9 0.2h122q0.2 0 0.4 0 0.2 0 0.4-0.1 0.1-0.1 0.3-0.2 0.1-0.1 0.3-0.2 0.1-0.2 0.2-0.3 0.1-0.2 0.2-0.4 0-0.1 0-0.3 0.1-0.2 0-0.4l-10.9-211.9q0-0.5-0.2-0.9-0.2-0.4-0.6-0.8-0.3-0.3-0.8-0.5-0.4-0.2-0.9-0.2z"/>
		<path fill-rule="evenodd" class="s4" d="m223.2 207.1c-13.9 14.2-37.2 13.9-52.2-0.7-15.1-14.6-16-38-2.1-52.2 13.9-14.3 37.3-14 52.3 0.6 15 14.6 15.9 38 2 52.3z"/>
		<path class="s3" d="m226 180.6q0.1 1.8 0 3.7-0.2 1.8-0.5 3.6-0.4 1.8-1 3.6-0.6 1.7-1.4 3.4c-1.1 2.3-2.6 4.5-4.4 6.4-1.8 2-3.8 3.7-6 5-2.3 1.4-4.7 2.5-7.3 3.2-2.5 0.7-5.1 1-7.7 1-2.8 0-5.5-0.4-8.1-1.1-2.6-0.7-5.2-1.8-7.5-3.2-2.4-1.3-4.6-3-6.5-4.9-2-1.9-3.6-4.1-5-6.5q-1-1.6-1.8-3.3-0.7-1.7-1.3-3.5-0.5-1.8-0.8-3.7-0.4-1.8-0.5-3.7c-0.2-3.8 0.3-7.7 1.7-11.3 1.3-3.7 3.3-7 6-9.8 2.7-2.8 5.9-5 9.4-6.5 3.6-1.6 7.4-2.3 11.3-2.3 4 0.1 7.9 0.9 11.6 2.4 3.7 1.5 7.1 3.6 10 6.4 2.9 2.7 5.2 6 6.9 9.6 1.7 3.6 2.7 7.5 2.9 11.5z"/>
		<path class="s1" d="m223.1 194.8c-1.2 2.4-2.7 4.6-4.4 6.5-1.8 2-3.8 3.7-6.1 5-2.2 1.4-4.6 2.5-7.2 3.2-2.5 0.7-5.1 1-7.8 1-2.7 0-5.4-0.4-8-1.1-2.7-0.7-5.2-1.8-7.6-3.2-2.3-1.3-4.5-3-6.4-4.9-2-1.9-3.7-4.1-5.1-6.5q2.9-1.9 6-3.4 3.1-1.5 6.4-2.5 3.3-1.1 6.7-1.6 3.4-0.5 6.8-0.5 3.5 0.1 7 0.6 3.5 0.5 6.9 1.5 3.4 1 6.6 2.5 3.2 1.5 6.2 3.4z"/>
		<path fill-rule="evenodd" class="s1" d="m205.3 179.9c-5 5.2-13.4 5-18.8-0.2-5.4-5.3-5.7-13.7-0.7-18.9 5-5.1 13.4-5 18.8 0.3 5.4 5.3 5.8 13.7 0.7 18.8z"/>
		<path class="s3" d="m248.4 269h-95.5q-0.6 0-1.2-0.2-0.6-0.3-1.1-0.7-0.4-0.4-0.7-1-0.2-0.6-0.3-1.2l-0.7-14q0-0.6 0.2-1.2 0.2-0.5 0.6-1 0.4-0.4 1-0.6 0.5-0.3 1.1-0.3h95.6q0.6 0 1.2 0.3 0.5 0.2 1 0.6 0.5 0.5 0.7 1 0.3 0.6 0.3 1.2l0.7 14q0.1 0.6-0.1 1.2-0.2 0.6-0.6 1-0.5 0.4-1 0.7-0.6 0.2-1.2 0.2z"/>
		<path class="s5" d="m219.2 241.1h-39.9q-0.7 0-1.2-0.2-0.6-0.3-1.1-0.7-0.4-0.4-0.7-1-0.3-0.6-0.3-1.2l-0.1-3q-0.1-0.6 0.1-1.2 0.2-0.5 0.6-1 0.5-0.4 1-0.7 0.6-0.2 1.2-0.2h39.9q0.6 0 1.2 0.3 0.6 0.2 1 0.6 0.5 0.4 0.7 1 0.3 0.6 0.3 1.2l0.2 3q0 0.6-0.2 1.2-0.2 0.5-0.6 1-0.4 0.4-1 0.7-0.5 0.2-1.1 0.2z"/>
		<path class="s5" d="m234 336.3h-59.8q-1 0-2-0.4-1-0.4-1.8-1.1-0.7-0.8-1.2-1.7-0.4-1-0.5-2l-0.4-6.9q0-1.1 0.4-2 0.3-1 1-1.8 0.7-0.7 1.7-1.1 0.9-0.4 2-0.4h59.7q1.1 0 2 0.4 1 0.4 1.8 1.1 0.8 0.8 1.2 1.7 0.5 1 0.5 2.1l0.4 6.9q0 1-0.3 1.9-0.4 1-1.1 1.7-0.7 0.8-1.6 1.2-1 0.4-2 0.4z"/>
		<path class="s3" d="m250.2 302.9h-95.6q-0.6 0-1.2-0.3-0.6-0.2-1-0.6-0.5-0.5-0.7-1-0.3-0.6-0.3-1.2l-0.7-14q-0.1-0.6 0.1-1.2 0.2-0.6 0.6-1 0.5-0.5 1-0.7 0.6-0.2 1.2-0.2h95.5q0.6 0 1.2 0.2 0.6 0.3 1 0.7 0.5 0.4 0.8 1 0.2 0.5 0.3 1.2l0.7 14q0 0.6-0.2 1.1-0.2 0.6-0.6 1-0.4 0.5-1 0.7-0.5 0.3-1.1 0.3z"/>
		<path class="s6" d="m165 258.9q0 0.7-0.2 1.3-0.2 0.6-0.7 1.1-0.4 0.5-1.1 0.8-0.6 0.2-1.3 0.2-0.6 0-1.3-0.2-0.6-0.3-1.1-0.8-0.5-0.5-0.8-1.1-0.3-0.6-0.3-1.3-0.1-0.7 0.1-1.3 0.3-0.6 0.7-1.1 0.5-0.5 1.1-0.8 0.6-0.2 1.3-0.2 0.7 0 1.3 0.3 0.7 0.2 1.2 0.7 0.5 0.5 0.8 1.1 0.3 0.6 0.3 1.3z"/>
		<path class="s6" d="m175.5 258.9q0.1 0.7-0.2 1.3-0.2 0.6-0.6 1.1-0.5 0.5-1.1 0.8-0.6 0.2-1.3 0.2-0.7 0-1.3-0.2-0.7-0.3-1.2-0.8-0.5-0.4-0.8-1.1-0.3-0.6-0.3-1.3 0-0.7 0.2-1.3 0.2-0.6 0.7-1.1 0.4-0.5 1.1-0.8 0.6-0.2 1.2-0.2 0.7 0 1.4 0.3 0.6 0.2 1.1 0.7 0.5 0.5 0.8 1.1 0.3 0.6 0.3 1.3z"/>
		<path class="s6" d="m186 258.9q0 0.7-0.2 1.3-0.2 0.6-0.7 1.1-0.4 0.5-1.1 0.8-0.6 0.2-1.2 0.2-0.7 0-1.4-0.2-0.6-0.3-1.1-0.8-0.5-0.4-0.8-1.1-0.3-0.6-0.3-1.3-0.1-0.7 0.1-1.3 0.3-0.6 0.7-1.1 0.5-0.5 1.1-0.8 0.6-0.2 1.3-0.2 0.7 0 1.3 0.3 0.7 0.2 1.2 0.7 0.5 0.5 0.8 1.1 0.3 0.6 0.3 1.3z"/>
		<path class="s6" d="m196.6 258.9q0 0.7-0.2 1.3-0.3 0.6-0.7 1.1-0.5 0.5-1.1 0.8-0.6 0.2-1.3 0.2-0.7 0-1.3-0.2-0.7-0.3-1.2-0.8-0.5-0.4-0.8-1.1-0.2-0.6-0.3-1.3 0-0.7 0.2-1.3 0.2-0.6 0.7-1.1 0.4-0.5 1.1-0.8 0.6-0.2 1.3-0.2 0.6 0 1.3 0.3 0.6 0.2 1.1 0.7 0.5 0.5 0.8 1.1 0.3 0.6 0.4 1.3z"/>
		<path class="s6" d="m166.8 292.8q0 0.6-0.2 1.3-0.2 0.6-0.7 1.1-0.5 0.5-1.1 0.7-0.6 0.3-1.3 0.3-0.7 0-1.3-0.3-0.6-0.3-1.1-0.7-0.5-0.5-0.8-1.1-0.3-0.7-0.4-1.3 0-0.7 0.2-1.4 0.2-0.6 0.7-1.1 0.5-0.5 1.1-0.7 0.6-0.3 1.3-0.3 0.7 0 1.3 0.3 0.6 0.3 1.1 0.7 0.5 0.5 0.8 1.1 0.3 0.7 0.4 1.3z"/>
		<path class="s6" d="m177.3 292.8q0 0.6-0.2 1.2-0.2 0.7-0.7 1.2-0.5 0.4-1.1 0.7-0.6 0.3-1.3 0.3-0.7 0-1.3-0.3-0.6-0.3-1.1-0.7-0.5-0.5-0.8-1.1-0.3-0.7-0.4-1.3 0-0.7 0.2-1.4 0.3-0.6 0.7-1.1 0.5-0.5 1.1-0.7 0.6-0.3 1.3-0.3 0.7 0 1.3 0.3 0.6 0.3 1.2 0.7 0.5 0.5 0.7 1.1 0.3 0.7 0.4 1.3z"/>
		<path class="s6" d="m187.8 292.8q0 0.6-0.2 1.3-0.2 0.6-0.7 1.1-0.5 0.5-1.1 0.7-0.6 0.3-1.3 0.3-0.7 0-1.3-0.3-0.6-0.3-1.1-0.7-0.5-0.5-0.8-1.1-0.3-0.7-0.4-1.3 0-0.7 0.2-1.4 0.3-0.6 0.7-1.1 0.5-0.5 1.1-0.7 0.6-0.3 1.3-0.3 0.7 0 1.3 0.3 0.7 0.3 1.2 0.7 0.5 0.5 0.8 1.1 0.2 0.7 0.3 1.3z"/>
		<path class="s6" d="m198.3 292.8q0 0.6-0.2 1.3-0.2 0.6-0.7 1.1-0.4 0.5-1.1 0.7-0.6 0.3-1.3 0.3-0.6 0-1.3-0.3-0.6-0.3-1.1-0.7-0.5-0.5-0.8-1.1-0.3-0.7-0.3-1.3-0.1-0.7 0.1-1.4 0.3-0.6 0.7-1.1 0.5-0.5 1.1-0.7 0.6-0.3 1.3-0.3 0.7 0 1.3 0.3 0.7 0.3 1.2 0.7 0.5 0.5 0.8 1.1 0.2 0.7 0.3 1.3z"/>
		<path class="s6" d="m208.8 292.8q0 0.6-0.2 1.3-0.2 0.6-0.7 1.1-0.4 0.5-1.1 0.7-0.6 0.3-1.2 0.3-0.7 0-1.4-0.3-0.6-0.3-1.1-0.7-0.5-0.5-0.8-1.1-0.3-0.7-0.3-1.3-0.1-0.7 0.1-1.3 0.3-0.7 0.7-1.2 0.5-0.4 1.1-0.7 0.6-0.3 1.3-0.3 0.7 0 1.3 0.3 0.7 0.3 1.2 0.7 0.5 0.5 0.8 1.1 0.3 0.7 0.3 1.3z"/>
		<path class="s6" d="m219.3 292.8q0.1 0.6-0.2 1.3-0.2 0.6-0.7 1.1-0.4 0.5-1.1 0.7-0.6 0.3-1.2 0.3-0.7 0-1.4-0.3-0.6-0.3-1.1-0.7-0.5-0.5-0.8-1.1-0.3-0.7-0.3-1.3-0.1-0.7 0.2-1.4 0.2-0.6 0.6-1.1 0.5-0.5 1.1-0.7 0.6-0.3 1.3-0.3 0.7 0 1.3 0.3 0.7 0.3 1.2 0.7 0.5 0.5 0.8 1.1 0.3 0.7 0.3 1.3z"/>
	</g>
	<g id="freepik--Character--inject-67">
		<path class="s7" d="m333 176.6c0.3 0.4 0.4 0.6 0.5 0.9l0.5 0.7q0.4 0.8 0.8 1.5c0.5 1 1 2 1.4 3q0.3 0.7 0.6 1.5 0.3 0.8 0.6 1.5 0.2 0.8 0.5 1.5 0.2 0.8 0.5 1.6 0.4 1.5 0.8 3.1 0.4 1.5 0.7 3.1 0.3 1.6 0.5 3.2 0.2 1.5 0.3 3.1l0.1 0.8q0 0.1 0 0.1 0 0.1 0 0.2 0 0 0 0.1 0 0 0 0.1v0.5q0 0.3 0 0.6 0 0.2 0 0.5 0 0.2-0.1 0.5 0 0.3 0 0.5-0.1 0.5-0.2 1-0.1 0.4-0.2 0.9-0.1 0.5-0.3 0.9-0.1 0.5-0.3 0.9-0.3 0.8-0.7 1.6-0.4 0.8-0.8 1.6-0.5 0.7-1 1.4-0.4 0.8-1 1.4-1 1.3-2.1 2.5-1 1.2-2.2 2.3-1.2 1.1-2.4 2.1-1.3 1-2.6 2l-2.7-3.3q0.9-1 1.8-2.2 0.9-1.1 1.7-2.2 0.8-1.2 1.6-2.4 0.8-1.1 1.5-2.4 0.3-0.5 0.6-1.1 0.3-0.6 0.5-1.2 0.3-0.6 0.5-1.2 0.2-0.6 0.4-1.2 0.1-0.3 0.1-0.5 0.1-0.3 0.1-0.6 0.1-0.2 0.1-0.5 0-0.3 0-0.5 0-0.1 0-0.3 0-0.1 0-0.2 0-0.1 0-0.2 0-0.1 0-0.3v-0.2q0 0 0 0 0-0.1 0-0.1 0 0 0-0.1 0 0 0 0l-0.1-0.7q-0.2-1.4-0.5-2.8-0.3-1.4-0.7-2.8-0.3-1.4-0.7-2.7-0.4-1.4-0.8-2.7c-0.6-1.8-1.3-3.6-2-5.3q-0.6-1.2-1.2-2.4l-0.6-1.2-0.3-0.6-0.3-0.4z"/>
		<path class="s8" d="m323.7 223.8l3.6 7.6 2.9-6.4c0 0-2.6-5.6-6-5.1z"/>
		<path fill-rule="evenodd" class="s8" d="m329.9 231.8l2.9-4.7-2.6-2.2-2.9 6.5 2.6 0.4z"/>
		<path class="s1" d="m313.6 408.2q0.3 0 0.6 0 0.3 0 0.5-0.1 0.3 0 0.6-0.1 0.3 0 0.6-0.1 0 0 0 0 0 0 0 0 0.1-0.1 0.1-0.1 0 0 0 0 0-0.1 0-0.1 0 0 0-0.1 0 0 0 0-0.1 0-0.1 0c-0.3-0.2-2.8-1.9-3.8-1.4q-0.1 0-0.2 0.1 0 0-0.1 0.1 0 0.1-0.1 0.2 0 0 0 0.1 0 0.2 0 0.3 0 0.1 0.1 0.3 0 0.1 0.1 0.2 0 0.1 0.1 0.2 0.2 0.2 0.4 0.3 0.2 0.1 0.4 0.1 0.2 0.1 0.4 0.1 0.2 0 0.4 0zm1.7-0.6c-1.5 0.3-2.6 0.3-3-0.1q-0.1-0.1-0.1-0.2-0.1 0-0.1-0.1 0-0.1 0-0.2-0.1-0.1 0-0.2c0-0.2 0.1-0.2 0.1-0.3 0.6-0.2 2 0.5 3.1 1.1z"/>
		<path class="s1" d="m315.8 407.9h0.1q0 0 0 0 0.1 0 0.1-0.1 0 0 0 0 0 0 0-0.1c0-0.1 0-2.5-0.9-3.3q-0.1-0.1-0.2-0.1-0.1-0.1-0.2-0.1-0.1 0-0.2 0-0.1-0.1-0.3 0-0.1 0-0.2 0-0.1 0-0.2 0.1-0.1 0.1-0.1 0.2-0.1 0.1-0.1 0.2c-0.2 1 1.3 2.8 2.1 3.2zm-1.4-3.4q0 0 0.1 0 0.1 0 0.1 0.1 0.1 0 0.1 0 0.1 0.1 0.1 0.1 0.2 0.3 0.4 0.6 0.1 0.3 0.2 0.7 0.1 0.3 0.2 0.6 0 0.4 0 0.7c-0.8-0.6-1.8-2-1.6-2.5 0-0.1 0-0.2 0.3-0.3z"/>
		<path class="s1" d="m304.2 404.1q0 0 0-0.1 0 0 0-0.1 0 0 0-0.1-0.1 0-0.1 0c-0.5 0-4-0.2-4.9 0.7v0.1q0 0-0.1 0.1 0 0.1 0 0.2 0 0 0 0.1 0 0.1 0 0.2 0.1 0.1 0.1 0.2 0.1 0.1 0.2 0.2 0.1 0.1 0.2 0.2 0.1 0.1 0.3 0.1c1.1 0.4 3.2-0.9 4.3-1.7zm-4.7 0.6c0.5-0.5 2.5-0.6 4-0.6-1.6 1.1-2.9 1.6-3.5 1.4q-0.1-0.1-0.2-0.1-0.1-0.1-0.1-0.1-0.1-0.1-0.1-0.2-0.1 0-0.1-0.1 0 0 0-0.1-0.1 0-0.1 0 0-0.1 0.1-0.1 0 0 0-0.1z"/>
		<path class="s1" d="m304.2 404.1q0 0 0 0 0 0 0-0.1 0 0 0 0 0 0 0-0.1c-0.1 0-1.2-2-2.5-2.4q-0.1 0-0.3 0-0.1 0-0.3 0-0.1 0-0.3 0.1-0.1 0-0.2 0.1c-0.5 0.3-0.5 0.6-0.5 0.8 0.3 0.9 2.8 1.7 3.9 1.7q0 0 0.1 0 0 0 0 0 0 0 0.1 0 0 0 0-0.1zm-3.6-2q0 0 0 0 0.1 0 0.1 0 0-0.1 0-0.1 0.1 0 0.1 0 0.1-0.1 0.2-0.1 0.1 0 0.2 0 0.1-0.1 0.2-0.1 0.1 0.1 0.2 0.1c0.9 0.2 1.7 1.3 2.1 1.9-1.2-0.1-3-0.9-3.2-1.4q0-0.1 0-0.1 0 0 0-0.1 0 0 0.1 0 0-0.1 0-0.1z"/>
		<path class="s8" d="m315.2 147.3c-1 5-3.2 15.8 0.3 19.2 0 0-1.4 5-10.6 5-10.1 0-4.8-5-4.8-5 5.5-1.4 5.4-5.5 4.4-9.3z"/>
		<path class="s6" d="m298.3 135.6q0 0 0 0 0 0 0.1 0 0 0 0 0 0 0 0 0 0.1 0 0.2-0.1 0 0 0.1-0.1 0-0.1 0-0.2 0-0.1-0.1-0.1-0.2-0.5-0.5-0.8-0.3-0.4-0.6-0.7-0.4-0.3-0.9-0.5-0.4-0.1-0.9-0.2 0 0-0.1 0-0.1 0-0.1 0.1-0.1 0-0.1 0.1-0.1 0-0.1 0.1 0 0.1 0 0.2 0 0.1 0.1 0.1 0 0.1 0.1 0.1 0.1 0.1 0.2 0.1 0.3 0 0.7 0.2 0.3 0.1 0.6 0.4 0.3 0.2 0.5 0.5 0.3 0.3 0.4 0.6 0 0.1 0.1 0.1 0 0 0.1 0.1 0 0 0.1 0 0 0 0.1 0z"/>
		<path class="s9" d="m295.3 140q-0.3 0.5-0.7 1.1-0.3 0.5-0.7 1-0.3 0.5-0.7 1-0.4 0.5-0.9 0.9 0.3 0.2 0.5 0.4 0.3 0.1 0.6 0.2 0.3 0.1 0.6 0.2 0.3 0 0.7-0.1z"/>
		<path class="s6" d="m296 138.9c-0.1 0.6-0.5 1.1-0.9 1.1-0.5-0.1-0.8-0.6-0.7-1.3 0.1-0.7 0.5-1.2 1-1.1 0.5 0 0.7 0.6 0.6 1.3z"/>
		<path class="s6" d="m295.5 137.6l-1.5-0.6c0 0 0.6 1.3 1.5 0.6z"/>
		<path fill-rule="evenodd" class="s8" d="m313 402.2l-8.1 1.9-5-18.7 8.2-1.9 4.9 18.7z"/>
		<path fill-rule="evenodd" class="s8" d="m325.5 407.7h-8.3l0.6-19.4h8.4l-0.7 19.4z"/>
		<path class="s6" d="m316.5 406.8l9.4-0.1q0.1 0 0.2 0.1 0.2 0 0.3 0.1 0 0.1 0.1 0.2 0.1 0.1 0.1 0.2l1.1 7.5q0 0.3-0.1 0.5-0.1 0.3-0.3 0.5-0.2 0.2-0.4 0.3-0.3 0.2-0.6 0.2c-3.3-0.1-4.8-0.3-9-0.3-2.5 0-6.3 0.3-9.8 0.3-3.5 0-3.7-3.5-2.2-3.8 6.6-1.4 7.6-3.4 9.8-5.2q0.1-0.2 0.3-0.3 0.2 0 0.4-0.1 0.1-0.1 0.3-0.1 0.2 0 0.4-0.1z"/>
		<path class="s6" d="m304.1 402.9l8.6-3.9q0.1-0.1 0.2-0.1 0.1 0 0.3 0 0.1 0.1 0.2 0.1 0.1 0.1 0.1 0.2l4.1 6.3q0.2 0.3 0.2 0.6 0 0.2-0.1 0.5 0 0.3-0.2 0.5-0.2 0.2-0.5 0.3c-3 1.4-4.5 1.8-8.3 3.6-2.3 1-7 3.5-10.1 5-3.2 1.5-4.9-1.6-3.7-2.5 5.4-4 6.9-6.9 8.2-9.5q0.1-0.2 0.2-0.4 0.1-0.1 0.2-0.3 0.1-0.1 0.3-0.2 0.2-0.1 0.3-0.2z"/>
		<path fill-rule="evenodd" class="s10" d="m299.9 385.4l2.7 10 8-2.3-2.5-9.6-8.2 1.9z"/>
		<path fill-rule="evenodd" class="s10" d="m326.2 388.3h-8.4l-0.3 10h8.4l0.3-10z"/>
		<path class="s6" d="m330 168.4c3.5 0.7 7.2 13.2 7.2 13.2l-9.8 10.5c0 0-8.2-11.7-6.5-16.1 1.7-4.5 5-8.5 9.1-7.6z"/>
		<path class="s11" d="m324.4 176.3c-1.7-1.6-2.9-1.1-3.7 0.2-0.8 3.7 3.9 11.5 5.8 14.4 0.9-3.5 1.9-10.9-2.1-14.6z"/>
		<path class="s6" d="m285.9 168.6c0 0-4 1.4 4 50.6h34c-0.6-13.9-0.6-22.4 6-50.8q-1.8-0.4-3.6-0.7-1.8-0.3-3.6-0.6-1.8-0.2-3.6-0.4-1.8-0.1-3.6-0.2-2-0.2-3.9-0.2-1.9-0.1-3.9-0.1-1.9 0-3.8 0.1-2 0-3.9 0.2c-6.6 0.6-14.1 2.1-14.1 2.1z"/>
		<path class="s11" d="m285.6 187.5q0.3 3.5 0.9 8.1c2.8-2.5 5.1-9.7 4.2-13.8q-0.7 0.6-1.4 1.2-0.7 0.7-1.4 1.4-0.6 0.7-1.2 1.5-0.6 0.8-1.1 1.6z"/>
		<path class="s7" d="m289.2 180q-0.6 1.7-1.4 3.4-0.7 1.8-1.5 3.5-0.8 1.6-1.6 3.3-0.8 1.7-1.6 3.3-0.9 1.8-1.8 3.4-0.9 1.7-2 3.3-1 1.7-2 3.2-1.1 1.6-2.3 3.2l-0.6 0.7-0.3 0.4c-0.1 0.2-0.2 0.3-0.4 0.5q-0.2 0.2-0.4 0.4-0.3 0.3-0.5 0.5-0.3 0.2-0.5 0.4-0.3 0.2-0.6 0.4-0.5 0.4-1 0.7-0.5 0.2-1 0.5-0.5 0.3-1.1 0.5-0.5 0.2-1.1 0.4-0.9 0.3-1.9 0.6-1 0.2-2 0.4-1 0.2-2 0.3-1 0.1-2.1 0.1-1.9 0.1-3.8 0-1.9 0-3.8-0.2-1.9-0.1-3.8-0.4-1.9-0.3-3.7-0.7l0.5-4.2c2.3 0 4.7 0 7-0.2q0.9-0.1 1.8-0.1 0.8-0.1 1.7-0.2 0.8-0.1 1.7-0.2 0.8-0.1 1.7-0.3 0.8-0.1 1.6-0.3 0.7-0.1 1.5-0.4 0.8-0.2 1.5-0.4 0.8-0.3 1.5-0.6 0.3-0.1 0.6-0.3 0.3-0.1 0.6-0.3 0.3-0.2 0.5-0.3 0.3-0.2 0.5-0.4 0.1-0.1 0.2-0.2 0.1-0.1 0.2-0.2 0.1-0.1 0.2-0.2 0.1-0.1 0.1-0.2 0.1-0.1 0.2-0.2l0.3-0.4 0.4-0.6q1-1.5 1.9-3 0.8-1.4 1.7-3 0.8-1.5 1.6-3 0.8-1.6 1.5-3.1c2-4.3 4-8.7 5.9-13z"/>
		<path class="s6" d="m285.9 168.6c-4.2 1-9.3 12.5-9.3 12.5l8.7 12.7c0 0 11.5-14.5 10.1-19-1.4-4.6-4.4-7.4-9.5-6.2z"/>
		<path class="s8" d="m247.3 208.5l-7.2-3.3-0.7 7.1c0 0 6 1.8 9 0z"/>
		<path fill-rule="evenodd" class="s8" d="m235.8 204.5l-0.7 5.4 4.3 2.4 0.7-7.1-4.3-0.7z"/>
		<path class="s8" d="m318.8 139.4c-1.5 8.1-2 11.6-6.7 15.3-7 5.6-16.7 2-17.7-6.5-0.8-7.6 1.8-19.7 10.3-22 1.9-0.5 3.8-0.5 5.7-0.1 1.9 0.5 3.6 1.4 5 2.7 1.5 1.4 2.5 3 3.1 4.9 0.6 1.8 0.7 3.8 0.3 5.7z"/>
		<path class="s6" d="m300.9 141.1c-0.5 4.2-0.7 15 8.5 15.3 11.2 0.4 14.6-9.1 13.6-13 5.8-4.7 6.6-12.9 0.1-19.1-6.6-6.3-21-2.8-25 3.3-5.1 7.5 2.8 13.5 2.8 13.5z"/>
		<path class="s1" d="m312.1 126.7c-0.5-4.4-0.1-7.5 4-7.5 4.1 0 9.7 1.5 11.8 5.8 2.1 4.2 2.2 10.7-3.5 10.1-5.8-0.7-11.7-3.2-12.3-8.4z"/>
		<path class="s6" d="m318.5 125.6c-1-5.2 3.7-20 15.1-21 5.2-0.4 7.7 5.3 5 6.2 5-0.1 8.2 6.5 3.5 7.5 3.7 2.4 2.8 7.2-2.5 9.6-3.9 1.8-19.8 5-21.1-2.3z"/>
		<path class="s6" d="m330.6 131.3c-3.6-0.1-7.5-0.6-9.8-2.2q-0.5-0.3-0.9-0.7-0.5-0.4-0.8-0.9-0.3-0.5-0.5-1-0.1-0.6-0.2-1.2 0 0 0-0.1 0 0 0.1-0.1 0 0 0.1 0 0 0 0 0 0.1-0.1 0.1 0 0.1 0 0.1 0 0.1 0 0.1 0.1 0 0 0 0.1 0.1 0.5 0.2 1 0.2 0.5 0.5 0.9 0.3 0.5 0.6 0.9 0.4 0.3 0.8 0.6c4.6 3 15 2 18.3 1 2.8-0.9 4.7-2.7 5.1-4.8q0.1-0.5 0-1.1 0-0.6-0.2-1.1-0.3-0.5-0.6-1-0.4-0.4-0.9-0.8 0 0 0 0 0-0.1 0-0.1 0-0.1 0-0.1 0-0.1 0-0.1 0.1 0 0.1-0.1 0.1 0 0.1 0 0.1 0 0.1 0 0.1 0.1 0.1 0.1 0.5 0.4 0.9 0.9 0.4 0.5 0.7 1.1 0.2 0.6 0.3 1.2 0.1 0.7-0.1 1.3c-0.4 2.3-2.4 4.2-5.4 5.2q-1.1 0.2-2.2 0.4-1.1 0.2-2.2 0.4-1.1 0.1-2.2 0.1-1.1 0.1-2.3 0z"/>
		<path class="s8" d="m298.3 140q-0.3 0.5-0.6 1-0.2 0.6-0.4 1.2-0.1 0.5-0.1 1.1 0 0.6 0 1.2c0.4 2.1 2.4 2.3 3.9 0.9 1.5-1.3 2.8-3.7 1.7-5.5q-0.4-0.6-1-0.9-0.6-0.3-1.3-0.3-0.7 0-1.2 0.4-0.6 0.3-1 0.9z"/>
		<path class="s1" d="m298.9 219.2c0 0 4.9 57.4 9.9 89.9 4.1 26.1 7.3 87.3 7.3 87.3h11.4c0 0 4.1-59.4 2-85.2-5.2-65.5 6.5-70.9-5.6-92z"/>
		<path class="s11" d="m313.3 240.9q-1.7 1.8-3.3 3.7-1.5 1.9-2.8 4-1.4 2-2.6 4.2-1.1 2.1-2.1 4.4c1.3 12.9 2.9 27.2 4.6 39.8q2.5-6.7 4.2-13.6 1.7-7 2.5-14.1 0.8-7.1 0.7-14.2-0.2-7.1-1.2-14.2z"/>
		<path class="s1" d="m290.9 218.8c0 0-10.6 62.8-12.2 91.1 4.1 26.2 21.1 81.5 21.1 81.5l10.4-3.8c0 0-5.8-60.3-12-76.8 14-47.4 24.4-59.4 21.4-91.6-7.2 0-28.7-0.4-28.7-0.4z"/>
		<path fill-rule="evenodd" class="s6" d="m298.4 394.1l14-3.8-0.8-5.6-15 4.1 1.8 5.3z"/>
		<path fill-rule="evenodd" class="s6" d="m314.5 396.6h14.6l0.7-5.1-15.4-0.5 0.1 5.6z"/>
		<path class="s1" d="m324.4 217.2l1.6 3c0.1 0.3-0.2 0.5-0.6 0.5h-35.7c-0.3 0-0.5-0.2-0.5-0.4l-0.3-3c0-0.2 0.2-0.3 0.5-0.3h34.5q0.1-0.1 0.1-0.1 0.1 0.1 0.2 0.1 0.1 0 0.1 0.1 0.1 0 0.1 0.1z"/>
		<path class="s12" d="m324.4 217.2l1.6 3c0.1 0.3-0.2 0.5-0.6 0.5h-35.7c-0.3 0-0.5-0.2-0.5-0.4l-0.3-3c0-0.2 0.2-0.3 0.5-0.3h34.5q0.1-0.1 0.1-0.1 0.1 0.1 0.2 0.1 0.1 0 0.1 0.1 0.1 0 0.1 0.1z"/>
		<path class="s1" d="m319.8 221h0.9c0.2 0 0.4-0.1 0.3-0.2l-0.4-4c0-0.1-0.2-0.2-0.3-0.2h-1c-0.2 0-0.3 0.1-0.3 0.2l0.4 4c0.1 0.1 0.2 0.2 0.4 0.2z"/>
		<path class="s1" d="m307.4 191.9q-0.1 0-0.1 0-0.1-0.1-0.2-0.1 0-0.1-0.1-0.1 0-0.1-0.1-0.2c-3.2-12.1-10-22-13.2-23.5q-0.1 0-0.2-0.1-0.1 0-0.2 0-0.2-0.1-0.3-0.1-0.1 0-0.2 0.1-0.2 0.1-0.4 0-0.2-0.1-0.3-0.3-0.1-0.2 0-0.4 0.1-0.2 0.3-0.2 0.2-0.1 0.4-0.1 0.2-0.1 0.5-0.1 0.2 0.1 0.4 0.1 0.2 0.1 0.4 0.2c3.4 1.6 10.3 11.4 13.7 23.8 2.5 0 6.2-0.4 7.2-0.4 1.1-1.4 9.5-11.9 6.3-23.4q0 0 0-0.1 0-0.1 0.1-0.2 0-0.1 0.1-0.2 0.1 0 0.2-0.1 0.1 0 0.2 0 0.1 0 0.2 0.1 0.1 0 0.1 0.1 0.1 0.1 0.1 0.2c3.5 12.7-6.6 24.3-6.7 24.4q-0.1 0-0.1 0 0 0.1-0.1 0.1 0 0-0.1 0 0 0-0.1 0c0 0-5 0.5-7.8 0.5z"/>
		<path class="s1" d="m324 198.9c-5.4-10.2-7.7-10.9-8.6-14.2q0.2-0.7 0.6-1.3 0.3-0.7 0.7-1.3 0.4-0.6 0.8-1.2 0.5-0.6 1-1.2c-0.7-0.2-2.1-0.4-3-0.6q0.1-0.7 0.3-1.3-0.4-0.1-0.8-0.1-0.4 0-0.7 0-0.4 0-0.8 0.1-0.4 0-0.7 0.1v-1q-0.5-0.1-1-0.2-0.5 0-1-0.1-0.5 0-0.9 0-0.5 0-1 0.1 0.2 0.7 0.3 1.4c-1 0.2-2.5 0.5-3.2 0.7q0.5 0.6 1 1.3 0.4 0.6 0.8 1.3 0.4 0.7 0.7 1.5 0.3 0.7 0.5 1.5c-2.9 5-14.3 37.5 4.2 40 18.6 2.5 16.2-15.2 10.8-25.5z"/>
		<path class="s13" d="m324 198.9c-5.4-10.2-7.7-10.9-8.6-14.2q0.2-0.7 0.6-1.3 0.3-0.7 0.7-1.3 0.4-0.6 0.8-1.2 0.5-0.6 1-1.2c-0.7-0.2-2.1-0.4-3-0.6q0.1-0.7 0.3-1.3-0.4-0.1-0.8-0.1-0.4 0-0.7 0-0.4 0-0.8 0.1-0.4 0-0.7 0.1v-1q-0.5-0.1-1-0.2-0.5 0-1-0.1-0.5 0-0.9 0-0.5 0-1 0.1 0.2 0.7 0.3 1.4c-1 0.2-2.5 0.5-3.2 0.7q0.5 0.6 1 1.3 0.4 0.6 0.8 1.3 0.4 0.7 0.7 1.5 0.3 0.7 0.5 1.5c-2.9 5-14.3 37.5 4.2 40 18.6 2.5 16.2-15.2 10.8-25.5z"/>
		<path class="s1" d="m308.3 183.4q-0.1 0.2-0.1 0.4 0 0.2-0.1 0.4 0 0.2 0 0.4 0 0.2 0 0.4c0 0.3 1 0.6 2.1 0.7 1.1 0.1 5.8 0.3 5.6-0.2-0.1-0.5 0.3-1.3 0.3-1.7 0-0.4-1.9-0.5-3.4-0.4-1.6 0.1-4.1-0.6-4.4 0z"/>
		<path class="s1" d="m297.4 221h1c0.2 0 0.3-0.1 0.3-0.2l-0.4-4c0-0.1-0.2-0.2-0.4-0.2h-0.9c-0.2 0-0.3 0.1-0.3 0.2l0.4 4c0 0.1 0.2 0.2 0.4 0.2z"/>
	</g>
</svg>