<svg width="227" height="320" viewBox="0 0 227 320" fill="none" xmlns="http://www.w3.org/2000/svg">
<g filter="url(#filter0_d_448_827)">
<path d="M154.448 305.066L146.046 303.815L146.512 284.08L154.914 285.331L154.448 305.066Z" fill="#E4897B"/>
<path d="M218.311 302.907L210.007 304.6L203.727 285.834L212.043 284.141L218.311 302.907Z" fill="#E4897B"/>
<path opacity="0.2" d="M146.512 284.08L146.267 294.26L154.68 295.511L154.926 285.331L146.512 284.08Z" fill="black"/>
<path opacity="0.2" d="M212.043 284.141L203.728 285.834L206.966 295.511L215.281 293.818L212.043 284.141Z" fill="black"/>
<path d="M143.384 291.917L157.623 294.026C157.623 294.026 158.703 246.315 159.071 219.908C159.455 209.386 160.446 198.894 162.039 188.485C164.173 173.264 167.08 156.768 169.496 143.84C172.047 130.226 174.059 120.537 174.059 120.537H144.205C144.205 120.537 135.141 187.933 135.289 213.751C135.497 240.771 143.384 291.917 143.384 291.917Z" fill="#263238"/>
<path opacity="0.2" d="M162.039 188.486C164.173 173.265 167.08 156.768 169.496 143.841L165.878 137.438C159.292 146.699 159.488 173.89 162.039 188.486Z" fill="black"/>
<path d="M160.371 120.587C160.371 120.587 169.852 193.392 174.5 217.837C179.59 244.611 202.71 294.371 202.71 294.371L217.943 291.28C217.943 291.28 202.256 245.323 198.908 218.462C196.05 195.588 192.187 150.82 190.506 130.742C190.287 127.968 189.028 125.379 186.981 123.494C184.934 121.609 182.251 120.566 179.468 120.575L160.371 120.587Z" fill="#263238"/>
<path d="M200.969 295.07L218.889 291.427L217.748 286.079L198.811 288.802L200.969 295.07Z" fill="#263238"/>
<path d="M141.581 292.04L158.581 294.321L159.268 288.851L140.612 286.054L141.581 292.04Z" fill="#263238"/>
<path d="M145.321 302.171L154.606 301.987C154.773 301.987 154.936 302.042 155.07 302.144C155.203 302.246 155.298 302.389 155.342 302.552L157.23 310.045C157.278 310.23 157.282 310.423 157.242 310.609C157.203 310.796 157.12 310.97 157.001 311.119C156.882 311.268 156.73 311.387 156.557 311.467C156.384 311.546 156.194 311.585 156.004 311.579C152.656 311.579 147.811 311.48 143.604 311.579C138.698 311.677 135.558 311.407 129.793 311.517C126.298 311.591 125.231 308.095 126.678 307.752C133.289 306.17 137.594 306.525 143.248 302.846C143.861 302.429 144.58 302.195 145.321 302.171Z" fill="#263238"/>
<path d="M144.646 303.188C144.652 303.148 144.645 303.107 144.625 303.071C144.605 303.036 144.574 303.008 144.536 302.992C144.144 302.796 140.685 301.128 139.63 301.766C139.535 301.821 139.456 301.899 139.4 301.994C139.344 302.088 139.313 302.195 139.311 302.305C139.293 302.488 139.32 302.672 139.391 302.841C139.462 303.01 139.573 303.159 139.716 303.274C140.673 304.071 143.089 303.703 144.45 303.397C144.5 303.385 144.545 303.36 144.58 303.322C144.615 303.285 144.638 303.239 144.646 303.188ZM143.812 303.09C141.948 303.434 140.538 303.385 140.01 302.931C139.915 302.857 139.841 302.758 139.796 302.646C139.751 302.534 139.736 302.413 139.753 302.293C139.749 302.25 139.757 302.206 139.776 302.167C139.796 302.128 139.826 302.095 139.863 302.072H139.937C140.574 301.815 142.414 302.477 143.812 303.09Z" fill="#00843D"/>
<path d="M144.575 303.324C144.602 303.302 144.623 303.274 144.636 303.242C144.649 303.209 144.653 303.174 144.648 303.14C144.525 301.944 144.032 300.816 143.238 299.914C143.083 299.784 142.902 299.688 142.708 299.631C142.514 299.574 142.31 299.558 142.109 299.583C141.557 299.657 141.41 299.939 141.373 300.159C141.251 301.128 143.336 302.919 144.366 303.348C144.418 303.366 144.474 303.366 144.526 303.348L144.575 303.324ZM142.122 299.988C142.269 299.968 142.419 299.978 142.563 300.018C142.706 300.058 142.84 300.127 142.956 300.221C143.621 300.937 144.05 301.84 144.182 302.809C143.115 302.208 141.729 300.797 141.729 300.221C141.729 300.221 141.729 300.098 141.913 300.037L142.122 299.988Z" fill="#00843D"/>
<path d="M132.603 56.0839C130.592 59.8616 128.323 63.8723 126.005 67.515C124.852 69.367 123.625 71.1209 122.399 72.7399C121.342 74.1597 120.133 75.4594 118.793 76.6157C118.684 76.7119 118.569 76.8019 118.45 76.8855C118.367 76.9535 118.276 77.0112 118.18 77.0572L118.094 77.1308C118.024 77.1794 117.944 77.2128 117.861 77.2289C117.054 77.4167 116.234 77.5397 115.408 77.5969C113.409 77.7318 111.176 77.7441 108.932 77.695C104.443 77.5969 99.7698 77.3761 95.1581 77.2289H95.0845C94.322 77.2079 93.5766 77.4579 92.9809 77.9344C92.3852 78.4108 91.9776 79.083 91.8305 79.8316C91.6834 80.5801 91.8064 81.3566 92.1776 82.023C92.5488 82.6895 93.1442 83.2028 93.858 83.4719C98.3988 85.1647 103.06 86.5136 107.803 87.5071C110.287 88.0339 112.803 88.3986 115.334 88.5987C116.838 88.7187 118.349 88.6941 119.848 88.5251C120.343 88.4576 120.834 88.3634 121.32 88.243L122.19 87.9854L122.902 87.7033C123.347 87.5297 123.781 87.329 124.202 87.1023C124.602 86.9097 124.987 86.6883 125.355 86.44C127.805 84.8503 130.012 82.9125 131.904 80.6877C133.61 78.7602 135.199 76.7328 136.663 74.6165C138.086 72.5559 139.423 70.4709 140.649 68.3368C141.876 66.2026 143.102 64.1176 144.157 61.7627C145.678 58.5492 143.421 53.9743 140.22 52.4535C137.019 50.9326 133.928 52.8827 132.677 55.9858L132.603 56.0839Z" fill="#00843D"/>
<path opacity="0.7" d="M91.7359 80.3567C91.7192 81.0311 91.9136 81.6938 92.2918 82.2523C92.67 82.8108 93.2132 83.2372 93.8455 83.4721C98.3825 85.1761 103.045 86.5252 107.791 87.5073C110.273 88.0461 112.789 88.4109 115.322 88.5989C116.821 88.7313 118.329 88.7066 119.823 88.5253C120.322 88.4625 120.818 88.3724 121.307 88.2555L122.178 87.9979L122.374 87.912L122.877 87.7158C123.327 87.5443 123.765 87.3436 124.189 87.1148C124.606 86.8941 124.987 86.6733 125.342 86.4525C127.16 85.2909 128.832 83.9156 130.322 82.356C130.862 81.804 131.377 81.2398 131.892 80.6879C133.593 78.7645 135.178 76.7412 136.638 74.629C137.571 73.2798 138.466 71.9306 139.312 70.557C139.77 69.8211 140.212 69.0851 140.637 68.3492C141.863 66.1906 143.028 64.13 144.145 61.7752C145.653 58.5617 143.409 53.9746 140.195 52.466C136.982 50.9574 133.916 52.8952 132.664 55.9983V56.0842C130.653 59.8618 128.372 63.8725 126.066 67.5152C124.913 69.355 123.674 71.1089 122.448 72.7401C121.395 74.1593 120.19 75.459 118.854 76.6159C118.741 76.7091 118.622 76.7951 118.498 76.8735L118.241 77.0575L118.143 77.131C118.07 77.174 117.991 77.2071 117.91 77.2292C117.103 77.4169 116.283 77.54 115.457 77.5971C114.77 77.5971 114.046 77.6707 113.31 77.6952C111.912 77.6952 110.452 77.6952 108.981 77.6952C104.492 77.5971 99.8186 77.3763 95.1947 77.2292H95.1211C94.6924 77.2078 94.2637 77.2721 93.8602 77.4185C93.4567 77.5649 93.0865 77.7903 92.7712 78.0816C92.456 78.3729 92.202 78.7241 92.0242 79.1148C91.8465 79.5055 91.7484 79.9277 91.7359 80.3567Z" fill="white"/>
<path opacity="0.1" d="M130.322 82.3563C130.862 81.8044 131.377 81.2402 131.892 80.6882C133.593 78.7648 135.178 76.7415 136.639 74.6293C137.571 73.2801 138.466 71.931 139.312 70.5573L134.64 62.6586C134.64 62.6586 129.022 69.4289 130.322 82.3563Z" fill="black"/>
<path opacity="0.1" d="M91.7368 80.3564C91.7202 81.0307 91.9145 81.6934 92.2927 82.2519C92.6709 82.8104 93.2141 83.2369 93.8464 83.4717C98.3834 85.1757 103.046 86.5248 107.792 87.5069C110.274 88.0457 112.79 88.4105 115.323 88.5985C116.821 88.7309 118.33 88.7063 119.824 88.5249C120.323 88.4621 120.819 88.372 121.308 88.2551L122.179 87.9975L122.375 87.9117C119.769 84.1439 116.704 80.716 113.25 77.7071C111.852 77.7071 110.392 77.7071 108.92 77.7071C104.431 77.609 99.7582 77.3882 95.1342 77.2411H95.0607C94.2071 77.2146 93.3779 77.5277 92.7548 78.1117C92.1317 78.6957 91.7656 79.5029 91.7368 80.3564Z" fill="black"/>
<path d="M182.399 46.9965C181.693 56.4357 181.693 65.9143 182.399 75.3534C182.852 81.952 183.625 88.1949 184.361 93.8369C186.188 107.046 188.408 116.981 188.666 120.428L143.555 125.469C128.346 79.2169 135.203 52.6998 135.203 52.6998C138.598 51.3968 142.072 50.3071 145.603 49.4373C146.351 49.241 147.112 49.0816 147.885 48.9222C154.232 47.8379 160.637 47.1213 167.067 46.7758C168.294 46.7022 169.52 46.6531 170.747 46.6286C176.867 46.5059 182.399 46.9965 182.399 46.9965Z" fill="#00843D"/>
<path opacity="0.7" d="M136.013 95.6757C136.528 98.7093 137.161 101.886 137.914 105.206C139.324 111.449 141.164 118.194 143.543 125.431L188.654 120.39C188.397 116.931 186.201 107.009 184.337 93.7992C184.337 93.652 184.337 93.5171 184.276 93.3699C183.515 87.8506 182.828 81.7548 182.387 75.3157C182.276 73.8193 182.191 72.2985 182.117 70.7531C181.692 62.824 181.786 54.8756 182.399 46.9588C182.399 46.9588 176.868 46.4682 170.723 46.5909C169.496 46.5909 168.27 46.6522 167.043 46.738C160.613 47.0836 154.208 47.8002 147.861 48.8844C147.088 49.0316 146.327 49.2033 145.579 49.3873C142.049 50.2615 138.576 51.3511 135.179 52.6498C135.179 52.6498 131.217 68.0302 136.013 95.6757Z" fill="white"/>
<path d="M151.589 57.3354C150.877 60.831 150.117 91.1625 149.835 100.079L153.367 103.538L155.82 99.2697C155.379 90.77 152.717 61.6159 153.367 57.1882L151.589 57.3354Z" fill="#00843D"/>
<path d="M152.018 60.0335L149.958 55.986L152.84 54.3057L155.293 55.4463L152.018 60.0335Z" fill="#00843D"/>
<path d="M152.976 54.2938C155.726 54.1281 158.408 53.3705 160.838 52.0729C163.268 50.7753 165.389 48.9682 167.057 46.7753C162.236 43.0957 162.077 31.7383 162.531 25.4463L160.679 27.4332L151.983 36.8038C152.566 38.1959 152.978 39.6539 153.209 41.1456C153.59 44.3345 152.535 47.2781 147.923 48.9217C146.942 51.0926 147.653 54.7721 152.976 54.2938Z" fill="#E4897B"/>
<path opacity="0.2" d="M151.982 36.8041C152.566 38.1962 152.978 39.6542 153.209 41.1459C158.115 42.5441 162.113 37.3315 162.113 32.0329C162.113 30.1932 161.034 28.4761 160.727 27.4458L151.982 36.8041Z" fill="black"/>
<path d="M138.735 14.2359C137.815 17.5352 138.588 24.2196 143.077 21.8893C147.566 19.5589 140.317 8.59393 138.735 14.2359Z" fill="#263238"/>
<path d="M162.383 17.8913C163.143 26.2683 164.026 31.1376 160.482 35.9945C155.146 43.3536 144.28 40.9987 141.017 33.0019C138.086 25.8022 137.338 13.3164 144.954 8.83964C146.647 7.84796 148.563 7.30159 150.524 7.25157C152.485 7.20156 154.427 7.64955 156.168 8.55367C157.908 9.45779 159.392 10.7885 160.479 12.4215C161.565 14.0545 162.221 15.9364 162.383 17.8913Z" fill="#E4897B"/>
<path d="M142.022 16.0141C136.16 16.0141 131.376 10.2618 138.343 4.65663C139.983 3.43285 141.821 2.49944 143.776 1.89698C143.776 1.89698 142.39 4.16603 144.034 5.69917C144.625 3.97607 145.758 2.49063 147.264 1.46485C148.769 0.439075 150.566 -0.0719507 152.386 0.00816788C151.516 1.87246 152.987 5.60104 155.71 4.31321C159.844 2.37532 166.062 2.93953 165.768 8.21351C171.385 10.7769 169.042 19.4483 161.757 23.9005C157.587 20.7852 157.808 12.9233 157.808 12.9233C153.907 14.7876 147.321 15.9528 142.022 16.0141Z" fill="#263238"/>
<path d="M164.664 8.9501C164.664 8.9501 167.889 6.70559 165.056 4.04407C168.748 4.91489 167.865 7.85851 164.664 8.9501Z" fill="#263238"/>
<path d="M164.223 9.82033C164.223 9.82033 167.093 7.13428 169.129 10.4581C169.031 6.69273 165.952 6.93803 164.223 9.82033Z" fill="#263238"/>
<path d="M166.64 24.3176C166.476 25.348 166.109 26.3357 165.562 27.224C165.015 28.1123 164.297 28.8836 163.451 29.4934C161.169 31.1001 159.06 29.2726 158.9 26.6234C158.741 24.244 159.747 20.4908 162.433 19.9757C163.019 19.8794 163.62 19.9264 164.184 20.1128C164.748 20.2992 165.259 20.6194 165.672 21.0461C166.085 21.4728 166.389 21.9932 166.558 22.5629C166.726 23.1326 166.754 23.7347 166.64 24.3176Z" fill="#E4897B"/>
<path d="M150.119 22.0861C150.217 22.7607 149.947 23.3126 149.505 23.423C149.064 23.5334 148.61 22.9937 148.512 22.3192C148.414 21.6446 148.684 21.0926 149.125 20.97C149.567 20.8473 150.008 21.3625 150.119 22.0861Z" fill="#263238"/>
<path d="M142.415 23.141C142.526 23.8156 142.244 24.3675 141.802 24.4779C141.361 24.5883 140.919 24.0487 140.809 23.3741C140.698 22.6995 140.98 22.1476 141.422 22.0249C141.864 21.9023 142.354 22.4665 142.415 23.141Z" fill="#263238"/>
<path d="M144.943 23.1282C144.405 25.2464 143.58 27.2809 142.49 29.1749C143.004 29.4182 143.563 29.5505 144.132 29.5632C144.7 29.5759 145.265 29.4686 145.789 29.2484L144.943 23.1282Z" fill="#DE5753"/>
<path d="M149.847 31.3082C149.559 31.3966 149.263 31.4581 148.964 31.4922C148.912 31.5003 148.859 31.4875 148.816 31.4564C148.774 31.4254 148.745 31.3787 148.737 31.3266C148.729 31.2746 148.742 31.2214 148.773 31.1789C148.804 31.1363 148.851 31.1079 148.903 31.0997C149.747 31.0003 150.555 30.7015 151.261 30.2281C151.967 29.7546 152.55 29.1201 152.962 28.3769C152.973 28.3521 152.988 28.3297 153.008 28.3112C153.027 28.2927 153.051 28.2784 153.076 28.2691C153.101 28.2599 153.128 28.256 153.155 28.2577C153.182 28.2594 153.208 28.2665 153.232 28.2788C153.28 28.3026 153.317 28.3439 153.335 28.3941C153.353 28.4443 153.352 28.4996 153.33 28.5486C152.968 29.2213 152.472 29.813 151.873 30.2875C151.274 30.762 150.585 31.1093 149.847 31.3082Z" fill="#263238"/>
<path d="M152.092 19.2273C152.024 19.2444 151.952 19.2445 151.884 19.2273C151.815 19.2102 151.752 19.1765 151.7 19.1291C151.352 18.7616 150.921 18.4828 150.443 18.3164C149.965 18.1499 149.454 18.1006 148.953 18.1725C148.847 18.1947 148.737 18.1752 148.645 18.1181C148.554 18.0609 148.488 17.9705 148.462 17.8658C148.449 17.8142 148.447 17.7606 148.456 17.7082C148.465 17.6558 148.484 17.6057 148.513 17.561C148.542 17.5163 148.579 17.4779 148.623 17.448C148.667 17.4182 148.716 17.3976 148.769 17.3875C149.407 17.2959 150.058 17.3595 150.666 17.573C151.275 17.7865 151.823 18.1436 152.264 18.614C152.302 18.6517 152.333 18.6966 152.353 18.746C152.374 18.7955 152.385 18.8486 152.385 18.9022C152.385 18.9559 152.374 19.009 152.353 19.0585C152.333 19.1079 152.302 19.1528 152.264 19.1905C152.21 19.2132 152.151 19.2257 152.092 19.2273Z" fill="#263238"/>
<path d="M138.735 20.9821C138.659 21.0065 138.577 21.0065 138.502 20.9821C138.399 20.9509 138.314 20.8805 138.263 20.7863C138.213 20.6921 138.201 20.5817 138.232 20.4792C138.409 19.867 138.731 19.3064 139.171 18.8452C139.611 18.384 140.155 18.0357 140.758 17.83C140.861 17.8035 140.97 17.8183 141.061 17.871C141.153 17.9237 141.22 18.0102 141.249 18.112C141.264 18.162 141.269 18.2144 141.263 18.2662C141.258 18.3181 141.242 18.3683 141.217 18.4139C141.192 18.4596 141.158 18.4998 141.117 18.5322C141.076 18.5646 141.029 18.5886 140.979 18.6027C140.502 18.7689 140.073 19.0491 139.729 19.4189C139.385 19.7886 139.136 20.2368 139.005 20.7245C138.986 20.787 138.951 20.8435 138.903 20.8887C138.856 20.9338 138.798 20.966 138.735 20.9821Z" fill="#263238"/>
<path d="M152.842 54.3056C152.842 54.3056 155.147 56.6482 157.748 58.9295C161.047 56.7095 168.7 50.9081 167.903 46.3455C167.334 45.4383 166.467 44.7575 165.45 44.4199C161.808 48.3736 157.55 51.712 152.842 54.3056Z" fill="#00843D"/>
<path d="M152.84 54.3052C151.253 55.9541 149.903 57.8158 148.829 59.8368C146.131 58.3404 146.671 49.6445 147.529 48.6019C148.447 47.7729 149.6 47.25 150.828 47.1056C150.828 47.1056 148.731 53.7287 152.84 54.3052Z" fill="#00843D"/>
<g opacity="0.5">
<path d="M152.842 54.3056C152.842 54.3056 155.147 56.6482 157.748 58.9295C161.047 56.7095 168.7 50.9081 167.903 46.3455C167.334 45.4383 166.467 44.7575 165.45 44.4199C161.808 48.3736 157.55 51.712 152.842 54.3056Z" fill="white"/>
</g>
<g opacity="0.5">
<path d="M152.84 54.3052C151.253 55.9541 149.903 57.8158 148.829 59.8368C146.131 58.3404 146.671 49.6445 147.529 48.6019C148.447 47.7729 149.6 47.25 150.828 47.1056C150.828 47.1056 148.731 53.7287 152.84 54.3052Z" fill="white"/>
</g>
<path opacity="0.1" d="M136.013 95.6765C136.528 98.7101 137.162 101.887 137.914 105.206C144.954 105.697 164.186 106.617 173.483 102.999C178.07 101.233 181.639 97.3691 184.264 93.3707C183.503 87.8514 182.816 81.7556 182.375 75.3165C182.264 73.8201 182.179 72.2993 182.105 70.7539L173.421 59.8011C173.421 59.8011 165.645 83.6567 162.689 85.9994C160.298 87.9495 142.501 93.665 136.013 95.6765Z" fill="black"/>
<path d="M187.477 112.92C187.477 112.92 192.211 124.928 192.211 150.721L176.573 156.584L164.492 139.891L143.335 140.455L143.163 126.51L142.537 122.156L187.477 112.92Z" fill="#263238"/>
<path d="M187.784 113.693L185.356 114.183L186.067 117.605L188.814 117.078L187.784 113.693Z" fill="black"/>
<path d="M183.834 114.478L171.238 117.005L171.925 120.304L184.533 117.9L183.834 114.478Z" fill="black"/>
<path d="M169.718 117.299L149.002 121.445L149.137 124.658L170.393 120.599L169.718 117.299Z" fill="black"/>
<path d="M142.477 122.744L143.115 125.811L147.592 124.952L147.469 121.751L142.477 122.744Z" fill="black"/>
<path d="M161.795 119.102L162.383 122.23C162.398 122.298 162.398 122.369 162.385 122.437C162.372 122.506 162.345 122.572 162.306 122.63C162.267 122.688 162.217 122.738 162.159 122.777C162.101 122.815 162.035 122.842 161.966 122.855L157.134 123.885C157.062 123.903 156.987 123.906 156.914 123.893C156.841 123.88 156.772 123.852 156.71 123.81C156.649 123.768 156.597 123.714 156.558 123.651C156.519 123.588 156.494 123.517 156.484 123.444L156.03 120.255C156.012 120.117 156.045 119.978 156.125 119.864C156.204 119.751 156.324 119.671 156.459 119.642L161.12 118.673C161.193 118.651 161.269 118.645 161.345 118.655C161.42 118.665 161.492 118.692 161.556 118.733C161.62 118.773 161.674 118.827 161.716 118.891C161.757 118.955 161.784 119.027 161.795 119.102Z" fill="white"/>
<path d="M210.364 302.171L219.685 301.987C219.853 301.987 220.016 302.042 220.149 302.144C220.282 302.246 220.378 302.389 220.421 302.552L222.322 310.045C222.37 310.23 222.374 310.423 222.334 310.609C222.294 310.796 222.212 310.97 222.093 311.119C221.974 311.268 221.821 311.387 221.648 311.467C221.475 311.546 221.286 311.585 221.096 311.579C217.747 311.579 212.903 311.48 208.696 311.579C203.79 311.677 200.65 311.407 194.885 311.517C191.39 311.591 190.323 308.095 191.782 307.752C198.381 306.17 202.698 306.525 208.34 302.846C208.94 302.439 209.64 302.206 210.364 302.171Z" fill="#263238"/>
<path d="M209.689 303.188C209.695 303.148 209.688 303.107 209.668 303.071C209.648 303.036 209.617 303.008 209.579 302.992C209.187 302.796 205.728 301.128 204.673 301.766C204.578 301.821 204.499 301.899 204.443 301.994C204.387 302.088 204.356 302.195 204.354 302.305C204.346 302.487 204.378 302.668 204.448 302.835C204.518 303.003 204.624 303.153 204.759 303.274C205.716 304.071 208.144 303.703 209.505 303.397C209.531 303.395 209.556 303.389 209.58 303.377C209.603 303.366 209.624 303.35 209.641 303.331C209.658 303.311 209.671 303.289 209.679 303.264C209.688 303.24 209.691 303.214 209.689 303.188ZM208.855 303.09C206.991 303.434 205.593 303.385 205.053 302.931C204.962 302.853 204.892 302.754 204.847 302.643C204.802 302.532 204.784 302.412 204.796 302.293C204.791 302.248 204.8 302.203 204.822 302.163C204.844 302.124 204.878 302.092 204.918 302.072H204.992C205.617 301.815 207.494 302.477 208.855 303.09Z" fill="#00843D"/>
<path d="M209.615 303.324C209.645 303.304 209.668 303.276 209.681 303.243C209.694 303.21 209.697 303.174 209.689 303.14C209.566 301.944 209.073 300.816 208.278 299.914C208.125 299.784 207.947 299.688 207.755 299.631C207.563 299.574 207.361 299.558 207.162 299.583C206.61 299.656 206.451 299.938 206.426 300.159C206.291 301.128 208.376 302.919 209.419 303.348C209.466 303.366 209.519 303.366 209.566 303.348L209.615 303.324ZM207.162 299.988C207.308 299.968 207.456 299.978 207.597 300.018C207.739 300.058 207.87 300.127 207.984 300.221C208.641 300.942 209.068 301.843 209.21 302.809C208.143 302.208 206.757 300.797 206.757 300.221C206.757 300.221 206.757 300.098 206.941 300.037C207.027 300.004 207.119 299.987 207.211 299.988H207.162Z" fill="#00843D"/>
<path d="M73.8171 162.153L144.145 142.738C144.727 142.598 145.266 142.318 145.715 141.922C146.164 141.527 146.51 141.028 146.723 140.468C146.935 139.909 147.008 139.306 146.935 138.712C146.862 138.118 146.646 137.55 146.304 137.059L84.5122 31.8983C83.76 30.6816 82.6461 29.7306 81.3265 29.1786C80.0069 28.6266 78.5476 28.5011 77.1532 28.8198L6.82518 48.2231C6.24135 48.3625 5.70045 48.6426 5.24971 49.0389C4.79897 49.4353 4.45204 49.9359 4.23918 50.4971C4.02631 51.0583 3.95396 51.6631 4.02844 52.2587C4.10294 52.8543 4.32199 53.4226 4.66652 53.9141L66.458 159.136C67.2214 160.339 68.3393 161.275 69.6574 161.816C70.9756 162.356 72.429 162.474 73.8171 162.153Z" fill="#00843D"/>
<path opacity="0.6" d="M73.8171 162.153L144.145 142.738C144.727 142.598 145.266 142.318 145.715 141.922C146.164 141.527 146.51 141.028 146.723 140.468C146.935 139.909 147.008 139.306 146.935 138.712C146.862 138.118 146.646 137.55 146.304 137.059L84.5122 31.8983C83.76 30.6816 82.6461 29.7306 81.3265 29.1786C80.0069 28.6266 78.5476 28.5011 77.1532 28.8198L6.82518 48.2231C6.24135 48.3625 5.70045 48.6426 5.24971 49.0389C4.79897 49.4353 4.45204 49.9359 4.23918 50.4971C4.02631 51.0583 3.95396 51.6631 4.02844 52.2587C4.10294 52.8543 4.32199 53.4226 4.66652 53.9141L66.458 159.136C67.2214 160.339 68.3393 161.275 69.6574 161.816C70.9756 162.356 72.429 162.474 73.8171 162.153Z" fill="white"/>
<path d="M140.244 137.807L79.3848 34.1667L10.7739 53.104L71.6333 156.732L140.244 137.807Z" fill="#00843D"/>
<path opacity="0.4" d="M63.7107 112.538C41.1901 97.0025 28.2158 76.7511 34.7317 67.3058C41.2476 57.8604 64.7863 62.7977 87.3069 78.3336C109.827 93.8695 122.802 114.121 116.286 123.566C109.77 133.012 86.2312 128.074 63.7107 112.538Z" fill="white"/>
<path d="M73.9032 111.216L92.5952 106.053C92.7722 106.027 92.9408 105.96 93.0877 105.858C93.2345 105.756 93.3556 105.621 93.4413 105.464C93.5269 105.307 93.5749 105.132 93.5813 104.953C93.5877 104.774 93.5524 104.596 93.4782 104.434C93.2613 104.086 92.9359 103.819 92.5524 103.675C92.1688 103.531 91.7485 103.518 91.3564 103.636L72.3578 108.873C72.1822 108.893 72.0146 108.957 71.8716 109.061C71.7286 109.165 71.615 109.304 71.542 109.465C71.469 109.626 71.4391 109.803 71.4552 109.978C71.4714 110.154 71.533 110.323 71.6341 110.468C71.9007 110.797 72.2564 111.043 72.6587 111.175C73.061 111.308 73.493 111.322 73.9032 111.216Z" fill="white"/>
<path d="M76.6742 114.515L93.9434 109.756C94.1145 109.734 94.2782 109.673 94.4214 109.577C94.5646 109.481 94.6833 109.353 94.768 109.202C94.8526 109.052 94.9009 108.884 94.909 108.712C94.917 108.54 94.8845 108.368 94.8142 108.21C94.601 107.876 94.2841 107.62 93.912 107.483C93.5399 107.346 93.133 107.334 92.7537 107.45L75.2023 112.356C74.3929 112.577 74.0617 113.264 74.4787 113.877C74.7447 114.183 75.0932 114.406 75.4825 114.519C75.8719 114.632 76.2856 114.63 76.6742 114.515Z" fill="white"/>
<path d="M79.3115 117.68L95.2561 113.277C96.0411 113.068 96.4213 112.406 96.1147 111.805C95.9025 111.486 95.5939 111.244 95.2341 111.114C94.8743 110.984 94.4823 110.972 94.1154 111.081L77.9378 115.546C77.1528 115.767 76.8217 116.429 77.2142 117.018C77.4655 117.315 77.7959 117.535 78.1671 117.652C78.5383 117.769 78.935 117.779 79.3115 117.68Z" fill="white"/>
<path d="M93.6379 115.03C94.2879 116.257 92.3133 117.876 89.247 118.71H89.1243C86.0581 119.556 82.9918 119.311 82.2191 118.133L93.6379 115.03Z" fill="white"/>
<path d="M67.4502 95.9452L70.7986 95.0253C70.9004 95.0045 70.9908 94.9465 71.052 94.8625C71.1133 94.7786 71.141 94.6748 71.1297 94.5715L70.774 92.2534L75.398 96.1414C75.4911 96.2213 75.6027 96.2766 75.7227 96.3023C75.8427 96.328 75.9671 96.3233 76.0848 96.2886C76.1848 96.2706 76.2738 96.2145 76.3333 96.1322C76.3928 96.0498 76.418 95.9476 76.4037 95.8471L75.7291 90.941L77.7651 92.8053C77.859 92.8885 77.9717 92.9477 78.0935 92.9776C78.2153 93.0075 78.3425 93.0073 78.4642 92.977L81.7145 92.0817C80.9418 96.3132 83.358 102.237 84.2656 104.236L77.5689 106.088C74.8346 102.125 71.4066 98.6891 67.4502 95.9452Z" fill="white"/>
<path d="M61.8343 72.1631C72.8729 69.1213 85.8003 75.2907 90.277 84.9188C91.3434 86.9864 91.8627 89.2926 91.7854 91.6178C91.7082 93.9429 91.0369 96.2096 89.8355 98.2018L90.9639 102.433L85.2974 103.991C84.353 101.832 81.8018 95.4054 83.1387 91.5296C83.1721 91.432 83.1722 91.3261 83.1389 91.2284C83.1056 91.1307 83.0408 91.0469 82.9548 90.99C82.8651 90.9169 82.7598 90.8655 82.647 90.84C82.5342 90.8145 82.4171 90.8154 82.3047 90.8428L78.3186 91.9467L75.3259 89.1993C75.2331 89.1098 75.1194 89.045 74.9951 89.0107C74.8709 88.9765 74.74 88.9738 74.6145 89.003C74.5071 89.0239 74.4117 89.0851 74.3478 89.174C74.284 89.2629 74.2565 89.3729 74.2711 89.4814L74.9579 94.4487L70.3095 90.4994C70.2132 90.416 70.0984 90.357 69.9746 90.3271C69.8509 90.2972 69.7218 90.2974 69.5981 90.3277C69.4924 90.3457 69.3982 90.4048 69.3361 90.4922C69.274 90.5796 69.2492 90.688 69.2669 90.7937L69.7821 94.1176L65.845 95.2092C65.7541 95.2265 65.6722 95.2754 65.6139 95.3472C65.5555 95.419 65.5244 95.5091 65.5261 95.6016C65.5386 95.7038 65.5766 95.8011 65.6366 95.8847C65.6966 95.9683 65.7767 96.0355 65.8695 96.08C70.0688 98.7523 73.6822 102.249 76.4911 106.358L71.3765 107.769L67.9055 104.187C62.4165 102.668 57.5856 99.373 54.1686 94.8167C47.7172 85.8632 50.8202 75.2048 61.8343 72.1631Z" fill="white"/>
<path d="M173.948 53.2637C173.74 56.3423 173.506 59.7029 173.114 62.8918C172.722 66.0807 172.305 69.3187 171.728 72.4218C171.205 75.4084 170.446 78.3489 169.459 81.2159C169.022 82.4358 168.485 83.6173 167.852 84.7482C167.604 85.1767 167.326 85.5866 167.018 85.9747C166.745 86.319 166.417 86.6172 166.049 86.8578C164.932 87.6247 163.75 88.2936 162.517 88.857C161.156 89.4948 159.708 90.0835 158.212 90.66C155.219 91.8006 152.079 92.8186 148.903 93.7753C142.549 95.6641 136 97.4548 129.512 99.0861C128.751 99.289 128.092 99.7651 127.66 100.423C127.228 101.082 127.054 101.876 127.171 102.654C127.288 103.433 127.687 104.141 128.293 104.643C128.899 105.146 129.669 105.407 130.456 105.378C137.383 105.024 144.28 104.241 151.11 103.035C154.557 102.434 158.003 101.699 161.499 100.754C163.228 100.276 164.982 99.7239 166.773 99.0615C168.708 98.374 170.569 97.4947 172.329 96.4368C173.413 95.7831 174.418 95.0052 175.322 94.1187C176.197 93.2717 176.989 92.3436 177.689 91.3468C178.903 89.6183 179.927 87.7637 180.743 85.8153C182.214 82.3309 183.36 78.7177 184.165 75.022C184.951 71.5143 185.561 67.9693 185.992 64.4004C186.189 62.6343 186.36 60.8681 186.507 59.0896C186.655 57.3112 186.753 55.6064 186.802 53.6807C186.88 51.9778 186.278 50.3137 185.129 49.0544C183.98 47.795 182.378 47.0437 180.675 46.9656C178.973 46.8875 177.308 47.4891 176.049 48.6381C174.79 49.787 174.038 51.3891 173.96 53.092L173.948 53.2637Z" fill="#00843D"/>
<path opacity="0.7" d="M173.948 53.2637C173.74 56.3423 173.506 59.7029 173.114 62.8918C172.722 66.0807 172.305 69.3187 171.728 72.4218C171.205 75.4084 170.446 78.3489 169.459 81.2159C169.022 82.4358 168.485 83.6173 167.852 84.7482C167.604 85.1767 167.326 85.5866 167.018 85.9747C166.745 86.319 166.417 86.6172 166.049 86.8578C164.932 87.6247 163.75 88.2936 162.517 88.857C161.156 89.4948 159.708 90.0835 158.212 90.66C155.219 91.8006 152.079 92.8186 148.903 93.7753C142.549 95.6641 136 97.4548 129.512 99.0861C128.751 99.289 128.092 99.7651 127.66 100.423C127.228 101.082 127.054 101.876 127.171 102.654C127.288 103.433 127.687 104.141 128.293 104.643C128.899 105.146 129.669 105.407 130.456 105.378C137.383 105.024 144.28 104.241 151.11 103.035C154.557 102.434 158.003 101.699 161.499 100.754C163.228 100.276 164.982 99.7239 166.773 99.0615C168.708 98.374 170.569 97.4947 172.329 96.4368C173.413 95.7831 174.418 95.0052 175.322 94.1187C176.197 93.2717 176.989 92.3436 177.689 91.3468C178.903 89.6183 179.927 87.7637 180.743 85.8153C182.214 82.3309 183.36 78.7177 184.165 75.022C184.951 71.5143 185.561 67.9693 185.992 64.4004C186.189 62.6343 186.36 60.8681 186.507 59.0896C186.655 57.3112 186.753 55.6064 186.802 53.6807C186.88 51.9778 186.278 50.3137 185.129 49.0544C183.98 47.795 182.378 47.0437 180.675 46.9656C178.973 46.8875 177.308 47.4891 176.049 48.6381C174.79 49.787 174.038 51.3891 173.96 53.092L173.948 53.2637Z" fill="white"/>
<path d="M130.26 98.84L121.834 97.1351L124.398 107.72C124.398 107.72 131.891 107.56 132.223 103.562L130.26 98.84Z" fill="#E4897B"/>
<path d="M115.531 100.287L118.057 108.934L124.398 107.72L121.835 97.1351L115.531 100.287Z" fill="#E4897B"/>
<path d="M134.16 105.758L132.455 97.8099L129.548 98.7175L131.033 105.758H134.16Z" fill="#00843D"/>
<path opacity="0.5" d="M134.16 105.758L132.455 97.8099L129.548 98.7175L131.033 105.758H134.16Z" fill="white"/>
</g>
<defs>
<filter id="filter0_d_448_827" x="0" y="0" width="226.361" height="319.6" filterUnits="userSpaceOnUse" color-interpolation-filters="sRGB">
<feFlood flood-opacity="0" result="BackgroundImageFix"/>
<feColorMatrix in="SourceAlpha" type="matrix" values="0 0 0 0 0 0 0 0 0 0 0 0 0 0 0 0 0 0 127 0" result="hardAlpha"/>
<feOffset dy="4"/>
<feGaussianBlur stdDeviation="2"/>
<feComposite in2="hardAlpha" operator="out"/>
<feColorMatrix type="matrix" values="0 0 0 0 0 0 0 0 0 0 0 0 0 0 0 0 0 0 0.25 0"/>
<feBlend mode="normal" in2="BackgroundImageFix" result="effect1_dropShadow_448_827"/>
<feBlend mode="normal" in="SourceGraphic" in2="effect1_dropShadow_448_827" result="shape"/>
</filter>
</defs>
</svg>
