<svg id="freepik_stories-business-solution" data-name="freepik stories-business-solution" xmlns="http://www.w3.org/2000/svg" viewBox="0 0 608.88 446.93"><defs><style>.cls-1{fill:#e53835;}.cls-1,.cls-2,.cls-3{stroke:#fff;stroke-miterlimit:10;}.cls-2{fill:#e53935;}</style></defs><g id="freepik--Puzzle--inject-64"><path id="eldu8w54ihvag" class="cls-1" d="M515.16,148.49V89.87H336.73v58.66l3.07,4.65a16.61,16.61,0,0,0,8.67,6.3c5.28,1.74,11,.4,15.61-2.68a20.75,20.75,0,0,1,11.66-3.62c12.45,0,22.46,11.19,22.46,25.14s-10,25.06-22.46,25.06a20.91,20.91,0,0,1-11.66-3.62c-4.65-3.16-10.41-4.5-15.69-2.68a15.94,15.94,0,0,0-8.59,6.22l-3.07,4.57v59.51h59.5l4.65-3.08a15.91,15.91,0,0,0,6.23-8.59c1.81-5.28.47-11-2.68-15.68a20.84,20.84,0,0,1-3.63-11.66c0-12.46,11.2-22.47,25.07-22.47S451,215.9,451,228.37A20.84,20.84,0,0,1,447.38,240c-3.07,4.57-4.41,10.32-2.68,15.61A16.64,16.64,0,0,0,451,264.3l4.65,3.08h59.5V207.87l.12-.17-.06-59.17Z"/><path id="elq2exe4uqvif" class="cls-1" d="M515.16,267.92H455.63a.65.65,0,0,1-.28-.08l-4.65-3.08a17.16,17.16,0,0,1-6.5-8.93,18.34,18.34,0,0,1,2.74-16,20.3,20.3,0,0,0,3.54-11.38c0-12.11-11.05-22-24.64-22s-24.57,9.86-24.57,22a20.38,20.38,0,0,0,3.54,11.38c3.49,5.15,4.49,11,2.74,16.13a16.34,16.34,0,0,1-6.42,8.84l-4.62,3.07a.65.65,0,0,1-.28.08h-59.5a.5.5,0,0,1-.5-.5V207.87a.5.5,0,0,1,.08-.27l3.07-4.65a16.32,16.32,0,0,1,8.86-6.43c5.09-1.75,11-.75,16.12,2.74a20.4,20.4,0,0,0,11.38,3.61c12.11,0,22-11,22-24.56s-9.85-24.64-22-24.64a20.2,20.2,0,0,0-11.38,3.54c-5.09,3.42-10.94,4.41-16,2.74a17.16,17.16,0,0,1-8.93-6.5l-3.08-4.66a.56.56,0,0,1-.08-.27V89.87a.5.5,0,0,1,.5-.5H515.16a.5.5,0,0,1,.5.5v58.51a.44.44,0,0,1,.06.23l.06,59.17a.6.6,0,0,1-.08.28h0v59.36a.5.5,0,0,1-.5.5Zm-59.35-1h58.82V207.87a.42.42,0,0,1,.09-.27v0l-.06-58.87a.49.49,0,0,1-.06-.23V90.33H337.23v58l3,4.52a16.15,16.15,0,0,0,8.4,6.12c4.81,1.58,10.34.62,15.17-2.62a21.22,21.22,0,0,1,11.94-3.71c12.66,0,23,11.5,23,25.64s-10.3,25.56-23,25.56a21.37,21.37,0,0,1-11.94-3.71c-4.89-3.31-10.45-4.27-15.25-2.62a15.3,15.3,0,0,0-8.33,6l-3,4.52v58.86h58.85l4.53-3a15.34,15.34,0,0,0,6-8.33c1.65-4.81.7-10.36-2.62-15.25a21.4,21.4,0,0,1-3.71-11.94c0-12.67,11.47-23,25.57-23s25.64,10.3,25.64,23a21.3,21.3,0,0,1-3.71,11.94c-3.25,4.83-4.2,10.35-2.62,15.17a16.1,16.1,0,0,0,6.11,8.41Z"/><path id="elnzhzg44w3x" class="cls-1" d="M455.83,267.46l-4.65-3.07A16.09,16.09,0,0,1,445,255.8c-1.81-5.28-.47-11,2.68-15.69a20.84,20.84,0,0,0,3.63-11.66c0-12.46-11.19-22.54-25.06-22.54S401.05,216,401.05,228.45a21,21,0,0,0,3.63,11.66c3.07,4.57,4.41,10.33,2.68,15.61a16.6,16.6,0,0,1-6.31,8.67l-4.65,3.07H336.9V327l-3.08,4.65a17.15,17.15,0,0,1-8.67,6.3c-5.28,1.74-11,.4-15.6-2.68a20.21,20.21,0,0,0-11.67-3.62c-12.45,0-22.46,11.19-22.46,25.06s10,25.19,22.46,25.19a20.94,20.94,0,0,0,11.67-3.62c4.65-3.16,10.4-4.58,15.68-2.76a16.4,16.4,0,0,1,8.59,6.3l3.08,4.65v59.43H515.39V267.46Z"/><path id="elybi9lcq14w" class="cls-1" d="M336.85,446.43a.53.53,0,0,1-.46-.31.44.44,0,0,1,0-.39V386.54l-3-4.52a15.89,15.89,0,0,0-8.34-6.11c-4.75-1.63-10.3-.65-15.24,2.7a21.41,21.41,0,0,1-11.95,3.71c-12.66,0-23-11.5-23-25.64s10.3-25.56,23-25.56a20.74,20.74,0,0,1,12,3.71c4.82,3.24,10.34,4.2,15.16,2.62a16.56,16.56,0,0,0,8.41-6.11l3-4.52V267.46a.5.5,0,0,1,.5-.5h59.35l4.53-3a16.12,16.12,0,0,0,6.1-8.41c1.59-4.81.63-10.34-2.62-15.17a21.48,21.48,0,0,1-3.71-11.94c0-12.71,11.51-23,25.65-23s25.56,10.33,25.56,23a21.3,21.3,0,0,1-3.71,11.94c-3.32,4.89-4.27,10.44-2.62,15.24a15.36,15.36,0,0,0,6,8.34l4.53,3h59.36a.5.5,0,0,1,.5.5V445.87a.52.52,0,0,1-.5.5Zm-16.49-72.29a15.19,15.19,0,0,1,5,.82,16.83,16.83,0,0,1,8.84,6.51l3.08,4.65a.5.5,0,0,1,.08.27v59H514.8V268h-59a.65.65,0,0,1-.28-.08l-4.65-3.08a16.32,16.32,0,0,1-6.42-8.85c-1.75-5.09-.75-11,2.74-16.12a20.38,20.38,0,0,0,3.54-11.38c0-12.16-11-22-24.56-22s-24.65,9.88-24.65,22a20.54,20.54,0,0,0,3.58,11.42c3.41,5.08,4.41,10.92,2.73,16a17.11,17.11,0,0,1-6.5,8.93l-4.65,3.07a.65.65,0,0,1-.28.08h-59v59a.56.56,0,0,1-.08.27l-3.08,4.65a17.44,17.44,0,0,1-8.92,6.5c-5.12,1.68-11,.69-16.05-2.73a19.66,19.66,0,0,0-11.39-3.54c-12.1,0-22,11-22,24.56s9.86,24.64,22,24.64a20.38,20.38,0,0,0,11.39-3.54A19.85,19.85,0,0,1,320.36,374.14Z"/><path id="el1fxc3b3i3wg" class="cls-1" d="M297.84,331.57a20.66,20.66,0,0,1,11.66,3.63c4.58,3.15,10.33,4.49,15.69,2.76a17.18,17.18,0,0,0,8.59-6.31l3.07-4.65V267.5h-59.5l-4.65-3.08a16.47,16.47,0,0,1-6.31-8.59c-1.81-5.28-.39-11,2.76-15.68a20.87,20.87,0,0,0,3.63-11.67c0-12.45-11.27-22.46-25.15-22.46s-25.06,10-25.06,22.46a20.3,20.3,0,0,0,3.63,11.67c3.07,4.57,4.41,10.32,2.68,15.6a17.05,17.05,0,0,1-6.31,8.67l-4.65,3.08h-59.5V445.93H336.85v-59.5l-3.07-4.65a16.52,16.52,0,0,0-8.67-6.31c-5.36-1.73-11-.39-15.68,2.68a20.67,20.67,0,0,1-11.59,3.63c-12.45,0-22.54-11.19-22.54-25.07S285.39,331.57,297.84,331.57Z"/><path id="eliourhjl99bc" class="cls-1" d="M336.85,446.43H158.42a.5.5,0,0,1-.5-.5V267.49a.5.5,0,0,1,.5-.5h59.35l4.53-3a16.42,16.42,0,0,0,6.1-8.41c1.58-4.81.63-10.34-2.62-15.16a20.85,20.85,0,0,1-3.71-11.95c0-12.66,11.47-23,25.56-23s25.65,10.3,25.65,23a21.43,21.43,0,0,1-3.71,11.95c-3.35,4.93-4.33,10.49-2.7,15.24A15.85,15.85,0,0,0,273,264l4.53,3h59.35a.5.5,0,0,1,.5.5V327a.6.6,0,0,1-.08.28l-3.07,4.65a17.6,17.6,0,0,1-8.84,6.5c-5.22,1.69-11.1.66-16.14-2.82a20.3,20.3,0,0,0-11.38-3.54c-12.15,0-22,11.06-22,24.64s9.89,24.57,22,24.57a20.36,20.36,0,0,0,11.31-3.54c5.13-3.4,11-4.4,16.11-2.74a16.92,16.92,0,0,1,8.93,6.5l3.08,4.65a.54.54,0,0,1,.08.28v59.5a.5.5,0,0,1-.5.5Zm-177.93-1H336.35V386.58l-3-4.53A16,16,0,0,0,325,376c-4.82-1.56-10.38-.61-15.26,2.62a21.25,21.25,0,0,1-11.86,3.71c-12.7,0-23-11.47-23-25.57s10.34-25.64,23-25.64a21.22,21.22,0,0,1,11.94,3.71c4.79,3.29,10.35,4.29,15.25,2.7a16.64,16.64,0,0,0,8.34-6.11l3-4.52V268h-59a.54.54,0,0,1-.28-.08l-4.66-3a16.93,16.93,0,0,1-6.5-8.85c-1.73-5-.71-10.93,2.82-16.12a20.41,20.41,0,0,0,3.54-11.39c0-12.11-11.06-22-24.65-22s-24.56,9.85-24.56,22a19.76,19.76,0,0,0,3.56,11.36c3.42,5.09,4.42,10.94,2.74,16a17.6,17.6,0,0,1-6.5,8.93l-4.67,3a.54.54,0,0,1-.28.08h-59Z"/></g><g id="freepik--Character--inject-64"><path id="ellfo5z2mc6fm" class="cls-2" d="M81.9,42.05A20.87,20.87,0,0,0,92,48.87c5.26,1.65,9.9,5.31,11.86,10.51a16.26,16.26,0,0,1,.53,10.75l-1.71,5.3-45.78,36.7L168.54,251.35,307.08,140.19,270,93.89l-5.35-1.77a17.11,17.11,0,0,0-10.72.51c-5.2,2-8.85,6.59-10.44,11.91a20.82,20.82,0,0,1-6.83,10.13c-9.72,7.79-24.6,5.26-33.26-5.56s-7.92-25.89,1.8-33.67A20.79,20.79,0,0,1,216.53,71c5.6-.45,11-2.94,14-7.66a16.73,16.73,0,0,0,2.81-10.23l-.57-5.61L195.51,1,149.06,38.28l-5.56.51A16,16,0,0,1,133.27,36c-4.72-3-7.28-8.31-7.72-13.91a20.77,20.77,0,0,0-4.46-11.37C113.35,1.05,98.3.19,87.48,8.86S74.17,32.44,81.9,42.05Z"/><path id="el8k2wr67aeg" class="cls-3" d="M307.54,140.14a.52.52,0,0,1-.19.44L168.81,251.74a.44.44,0,0,1-.36.11.5.5,0,0,1-.34-.18L56.54,112.45a.49.49,0,0,1,.07-.7l45.65-36.58L103.92,70a15.74,15.74,0,0,0-.5-10.38c-1.78-4.74-6-8.44-11.54-10.2a21.35,21.35,0,0,1-10.36-7h0c-7.92-9.88-5.39-25.11,5.62-34S113.53.5,121.5,10.37A21.08,21.08,0,0,1,126.07,22c.47,5.89,3.2,10.82,7.49,13.54a15.33,15.33,0,0,0,9.91,2.72l5.41-.49L195.19.61a.53.53,0,0,1,.37-.11.58.58,0,0,1,.34.19l37.22,46.43a.46.46,0,0,1,.1.26l.57,5.61a17.16,17.16,0,0,1-2.87,10.55c-2.87,4.51-8.09,7.39-14.35,7.89a20.37,20.37,0,0,0-11.14,4.38c-9.45,7.58-10.22,22.36-1.7,33s23.1,13.07,32.55,5.49a20.33,20.33,0,0,0,6.67-9.88c1.76-5.88,5.68-10.33,10.75-12.23a17.44,17.44,0,0,1,11-.52l5.36,1.77a.46.46,0,0,1,.24.17l37.14,46.32A.58.58,0,0,1,307.54,140.14ZM168.62,250.65,306.34,140.12,269.62,94.34l-5.2-1.73a16.44,16.44,0,0,0-10.39.51c-4.76,1.78-8.44,6-10.13,11.59a21.37,21.37,0,0,1-7,10.36c-9.88,7.92-25.12,5.39-34-5.62s-8-26.45,1.88-34.36a21.29,21.29,0,0,1,11.6-4.57c6-.48,10.9-3.19,13.59-7.4a16.11,16.11,0,0,0,2.73-9.92l-.55-5.46L195.39,1.82l-46,36.91a.43.43,0,0,1-.27.1l-5.55.51A16.3,16.3,0,0,1,133,36.46c-4.55-2.88-7.46-8.09-7.94-14.28A20,20,0,0,0,120.69,11C113.11,1.55,98.35.75,87.79,9.22S74.72,32.33,82.3,41.77h0a20.28,20.28,0,0,0,9.88,6.68c5.84,1.83,10.28,5.76,12.15,10.83a16.71,16.71,0,0,1,.51,11l-1.71,5.29a.45.45,0,0,1-.16.24L57.6,112.2Z"/></g></svg>