<svg id="freepik_stories-business-solution" data-name="freepik stories-business-solution" xmlns="http://www.w3.org/2000/svg" viewBox="0 0 608.88 433.34"><defs><style>.cls-1{fill:#00843d;}.cls-1,.cls-2{stroke:#fff;stroke-miterlimit:10;}</style></defs><g id="freepik--Puzzle--inject-64"><path id="eldu8w54ihvag" class="cls-1" d="M515.16,134.9V76.28H336.73v58.66l3.07,4.65a16.56,16.56,0,0,0,8.67,6.3c5.28,1.74,11,.4,15.61-2.68a20.83,20.83,0,0,1,11.66-3.62c12.45,0,22.46,11.19,22.46,25.14s-10,25.06-22.46,25.06a20.83,20.83,0,0,1-11.66-3.62c-4.65-3.16-10.41-4.5-15.69-2.68a16,16,0,0,0-8.59,6.22l-3.07,4.57v59.51h59.5l4.65-3.08a15.88,15.88,0,0,0,6.23-8.59c1.81-5.28.47-11-2.68-15.68a20.84,20.84,0,0,1-3.63-11.66c0-12.46,11.2-22.47,25.07-22.47s25.14,10,25.14,22.47a20.84,20.84,0,0,1-3.63,11.66c-3.07,4.57-4.41,10.32-2.68,15.61a16.6,16.6,0,0,0,6.31,8.66l4.65,3.08h59.5V194.28l.12-.17-.06-59.17Z"/><path id="elq2exe4uqvif" class="cls-2" d="M515.16,254.33H455.63a.54.54,0,0,1-.28-.08l-4.65-3.08a17.16,17.16,0,0,1-6.5-8.93,18.34,18.34,0,0,1,2.74-16,20.27,20.27,0,0,0,3.54-11.38c0-12.11-11.05-22-24.64-22s-24.57,9.86-24.57,22a20.38,20.38,0,0,0,3.54,11.38c3.49,5.15,4.49,11,2.74,16.13a16.31,16.31,0,0,1-6.42,8.84l-4.62,3.07a.54.54,0,0,1-.28.08h-59.5a.5.5,0,0,1-.5-.5V194.28a.5.5,0,0,1,.08-.27l3.07-4.65a16.32,16.32,0,0,1,8.86-6.43c5.09-1.75,11-.75,16.12,2.74a20.24,20.24,0,0,0,11.38,3.61c12.11,0,22-11,22-24.56s-9.85-24.64-22-24.64a20.27,20.27,0,0,0-11.38,3.54c-5.09,3.42-10.94,4.41-16,2.74a17.16,17.16,0,0,1-8.93-6.5l-3.08-4.66a.5.5,0,0,1-.08-.27V76.28a.5.5,0,0,1,.5-.5H515.16a.5.5,0,0,1,.5.5v58.51a.46.46,0,0,1,.06.23l.06,59.17a.54.54,0,0,1-.08.28h0v59.36a.5.5,0,0,1-.5.5Zm-59.35-1h58.82V194.28a.44.44,0,0,1,.09-.27v0l-.06-58.87a.46.46,0,0,1-.06-.23V76.74H337.23v58l3,4.52a16.15,16.15,0,0,0,8.4,6.12c4.81,1.58,10.34.62,15.17-2.62a21.3,21.3,0,0,1,11.94-3.71c12.66,0,23,11.5,23,25.64s-10.3,25.56-23,25.56a21.3,21.3,0,0,1-11.94-3.71c-4.89-3.31-10.45-4.27-15.25-2.62a15.3,15.3,0,0,0-8.33,6l-3,4.52V253.3h58.85l4.53-3a15.3,15.3,0,0,0,6-8.33c1.65-4.81.7-10.36-2.62-15.25a21.37,21.37,0,0,1-3.71-11.94c0-12.67,11.47-23,25.57-23s25.64,10.3,25.64,23a21.3,21.3,0,0,1-3.71,11.94c-3.25,4.83-4.2,10.35-2.62,15.17a16.1,16.1,0,0,0,6.11,8.41Z"/><path id="elnzhzg44w3x" class="cls-1" d="M455.83,253.87l-4.65-3.07a16,16,0,0,1-6.23-8.59c-1.81-5.28-.47-11,2.68-15.69a20.84,20.84,0,0,0,3.63-11.66c0-12.46-11.19-22.54-25.06-22.54s-25.15,10.08-25.15,22.54a21,21,0,0,0,3.63,11.66c3.07,4.57,4.41,10.33,2.68,15.61a16.52,16.52,0,0,1-6.31,8.67l-4.65,3.07H336.9v59.51L333.82,318a17,17,0,0,1-8.67,6.3c-5.28,1.74-11,.4-15.6-2.68A20.29,20.29,0,0,0,297.88,318c-12.45,0-22.46,11.19-22.46,25.06s10,25.19,22.46,25.19a20.94,20.94,0,0,0,11.67-3.62c4.65-3.16,10.4-4.58,15.68-2.76a16.51,16.51,0,0,1,8.59,6.3l3.08,4.65v59.43H515.39V253.87Z"/><path id="elybi9lcq14w" class="cls-2" d="M336.85,432.84a.5.5,0,0,1-.46-.31.44.44,0,0,1,0-.39V373l-3-4.52a15.89,15.89,0,0,0-8.34-6.11c-4.75-1.63-10.3-.65-15.24,2.7a21.33,21.33,0,0,1-11.95,3.71c-12.66,0-23-11.5-23-25.64s10.3-25.56,23-25.56a20.81,20.81,0,0,1,12,3.71c4.82,3.24,10.34,4.2,15.16,2.62a16.5,16.5,0,0,0,8.41-6.11l3-4.52V253.87a.5.5,0,0,1,.5-.5h59.35l4.53-3a16.09,16.09,0,0,0,6.1-8.41c1.59-4.81.63-10.34-2.62-15.17a21.45,21.45,0,0,1-3.71-11.94c0-12.71,11.51-23,25.65-23s25.56,10.33,25.56,23a21.3,21.3,0,0,1-3.71,11.94c-3.32,4.89-4.27,10.44-2.62,15.24a15.32,15.32,0,0,0,6,8.34l4.53,3h59.36a.5.5,0,0,1,.5.5V432.28a.52.52,0,0,1-.5.5Zm-16.49-72.29a15.73,15.73,0,0,1,5,.82,16.83,16.83,0,0,1,8.84,6.51l3.08,4.65a.5.5,0,0,1,.08.27v59H514.8V254.37h-59a.54.54,0,0,1-.28-.08l-4.65-3.08a16.28,16.28,0,0,1-6.42-8.85c-1.75-5.09-.75-11,2.74-16.12a20.38,20.38,0,0,0,3.54-11.38c0-12.16-11-22-24.56-22s-24.65,9.88-24.65,22a20.52,20.52,0,0,0,3.58,11.42c3.41,5.08,4.41,10.92,2.73,16a17.07,17.07,0,0,1-6.5,8.93l-4.65,3.07a.54.54,0,0,1-.28.08h-59v59a.5.5,0,0,1-.08.27l-3.08,4.65a17.38,17.38,0,0,1-8.92,6.5c-5.12,1.68-11,.69-16.05-2.73a19.81,19.81,0,0,0-11.39-3.54c-12.1,0-22,11-22,24.56s9.86,24.64,22,24.64a20.31,20.31,0,0,0,11.39-3.54A19.85,19.85,0,0,1,320.36,360.55Z"/><path id="el1fxc3b3i3wg" class="cls-1" d="M297.84,318a20.74,20.74,0,0,1,11.66,3.63c4.58,3.15,10.33,4.49,15.69,2.76a17.18,17.18,0,0,0,8.59-6.31l3.07-4.65v-59.5h-59.5l-4.65-3.08a16.4,16.4,0,0,1-6.31-8.59c-1.81-5.28-.39-11,2.76-15.68a20.85,20.85,0,0,0,3.63-11.67c0-12.45-11.27-22.46-25.15-22.46s-25.06,10-25.06,22.46a20.27,20.27,0,0,0,3.63,11.67c3.07,4.57,4.41,10.32,2.68,15.6a17,17,0,0,1-6.31,8.67l-4.65,3.08h-59.5V432.34H336.85v-59.5l-3.07-4.65a16.52,16.52,0,0,0-8.67-6.31c-5.36-1.73-11-.39-15.68,2.68a20.59,20.59,0,0,1-11.59,3.63c-12.45,0-22.54-11.19-22.54-25.07S285.39,318,297.84,318Z"/><path id="eliourhjl99bc" class="cls-2" d="M336.85,432.84H158.42a.5.5,0,0,1-.5-.5V253.9a.5.5,0,0,1,.5-.5h59.35l4.53-3a16.42,16.42,0,0,0,6.1-8.41c1.58-4.81.63-10.34-2.62-15.16a20.83,20.83,0,0,1-3.71-12c0-12.66,11.47-23,25.56-23s25.65,10.3,25.65,23a21.41,21.41,0,0,1-3.71,12c-3.35,4.93-4.33,10.49-2.7,15.24a15.85,15.85,0,0,0,6.1,8.33l4.53,3h59.35a.5.5,0,0,1,.5.5v59.51a.54.54,0,0,1-.08.28l-3.07,4.65a17.55,17.55,0,0,1-8.84,6.5c-5.22,1.69-11.1.66-16.14-2.82a20.38,20.38,0,0,0-11.38-3.54c-12.15,0-22,11.06-22,24.64s9.89,24.57,22,24.57a20.29,20.29,0,0,0,11.31-3.54c5.13-3.4,11-4.4,16.11-2.74a17,17,0,0,1,8.93,6.5l3.08,4.65a.54.54,0,0,1,.08.28v59.5a.5.5,0,0,1-.5.5Zm-177.93-1H336.35V373l-3-4.53a16.06,16.06,0,0,0-8.4-6.1c-4.82-1.56-10.38-.61-15.26,2.62a21.25,21.25,0,0,1-11.86,3.71c-12.7,0-23-11.47-23-25.57s10.34-25.64,23-25.64a21.37,21.37,0,0,1,11.94,3.71c4.79,3.3,10.35,4.29,15.25,2.7a16.52,16.52,0,0,0,8.34-6.11l3-4.52V254.4h-59a.46.46,0,0,1-.28-.08l-4.66-3a16.93,16.93,0,0,1-6.5-8.85c-1.73-5.05-.71-10.93,2.82-16.12a20.41,20.41,0,0,0,3.54-11.39c0-12.11-11.06-22-24.65-22s-24.56,9.85-24.56,22a19.73,19.73,0,0,0,3.56,11.36c3.42,5.09,4.42,10.94,2.74,16.05a17.56,17.56,0,0,1-6.5,8.93l-4.67,3a.46.46,0,0,1-.28.08h-59Z"/></g><g id="freepik--Character--inject-64"><path id="ellfo5z2mc6fm" class="cls-1" d="M278.63,37.7a20.87,20.87,0,0,0-7.81,9.39c-2.17,5.07-6.27,9.32-11.64,10.74a16.27,16.27,0,0,1-10.75-.55l-5.11-2.23L211.41,5.81,61.68,102.88l96.69,149,49.79-32.28,2.3-5.15a17,17,0,0,0,.57-10.71c-1.42-5.37-5.67-9.47-10.8-11.59a20.75,20.75,0,0,1-9.39-7.81c-6.78-10.45-2.77-25,8.87-32.53S226.26,146.53,233,157a20.83,20.83,0,0,1,3.3,11.76c-.11,5.62,1.83,11.22,6.22,14.66a16.72,16.72,0,0,0,9.9,3.82h5.64L308,154.85l-32.39-50,.05-5.58a16,16,0,0,1,3.82-9.9c3.44-4.39,9-6.4,14.61-6.28a20.67,20.67,0,0,0,11.76-3.3c10.39-6.73,12.76-21.61,5.22-33.25S289,31,278.63,37.7Z"/><path id="el8k2wr67aeg" class="cls-2" d="M158.37,252.34a.5.5,0,0,1-.42-.23l-96.68-149a.44.44,0,0,1-.07-.37.47.47,0,0,1,.21-.32l149.72-97a.5.5,0,0,1,.69.14l31.81,49.1,5,2.17a15.72,15.72,0,0,0,10.37.54c4.9-1.29,9-5.1,11.31-10.45a21.32,21.32,0,0,1,8-9.61h0c10.62-6.89,25.52-2.84,33.22,9s5.26,27.06-5.36,34a21.08,21.08,0,0,1-12,3.38c-5.91-.13-11.09,2.1-14.22,6.09a15.39,15.39,0,0,0-3.71,9.59l-.05,5.43,32.29,49.8a.51.51,0,0,1,.07.38.55.55,0,0,1-.22.32L258.4,187.64a.5.5,0,0,1-.27.08h-5.64a17.13,17.13,0,0,1-10.21-3.92c-4.2-3.3-6.54-8.79-6.41-15.07a20.34,20.34,0,0,0-3.24-11.52c-6.59-10.16-21.22-12.41-32.62-5s-15.32,21.67-8.73,31.83a20.31,20.31,0,0,0,9.16,7.63c5.67,2.34,9.71,6.69,11.09,11.93a17.42,17.42,0,0,1-.59,11l-2.3,5.16a.51.51,0,0,1-.19.22l-49.82,32.3A.58.58,0,0,1,158.37,252.34ZM62.37,103l96.14,148.12,49.24-31.93,2.24-5a16.44,16.44,0,0,0,.54-10.39c-1.29-4.92-5.13-9-10.51-11.25a21.32,21.32,0,0,1-9.61-8c-6.89-10.63-2.84-25.53,9-33.22s27.12-5.31,34,5.32a21.32,21.32,0,0,1,3.38,12c-.12,6,2.08,11.16,6,14.26a16.11,16.11,0,0,0,9.6,3.71h5.48l49.39-32-32.1-49.51a.46.46,0,0,1-.08-.28l.05-5.57a16.33,16.33,0,0,1,3.93-10.21c3.32-4.24,8.8-6.61,15-6.47a20,20,0,0,0,11.57-3.2c10.16-6.59,12.44-21.2,5.07-32.56S289,31.53,278.86,38.12h0a20.31,20.31,0,0,0-7.63,9.16c-2.41,5.63-6.77,9.65-12,11a16.69,16.69,0,0,1-11-.6l-5.1-2.23a.49.49,0,0,1-.22-.18L211.27,6.47Z"/></g></svg>