<svg xmlns="http://www.w3.org/2000/svg" viewBox="0 0 500 500"><g id="freepik--Character--inject-35"><g id="freepik--character--inject-35"><g id="freepik--Bottom--inject-35"><g id="freepik--bottom--inject-35"><polygon points="189.75 361.34 193.16 359.6 189.75 358.7 189.75 361.34" style="fill:#263238"></polygon><path d="M223.89,367.16s-40.79-17.74-41.25-15a4.11,4.11,0,0,0,.05,1.65l-.11-.15.83,5.11a12,12,0,0,0,6.34,2.55V358.7a21,21,0,0,1,3.61,1.85c2.62,1.69,4.34,4.68,7.15,8.15,2.05,2.53,5.64,3.66,11,4.34,5.72.72,10.73-.46,12.12-2C224.7,369.77,224.1,367.52,223.89,367.16Z" style="fill:#263238"></path><path d="M222.75,366.23c-.39-.4-1.86-2-3.84-3.69-1.74-1.5-3.76-3.39-5.93-4.92a22.68,22.68,0,0,1-2.94-2.36,30.52,30.52,0,0,1-2-2.35,44.85,44.85,0,0,1-5-8.26c-.66-1.38-1.86-4.43-1.62-10.11.36-8.61,1-11.73,1-17.32l-19.27,3c.62,3.09,1.33,10,1.68,13.51.54,5.35,1.33,5.85-.67,11.23-.58,1.58-1.47,3.11-1.52,4.8-.09,2.74,2.09,5.07,4.5,6.38,2,1.08,4.3,1.52,6.24,2.67a19.88,19.88,0,0,1,5.12,4.9c1.39,1.73,2.52,3.79,4.45,5a17.71,17.71,0,0,0,6.63,2.19,35.36,35.36,0,0,0,8.87.31C222.53,370.76,225.64,369.18,222.75,366.23Z" style="fill:#ffa8a7"></path><path d="M220.38,363.28c-1.76-1.45-4.27-3.53-7.29-5.86a7.59,7.59,0,0,0-6.28.68c-6,3.27-6.91,7.8-6.91,7.8a8.68,8.68,0,0,0,5,4.24c7,2.94,19.42,1.78,19.49-1.44C224.41,366.64,222.53,365,220.38,363.28Zm-36-19.53s-.39,1.06-1.42,3.15a5.87,5.87,0,0,0,.16,6.21,9.28,9.28,0,0,0,6.16,4.07C191.14,351,186.85,345,184.41,343.75Z" style="fill:#37474f"></path><path d="M149.47,359.46c1.11,1.86-.51,8.78-.35,13.73.15,4.5.93,11.52-.28,16.76s-5.83,11-11.91,5.94c-3.77-3.13-5.25-6.85-5.64-13.32-.28-4.5,1.64-10.69,3.29-16.17,1.93-6.4,2.68-9.83,2.68-9.83Z" style="fill:#263238"></path><path d="M137.43,326.07c-.65,10.47.43,17.85.37,24.56a48.3,48.3,0,0,1-1.14,9.05c-1,4.26-2.57,10.18-3.26,12.95-1,3.86-1.67,6.29-.41,10.66a5.35,5.35,0,0,0,.42,1c1.8,3.62,6.5,6.43,8,6a2.6,2.6,0,0,0,2.66,1,3.22,3.22,0,0,0,.5-.11,3.28,3.28,0,0,0,.52-.2,5.2,5.2,0,0,0,2.6-3.24c.09-.29.18-.61.26-.94,1.21-5.38.48-8.89.42-11-.08-2.44.13-5.54.42-9.47s1.47-16.25,2.95-22.12c1.1-4.1,2.47-9.25,3.91-14.73Z" style="fill:#ffa8a7"></path><path d="M132.37,377.66c3.79-1.58,14.67-1.6,16.3,3.73,0,5-.09,8.37-3.32,12.64-4.3,5.69-9.64-.53-11.66-4.46S131.81,380.33,132.37,377.66Z" style="fill:#37474f"></path><path d="M155.5,178.55c-5.49,9.39-12.88,22.45-13.57,43.73-.91,28.36-1.5,48.67-1.7,52.09s-2.54,9.64-4.74,26.44.2,48.92.2,48.92,1.89,3.82,8.31,4.57c5.93.7,8.71-2.08,8.71-2.08s9.39-45,11.92-55.05S175.78,243,175.78,243l3.15,27.16s-2.06,9.25-.65,24.07,6.1,43.41,6.1,43.41,2.69,2.84,9,2.59a12.81,12.81,0,0,0,8.67-3.42s5.53-56.43,6-73.17,0-58.55-4.61-83.48Z" style="fill:#37474f"></path><path d="M181,216.18,175.78,243l3.15,27.16.11-25.78,5.13-25.53c4.06-.86,14.51-7.93,15.4-14.73C193.93,212.93,181,216.18,181,216.18Zm-30.2,100.71q-2.53,13-4.72,26.16,3.21-12.9,6.08-25.88c1.94-8.65,3.77-17.28,5.59-26s3.92-28.48,4.89-37.29,1.75-17.64,2.4-26.48c-1.34,8.76-2.55,17.54-3.77,26.31s-3.54,28.46-5.27,37.11S152.4,308.19,150.75,316.89Zm49.55-62.82c.07,3.84.2,7.71,0,11.51s-.52,7.66-.82,11.5l-.89,11.54q-.92,11.53-1.55,23.1,1.68-11.46,2.93-23c.84-7.68,1.64-15.34,2.11-23.1.19-7.8-.26-15.49-.74-23.21s-1.23-15.4-2.21-23.06l.82,23.13C200.09,246.37,200.23,250.22,200.3,254.07Z" style="fill:#263238"></path></g></g><g id="freepik--Top--inject-35"><path d="M158.32,83.17c-5.48,2.93-6,7.48-6.31,18.57-.5,20.11-6.66,43-6.66,43l46,.53,2.48-46s4.07-4.93,3.89-10.23-3.08-12.35-12.83-14.91C176.76,72,161,72.81,158.32,83.17Z" style="fill:#263238"></path><path d="M245.14,140.45c-2.53-11.22-8.92-26.73-11.9-34.1A72,72,0,0,1,231,98a27.25,27.25,0,0,0-3.17-8.82A20.39,20.39,0,0,0,222.89,83a1.9,1.9,0,0,0-2.36-.31A5.72,5.72,0,0,0,218.08,81a8.28,8.28,0,0,0-2.39-.14,4,4,0,0,1-2.84-1.72,4,4,0,0,0-1.33-1.1c-.89-.33-1.31.27-1.5,1a5.31,5.31,0,0,0,.29,3.24,33.71,33.71,0,0,0,2.57,4.48c1.31,2.37,3.26,5.37,3.15,8.13,0,.56-.23,1.72-.93,1A22.73,22.73,0,0,0,212.25,93a4.81,4.81,0,0,0-3.76-1.11,1.64,1.64,0,0,0-1.06.57c-.34.47-.12.79.16,1.15a11,11,0,0,1,.77,1.23q.73,1.29,1.5,2.58c3,5,4.31,7.09,8.6,10.48.67.54,2.82,1.79,4.36,6.18s2.67,18.31,2.67,18.31-2-.45-14.94-3.57a129,129,0,0,0-20.26-3.47l9.2,21.9s15.23,2.78,30.26,5.15C241.23,154.22,248.19,153.92,245.14,140.45Z" style="fill:#ffa8a7"></path><path d="M224.57,124.38,224,120a13.23,13.23,0,0,0,7.62.5c4.56-.92,6.41-3,6.41-3l1.44,3.65a21.48,21.48,0,0,1-7.22,3A21.22,21.22,0,0,1,224.57,124.38Z" style="fill:#f0f0f0"></path><path d="M190.56,125.16c6.26.31,12.27,1.41,21.19,3.48,7.95,1.85,13.48,3.34,13.48,3.34l-1-9.32s2.68,1.72,8.16.75,6.89-3.27,6.89-3.27,5.64,15.27,6.9,22.63c1.12,6.52-.57,12.23-9.47,11.44-10.93-1-39-5.93-39-5.93Z" style="fill:#00843D"></path><path d="M225.23,132c.44,6.07,1.66,10.64,3.88,13.31-3.8-2.08-6.18-8-6.35-14Z" style="opacity:0.15"></path><g id="freepik--Telescope--inject-35"><path d="M201.65,92.05a2.41,2.41,0,0,0-1.52,1.57,4.14,4.14,0,0,0,1.78,4.62,2.7,2.7,0,0,0,2.22.35l2.59-.89a2.39,2.39,0,0,0,1.52-1.57,4.15,4.15,0,0,0-1.78-4.63,2.68,2.68,0,0,0-2.23-.34Z" style="fill:#fafafa"></path><path d="M201.65,92.05a2.41,2.41,0,0,0-1.52,1.57,4.14,4.14,0,0,0,1.78,4.62,2.7,2.7,0,0,0,2.22.35l2.59-.89a2.39,2.39,0,0,0,1.52-1.57,4.15,4.15,0,0,0-1.78-4.63,2.68,2.68,0,0,0-2.23-.34Z" style="fill:#00843D"></path><path d="M201.65,92.05a2.41,2.41,0,0,0-1.52,1.57,4.14,4.14,0,0,0,1.78,4.62,2.7,2.7,0,0,0,2.22.35l2.59-.89a2.39,2.39,0,0,0,1.52-1.57,4.15,4.15,0,0,0-1.78-4.63,2.68,2.68,0,0,0-2.23-.34Z" style="fill:#fff;opacity:0.25"></path><path d="M204.47,97.37a2.44,2.44,0,0,0,3.77-1.24,4.15,4.15,0,0,0-1.78-4.63,2.44,2.44,0,0,0-3.77,1.24A4.15,4.15,0,0,0,204.47,97.37Z" style="fill:#00843D"></path><path d="M204.86,91.46a2.05,2.05,0,0,0-1.31,1.35,3.56,3.56,0,0,0,1.53,4,2.32,2.32,0,0,0,1.9.3l21.74-6.14c.59-.19.83-1.65,1.07-2.35a3.56,3.56,0,0,0-1.53-4c-.65-.4-1.79-1.41-2.37-1.22C225.7,83.46,205,91.4,204.86,91.46Z" style="fill:#263238"></path><g id="freepik--Lens--inject-35"><path d="M220.2,82.89a4.19,4.19,0,0,0-2.68,2.77,7.31,7.31,0,0,0,3.14,8.16,4.73,4.73,0,0,0,3.9.61c.4-.12,42.11-11.76,42.49-11.88,1.2-.39,1.71-3.41,2.2-4.84a7.3,7.3,0,0,0-3.14-8.15c-1.33-.82-3.69-2.9-4.89-2.52C260.83,67.17,220.57,82.76,220.2,82.89Z" style="fill:#e0e0e0"></path><path d="M262,81.67c3.63,2.21,7.63.9,8.93-2.94s-.58-8.73-4.21-10.94-7.63-.9-8.93,2.93S258.36,79.45,262,81.67Z" style="fill:#e0e0e0"></path></g><path d="M261.47,82.32a7.52,7.52,0,0,0,3.95,1.17h.33l2.06-.06h-.15l-.28,0c-.19,0-.4,0-.6-.07a8.71,8.71,0,0,1-3.13-1.17,10.92,10.92,0,0,1-1.45-1.08c-3.31-2.91-4.87-7.86-3.51-11.83a7.24,7.24,0,0,1,1.58-2.69l.14-.15a.86.86,0,0,1,.14-.13l0,0,.3-.26.11-.09-1.72,1.23h0c-.16.11-.31.24-.46.36a6.78,6.78,0,0,0-1.9,2.91,10.66,10.66,0,0,0,3.62,11.23L261,82l.05,0Z" style="fill:#263238"></path><path d="M271.22,80c4.52,2.75,9.51,1.12,11.13-3.66s-.72-10.88-5.25-13.64S267.6,61.6,266,66.38,266.69,77.26,271.22,80Z" style="fill:#00843D"></path><path d="M263.47,82.56A9.33,9.33,0,0,0,266,83.65a15.59,15.59,0,0,0,1.91.24c.16,0,.77,0,.92,0l.45-.07a5.87,5.87,0,0,0,.75-.18h0l.06,0,.11,0,.06,0,7.43-2.44-.18,0s0,0,0,0l-.22,0a3.86,3.86,0,0,1-.49.09,6.62,6.62,0,0,1-.66.08A8.47,8.47,0,0,1,271.23,80a9.92,9.92,0,0,1-1.3-.93c-3.66-3-5.41-8.41-3.95-12.71a7.49,7.49,0,0,1,2.47-3.57l.33-.24,0,0,.33-.21.35-.19a2.1,2.1,0,0,1,.3-.15l.26-.11.26-.1-7.44,2.44h0l-.34.11a7.14,7.14,0,0,0-4.29,4.59c-1.39,4.1.14,9.18,3.46,12.28.16.15.32.3.51.45A11.42,11.42,0,0,0,263.47,82.56Z" style="fill:#fafafa"></path><path d="M284.2,60.78c4.29,2.61,6.51,8.38,5,12.9a7.23,7.23,0,0,1-2.06,3.16A6.4,6.4,0,0,1,285,78.08h0l-6.2,2.07-.15.06a7,7,0,0,1-.91.2,7.73,7.73,0,0,1-5.31-1.18c-4.28-2.61-6.51-8.38-5-12.9a6.84,6.84,0,0,1,3.32-4,6.51,6.51,0,0,1,.76-.34h0l.3-.1,6.08-2h0A7.51,7.51,0,0,1,284.2,60.78Z" style="fill:#ebebeb"></path><path d="M275.63,59.89a7.1,7.1,0,0,0-4.49,4.65c-1.63,4.78.72,10.89,5.25,13.65a8,8,0,0,0,6.53,1c.67-.21,4.95-1.71,5.57-1.92A7.06,7.06,0,0,0,293,72.66c1.63-4.78-.72-10.89-5.25-13.65a7.93,7.93,0,0,0-6.57-1C280.51,58.2,276.25,59.69,275.63,59.89Z" style="fill:#fafafa"></path><path d="M263.47,82.56A9.33,9.33,0,0,0,266,83.65a15.59,15.59,0,0,0,1.91.24c.16,0,.77,0,.92,0l.45-.07a5.87,5.87,0,0,0,.75-.18h0l.06,0,.11,0,.06,0,7.43-2.44-.18,0s0,0,0,0l-.22,0a3.86,3.86,0,0,1-.49.09,6.62,6.62,0,0,1-.66.08A8.47,8.47,0,0,1,271.23,80a9.92,9.92,0,0,1-1.3-.93c-3.66-3-5.41-8.41-3.95-12.71a7.49,7.49,0,0,1,2.47-3.57l.33-.24,0,0,.33-.21.35-.19a2.1,2.1,0,0,1,.3-.15l.26-.11.26-.1-7.44,2.44h0l-.34.11a7.14,7.14,0,0,0-4.29,4.59c-1.39,4.1.14,9.18,3.46,12.28.16.15.32.3.51.45A11.42,11.42,0,0,0,263.47,82.56Z" style="fill:#00843D"></path><path d="M263.47,82.56A9.33,9.33,0,0,0,266,83.65a15.59,15.59,0,0,0,1.91.24c.16,0,.77,0,.92,0l.45-.07a5.87,5.87,0,0,0,.75-.18h0l.06,0,.11,0,.06,0,7.43-2.44-.18,0s0,0,0,0l-.22,0a3.86,3.86,0,0,1-.49.09,6.62,6.62,0,0,1-.66.08A8.47,8.47,0,0,1,271.23,80a9.92,9.92,0,0,1-1.3-.93c-3.66-3-5.41-8.41-3.95-12.71a7.49,7.49,0,0,1,2.47-3.57l.33-.24,0,0,.33-.21.35-.19a2.1,2.1,0,0,1,.3-.15l.26-.11.26-.1-7.44,2.44h0l-.34.11a7.14,7.14,0,0,0-4.29,4.59c-1.39,4.1.14,9.18,3.46,12.28.16.15.32.3.51.45A11.42,11.42,0,0,0,263.47,82.56Z" style="fill:#fff;opacity:0.25"></path><path d="M284.2,60.78c4.29,2.61,6.51,8.38,5,12.9a7.23,7.23,0,0,1-2.06,3.16A6.4,6.4,0,0,1,285,78.08h0l-6.2,2.07-.15.06a7,7,0,0,1-.91.2,7.73,7.73,0,0,1-5.31-1.18c-4.28-2.61-6.51-8.38-5-12.9a6.84,6.84,0,0,1,3.32-4,6.51,6.51,0,0,1,.76-.34h0l.3-.1,6.08-2h0A7.51,7.51,0,0,1,284.2,60.78Z" style="fill:#00843D"></path><path d="M284.2,60.78c4.29,2.61,6.51,8.38,5,12.9a7.23,7.23,0,0,1-2.06,3.16A6.4,6.4,0,0,1,285,78.08h0l-6.2,2.07-.15.06a7,7,0,0,1-.91.2,7.73,7.73,0,0,1-5.31-1.18c-4.28-2.61-6.51-8.38-5-12.9a6.84,6.84,0,0,1,3.32-4,6.51,6.51,0,0,1,.76-.34h0l.3-.1,6.08-2h0A7.51,7.51,0,0,1,284.2,60.78Z" style="fill:#fff;opacity:0.15"></path><path d="M275.63,59.89a7.1,7.1,0,0,0-4.49,4.65c-1.63,4.78.72,10.89,5.25,13.65a8,8,0,0,0,6.53,1c.67-.21,4.95-1.71,5.57-1.92A7.06,7.06,0,0,0,293,72.66c1.63-4.78-.72-10.89-5.25-13.65a7.93,7.93,0,0,0-6.57-1C280.51,58.2,276.25,59.69,275.63,59.89Z" style="fill:#00843D"></path><path d="M275.63,59.89a7.1,7.1,0,0,0-4.49,4.65c-1.63,4.78.72,10.89,5.25,13.65a8,8,0,0,0,6.53,1c.67-.21,4.95-1.71,5.57-1.92A7.06,7.06,0,0,0,293,72.66c1.63-4.78-.72-10.89-5.25-13.65a7.93,7.93,0,0,0-6.57-1C280.51,58.2,276.25,59.69,275.63,59.89Z" style="fill:#fff;opacity:0.25"></path><path d="M281.84,76.31c4.53,2.76,9.52,1.13,11.14-3.65s-.72-10.89-5.25-13.65-9.51-1.13-11.14,3.65S277.31,73.55,281.84,76.31Z" style="fill:#00843D"></path><path d="M289.64,75.38c-2.11,1.85-4.85.52-5.93-.14-4.22-2.57-6.5-8.5-5-12.95a6,6,0,0,1,1.67-2.64c2.11-1.84,4.85-.51,5.93.15,4.21,2.56,6.49,8.49,5,12.94a6,6,0,0,1-1.67,2.64Z" style="opacity:0.2"></path><path d="M283.7,60.67a7.14,7.14,0,0,0-3.23-1.08l-.07.06a6,6,0,0,0-1.67,2.64c-1.52,4.45.76,10.38,5,12.95a7.17,7.17,0,0,0,3.22,1.08l.08-.06a6.12,6.12,0,0,0,1.67-2.64C290.19,69.17,287.91,63.24,283.7,60.67Z" style="fill:#00843D"></path><path d="M283.7,60.67a7.14,7.14,0,0,0-3.23-1.08l-.07.06a6,6,0,0,0-1.67,2.64c-1.52,4.45.76,10.38,5,12.95a7.17,7.17,0,0,0,3.22,1.08l.08-.06a6.12,6.12,0,0,0,1.67-2.64C290.19,69.17,287.91,63.24,283.7,60.67Z" style="fill:#fff;opacity:0.6000000000000001"></path><path d="M278.67,62.47c-1.39,4.43.88,10.23,5,12.77h0A4.7,4.7,0,0,0,287.18,72a8.17,8.17,0,0,0-3.51-9.1A5.14,5.14,0,0,0,278.67,62.47Z" style="fill:#00843D;opacity:0.1"></path><path d="M278.31,66.23a12.55,12.55,0,0,0,2.51,6.38,3,3,0,0,0,4.41-1.78A5.26,5.26,0,0,0,283,65,3.08,3.08,0,0,0,278.31,66.23Z" style="fill:#00843D;opacity:0.2"></path><path d="M279.62,64.89c-.42-2.43,1.11-4.26,2.08-4.21S289,64.54,288,72.07c0,0-.17-4.79-3.05-7.92C282.23,61.19,279.77,62.53,279.62,64.89Z" style="fill:#fff;opacity:0.6000000000000001"></path><path d="M262.19,81.65h0l7.72-2.57h0l1-.92,3.78-1.26.51.45,5.51-1.84a10,10,0,0,0,1.15.81l.43.25a8.51,8.51,0,0,0,3.67,1.08,7,7,0,0,0,2.26-.24l-.06,0c-1.2.41-4.63,1.61-5.22,1.8a6.9,6.9,0,0,1-2.28.29l-.44.15a6.61,6.61,0,0,1-3,1.52l.09,0,.22,0s0,0,0,0l.18,0-7.43,2.44-.06,0-.11,0-.06,0h0a5.87,5.87,0,0,1-.75.18l-.45.07c-.15,0-.76.06-.92,0a15.59,15.59,0,0,1-1.91-.24h0a8.73,8.73,0,0,1-1.9-.73,6.61,6.61,0,0,1-.63-.35A11.42,11.42,0,0,1,262.19,81.65Z" style="opacity:0.1"></path></g><path id="freepik--Chest--inject-35" d="M149.44,189.09c.59-4.32,3.6-5,2.14-15.25-.73-5.1-3.29-18.29-3.29-18.29s8.77-6.76,6-26.48l9.43-3.8,5.14-1.81,14.38.6,7.38,2c2.53,2.18,7.16,5.61,10.89,10.87,5.38,7.6,6.35,16,.85,22.21-.06,1.22.16,20,1.58,24.59.56,1.82,1.33,4.29.14,6.73C198.75,199.17,167.37,208,149.44,189.09Z" style="fill:#fafafa"></path><path d="M183.2,124.06l7.36,1.1c7.07,5.34,15.49,15,16,22.41a20,20,0,0,1-3.3,12.43s-.1,15.09,1.62,23.05,3.64,29.3,3.64,29.3.15,1.33-5.76,3c-1.82-10.22-6.3-47.72-6.05-56.72S197.08,135.4,183.2,124.06Z" style="fill:#00843D"></path><path d="M183.2,124.06l7.36,1.1c7.07,5.34,15.49,15,16,22.41a20,20,0,0,1-3.3,12.43s-.1,15.09,1.62,23.05,3.64,29.3,3.64,29.3.15,1.33-5.76,3c-1.82-10.22-6.3-47.72-6.05-56.72S197.08,135.4,183.2,124.06Z" style="opacity:0.30000000000000004"></path><path d="M197.78,162.81c.58-2.39,1.22-4.76,1.87-7.13s1.27-4.75,1.86-7.12a28.37,28.37,0,0,0,.68-3.57c.18-1.13-.62-2.07-1.42-3a33.77,33.77,0,0,0-5.65-4.56l-.19-.12,0-.22a11.67,11.67,0,0,0,0-3.91,10,10,0,0,0-1.35-3.67,11.63,11.63,0,0,0-2.77-2.83,18.26,18.26,0,0,0-3.47-2A16.6,16.6,0,0,1,191,126.5a10.91,10.91,0,0,1,3,2.8,10.61,10.61,0,0,1,1.57,3.81,11.57,11.57,0,0,1,.08,4.15l-.15-.35a32.49,32.49,0,0,1,5.84,4.63,8.13,8.13,0,0,1,1.15,1.54,2.35,2.35,0,0,1,.22.45,1.62,1.62,0,0,1,.15.5,3.22,3.22,0,0,1,0,1,29.26,29.26,0,0,1-.73,3.66c-.6,2.39-1.36,4.74-2.08,7.09S198.54,160.47,197.78,162.81Z" style="opacity:0.2"></path><path d="M163.68,125.27s3.1,4,7.2,13.35,8.05,17.89,8,26.57S176,218.74,176,218.74s-12.44,1.88-23.71-2.66l.92-17.38-4.27,16.56s-5.39-1.93-7.38-3.73c2.94-18.07,9.51-26.65,9.84-33.32.22-4.58-3.67-17.28-4.41-28.73a87.85,87.85,0,0,1,1.37-20Z" style="fill:#00843D"></path><path d="M163.68,125.27s3.1,4,7.2,13.35,8.05,17.89,8,26.57S176,218.74,176,218.74s-12.44,1.88-23.71-2.66l.92-17.38-4.27,16.56s-5.39-1.93-7.38-3.73c2.94-18.07,9.51-26.65,9.84-33.32.22-4.58-3.67-17.28-4.41-28.73a87.85,87.85,0,0,1,1.37-20Z" style="opacity:0.30000000000000004"></path><path d="M177.22,167.77a20,20,0,0,0-3.42-6c-1.4-1.85-2.93-3.59-4.49-5.3-.78-.86-1.57-1.71-2.36-2.55l-1.2-1.27c-.2-.23-.4-.42-.6-.68a1.16,1.16,0,0,1-.16-.2,2,2,0,0,1-.15-.33,2.38,2.38,0,0,1-.06-.58,10.43,10.43,0,0,1,1.21-3.46c.55-1,1.15-2.06,1.79-3.06l.06.58-3.56-3.59-1.77-1.81-.44-.46-.22-.23a1.71,1.71,0,0,1-.3-.36,2,2,0,0,1-.09-.8c0-.22,0-.44.07-.66a39.16,39.16,0,0,1,1.21-5c.5-1.63,1-3.24,1.59-4.84-.4,1.65-.82,3.29-1.19,4.94s-.76,3.31-.94,4.95a3.29,3.29,0,0,0,0,1.06c-.06-.08,0,.05.12.11l.23.22.46.44,1.83,1.78,3.65,3.57.26.25-.2.33c-.61,1-1.18,2-1.7,3a10.32,10.32,0,0,0-1.15,3.07,2,2,0,0,0,0,.27.11.11,0,0,1,0,.07s.07.1.11.15c.15.2.36.42.55.63l1.18,1.29c.78.86,1.56,1.72,2.33,2.6a70.05,70.05,0,0,1,4.3,5.54,27.65,27.65,0,0,1,1.8,3A12.53,12.53,0,0,1,177.22,167.77Z" style="opacity:0.2"></path><g id="freepik--Head--inject-35"><g id="freepik--head--inject-35"><g id="freepik--head--inject-35"><path d="M163.36,112.69a5.93,5.93,0,0,1-5.53-1.43c-3.14-2.76-3.76-5.86-2.69-8.1.88-1.83,3.4-3.23,5.38-2.27s2.29,2,3.2,3.33,2.7,0,1.42-5.55c3.64-2.24,2.3-8.61,4.08-11.47,2.79-4.48,8.27-4,10.12-3.24a7,7,0,0,1,7.24-1.29c2.74,1.09,4.78,3.81,6.82,13.71,2.08,10.09,1.08,17.09-1,19.52-1.45,1.67-5.12,3.21-8.73,3.41l-.43,5.55s11.93,9.35-1.39,9.86c-10,.38-17.24-9.77-17.24-9.77l.79-14.11S165.3,112.09,163.36,112.69Z" style="fill:#ffa8a7"></path></g><path d="M176.34,94.11,172.75,96a2.13,2.13,0,0,1,.88-2.82A2,2,0,0,1,176.34,94.11Z" style="fill:#263238"></path><path d="M190.68,91.19l-4.06-.61a2,2,0,0,1,2.26-1.75A2.17,2.17,0,0,1,190.68,91.19Z" style="fill:#263238"></path><path d="M178.13,107.73l5.76.87a2.8,2.8,0,0,1-3.21,2.5A3.07,3.07,0,0,1,178.13,107.73Z" style="fill:#b16668"></path><path d="M181.79,111a3,3,0,0,0-3-2.22,2.79,2.79,0,0,0-.58.07,3.06,3.06,0,0,0,2.46,2.21A2.75,2.75,0,0,0,181.79,111Z" style="fill:#f28f8f"></path><path d="M190.41,95.62a1.66,1.66,0,1,1-2.24-.69A1.67,1.67,0,0,1,190.41,95.62Z" style="fill:#263238"></path><path d="M178.68,98.53c.13.33-1-.32-2.09-.16-1.44.2-2.28,1.61-2.14.7a2,2,0,0,1,2-1.78A1.93,1.93,0,0,1,178.68,98.53Z" style="fill:#263238"></path><path d="M182,94.36,184.08,105l5.7-2.39C187.85,98.6,184.51,96.11,182,94.36Z" style="fill:#f28f8f"></path></g><path d="M183.64,119.31c-5.19.38-11.55-.88-13.79-4,1.44,3.48,5.29,4.93,8.29,5.42a24,24,0,0,0,5.36.43Z" style="fill:#f28f8f"></path></g><g id="freepik--Arm--inject-35"><path d="M140.25,215.74c-1.19-1.24-2.7-2.32-3.22-4a3,3,0,0,1,.36-2.63,1.37,1.37,0,0,0,.31-.48,1.25,1.25,0,0,0,0-.47,3.24,3.24,0,0,1,.09-1.95,2,2,0,0,1,1.22-1.08,4.72,4.72,0,0,1,0-3c.36-1.12,1.5-2,2.28-.8a10.67,10.67,0,0,1,.92,1.93,22.61,22.61,0,0,1,1.22,5.2c.23,1.84.78,7.07-2.08,7.38C141.05,215.89,140.42,215.92,140.25,215.74Z" style="fill:#f28f8f"></path><path d="M151,130.49c-11,2.31-12,5.8-18.4,15s-14.35,21.72-16.31,26.16c-2.42,5.5-2.92,7.61,3,13.29,3.07,2.93,7.34,6.4,11.69,10.34,3.44,3.1,7.56,6.39,10.89,9.6a3,3,0,0,1,1.08,3,21.87,21.87,0,0,0-.53,2.23,18.19,18.19,0,0,0,.3,2.92,2.57,2.57,0,0,1-1.11,2.55,2.73,2.73,0,0,1-1.39.19,9.92,9.92,0,0,0,2.72,1.41,4.16,4.16,0,0,0,3-.16c.88-.45,1.54-1.32,2.49-1.62.51-.17,1.07-.15,1.58-.3a2.69,2.69,0,0,0,1.35-.92c.53-.7.73-1.69,1.49-2.13a9.83,9.83,0,0,1,1.19-.41,2.66,2.66,0,0,0,1.43-2,7.31,7.31,0,0,0-.11-2.55,62.21,62.21,0,0,0-1.54-6.72,6.58,6.58,0,0,0-1.13-2.06c-.53-.73-1-1.49-1.62-2.19-3.89-4.75-16.24-20.6-16.24-20.6l13.64-17.88A25.49,25.49,0,0,0,151,130.49Z" style="fill:#ffa8a7"></path><path d="M134.87,175.48c-3.28,3.36-8.48,3.73-10.4,3.66A11,11,0,0,0,136,176.91Z" style="fill:#f28f8f"></path><path d="M127.92,192.57l3.09,2.69a12.06,12.06,0,0,0,7.58-4.36c3.43-4.12,3.17-7.13,3.17-7.13l-3.59-4.06Z" style="fill:#f0f0f0"></path><path d="M151.12,128.69c-7.89,1.73-9.36,2.78-15,10.68s-15.16,23-17.64,26.85-6.17,10.62-4,14,13.86,13.26,13.86,13.26,4-.19,7.85-4.17c4-4.14,3.7-8.38,3.7-8.38l-4.35-5.45s12.17-15.68,14.37-18.58S157,144.21,151.12,128.69Z" style="fill:#00843D"></path><path d="M135.51,175.47c-1.58-1.78-5.43-4.67-8.26-5.16,3-.52,7.37,1.6,9.45,3.54Z" style="opacity:0.15"></path></g></g></g></g></svg>
