<svg version="1.2" xmlns="http://www.w3.org/2000/svg" viewBox="0 0 500 500" width="500" height="500">
	<title>SignUp</title>
	<style>
		.s0 { fill: #f5f5f5 } 
		.s1 { fill: #00843d } 
		.s2 { opacity: .6;fill: #ffffff } 
		.s3 { fill: #ffffff } 
		.s4 { fill: #1a1a1a } 
		.s5 { opacity: .2;fill: #000000 } 
		.s6 { fill: #263238 } 
		.s7 { opacity: .2;fill: #ffffff } 
		.s8 { opacity: .7;fill: #ffffff } 
		.s9 { fill: #e4897b } 
		.s10 { opacity: .4;fill: #ffffff } 
		.s11 { fill: #de5753 } 
	</style>
	<g id="freepik--background-simple--inject-78">
	</g>
	<g id="freepik--Shadow--inject-78">
		<path id="freepik--path--inject-78" fill-rule="evenodd" class="s0" d="m250 427.6c-107.2 0-193.9-5.1-193.9-11.4 0-6.2 86.7-11.3 193.9-11.3 107.2 0 193.9 5.1 193.9 11.3 0 6.3-86.7 11.4-193.9 11.4z"/>
	</g>
	<g id="freepik--Tab--inject-78">
		<path fill-rule="evenodd" class="s1" d="m143 152.8h178.9c4.1 0 7.4 3.3 7.4 7.3v210.7c0 4-3.3 7.3-7.4 7.3h-178.9c-4 0-7.3-3.3-7.3-7.3v-210.7c0-4 3.3-7.3 7.3-7.3z"/>
		<path fill-rule="evenodd" class="s2" d="m143 152.8h178.9c4.1 0 7.4 3.3 7.4 7.3v210.7c0 4-3.3 7.3-7.4 7.3h-178.9c-4 0-7.3-3.3-7.3-7.3v-210.7c0-4 3.3-7.3 7.3-7.3z"/>
		<path fill-rule="evenodd" class="s3" d="m167.1 256.1h130.8v22.4h-130.8z"/>
		<path id="Forma 1 copy 17" fill-rule="evenodd" class="s4" d="m252 242c-2.8 0-5-2.2-5-5 0-2.8 2.2-5 5-5 2.8 0 5 2.2 5 5 0 2.8-2.2 5-5 5z"/>
		<path fill-rule="evenodd" class="s3" d="m167.1 286.8l130.8-0.1v22.4h-130.8z"/>
		<path id="Forma 2" fill-rule="evenodd" class="s1" d="m291 317v6h-120v-6z"/>
		<path fill-rule="evenodd" class="s5" d="m167.1 332h130.8v22.4h-130.8z"/>
		<path fill-rule="evenodd" class="s1" d="m167.1 330.6h130.8v22.4h-130.8z"/>
		<path id="Layer copy" fill-rule="evenodd" class="s1" d="m167.1 330.6h130.8v22.4h-130.8z"/>
		<path fill-rule="evenodd" class="s3" d="m167.1 225.5h130.8v22.4h-130.8z"/>
		<path id="Forma 1 copy 8" fill-rule="evenodd" class="s4" d="m182 211c-2.8 0-5-2.2-5-5 0-2.8 2.2-5 5-5 2.8 0 5 2.2 5 5 0 2.8-2.2 5-5 5z"/>
		<path id="Forma 1 copy 6" fill-rule="evenodd" class="s4" d="m182 211c-2.8 0-5-2.2-5-5 0-2.8 2.2-5 5-5 2.8 0 5 2.2 5 5 0 2.8-2.2 5-5 5z"/>
		<path class="s3" d="m167.1 194.9h130.8v22.4h-130.8zm13.9 15.1c-2.8 0-5-2.2-5-5 0-2.8 2.2-5 5-5 2.8 0 5 2.2 5 5 0 2.8-2.2 5-5 5z"/>
	</g>
	<g id="freepik--Plant--inject-78">
		<path class="s1" d="m117.8 385.3h-0.9c0-1.4 1.2-34.5 6.9-40 5.9-5.8 12.9-0.1 12.9 0l-0.6 0.7c-0.2-0.2-6.3-5.2-11.6 0-5.5 5.2-6.6 38.9-6.7 39.3z"/>
		<path class="s1" d="m117.4 391.9l-1-0.1c0-0.4 3.8-40.1-10.6-56.6l0.7-0.6c14.6 16.8 10.9 56.9 10.9 57.3z"/>
		<path class="s1" d="m117.8 387.7c-0.1-1.9-2.9-46 8.2-56.2l0.6 0.7c-10.7 9.8-7.9 55-7.8 55.4z"/>
		<path class="s1" d="m116.4 387.6c0-0.3-0.3-30-8.2-34.4q-0.5-0.4-1-0.6-0.6-0.2-1.2-0.2-0.6-0.1-1.2 0-0.6 0.1-1.2 0.3c-4.6 1.9-7 10.7-7.1 10.8l-0.9-0.3c0.1-0.3 2.6-9.3 7.7-11.4q0.6-0.2 1.3-0.3 0.7-0.1 1.4-0.1 0.8 0.1 1.4 0.3 0.7 0.3 1.3 0.6c8.3 4.8 8.7 34 8.7 35.3z"/>
		<path class="s1" d="m119.7 387.7c-0.1-1-1.3-23.5 5.1-31.8q2.5-3.3 5.6-3.1c4.5 0.3 8 6.4 8.2 6.7l-0.8 0.5c0-0.1-3.5-6-7.5-6.3-1.7-0.1-3.3 0.8-4.8 2.8-6.1 8-4.9 30.9-4.9 31.1z"/>
		<path class="s1" d="m118.4 390.8l-0.9-0.1c0-0.5 4-54.1-2.6-63.1l0.7-0.5c6.8 9.2 3 61.5 2.8 63.7z"/>
		<path class="s1" d="m101.5 357.1c0 0 4 1.6 2.8 5.1-1.2 3.6-14.1 9.4-14.1 9.4 0 0-5.4-4.9-0.4-13 4.9-8 11.5-4 11.7-1.5z"/>
		<path class="s5" d="m101.5 357.1c0 0 4 1.6 2.8 5.1-1.2 3.6-14.1 9.4-14.1 9.4 0 0-5.4-4.9-0.4-13 4.9-8 11.5-4 11.7-1.5z"/>
		<path class="s1" d="m119.2 350.4c0 0-4.3-0.2-4.6 3.6-0.2 3.7 9.4 14.1 9.4 14.1 0 0 6.9-2.5 5.4-11.9-1.5-9.3-9.1-8.1-10.2-5.8z"/>
		<path class="s5" d="m119.2 350.4c0 0-4.3-0.2-4.6 3.6-0.2 3.7 9.4 14.1 9.4 14.1 0 0 6.9-2.5 5.4-11.9-1.5-9.3-9.1-8.1-10.2-5.8z"/>
		<path class="s1" d="m122.9 332.4c0 0.1-2.9-0.3-2.7-2 0.2-1.8 11.3-6.3 17.8 1 0 0-4.2 7.1-10.2 7.2-6 0.1-4.9-6.1-4.9-6.1z"/>
		<path class="s5" d="m122.9 332.4c0 0.1-2.9-0.3-2.7-2 0.2-1.8 11.3-6.3 17.8 1 0 0-4.2 7.1-10.2 7.2-6 0.1-4.9-6.1-4.9-6.1z"/>
		<path class="s1" d="m117.5 328.2c0 0 2.6 1.2 3.3-0.4 0.8-1.6-6.2-11.3-15.6-8.5 0 0-0.2 8.3 4.8 11.5 5.1 3.3 7.5-2.6 7.5-2.6z"/>
		<path class="s5" d="m117.5 328.2c0 0 2.6 1.2 3.3-0.4 0.8-1.6-6.2-11.3-15.6-8.5 0 0-0.2 8.3 4.8 11.5 5.1 3.3 7.5-2.6 7.5-2.6z"/>
		<path class="s1" d="m131.2 355.7c0 0-2-1.6 0.2-2.4 2.1-0.8 12.7-0.5 12.8 10 0 0-12.3 2-13.8-2-1.6-4 0.8-5.6 0.8-5.6z"/>
		<path class="s5" d="m131.2 355.7c0 0-2-1.6 0.2-2.4 2.1-0.8 12.7-0.5 12.8 10 0 0-12.3 2-13.8-2-1.6-4 0.8-5.6 0.8-5.6z"/>
		<path class="s1" d="m106 332.2c0 0 2-1.6-0.2-2.4-2.1-0.8-12.7-0.6-12.8 9.9 0 0 12.3 2.1 13.8-1.9 1.6-4-0.8-5.6-0.8-5.6z"/>
		<path class="s5" d="m106 332.2c0 0 2-1.6-0.2-2.4-2.1-0.8-12.7-0.6-12.8 9.9 0 0 12.3 2.1 13.8-1.9 1.6-4-0.8-5.6-0.8-5.6z"/>
		<path class="s1" d="m112.6 340.6c0 0 0.1-2-1.4-1.2-1.6 0.9-7.1 6.8-1.4 12.4 0 0 7.7-5.7 6.3-8.7-1.4-2.9-3.5-2.5-3.5-2.5z"/>
		<path class="s5" d="m112.6 340.6c0 0 0.1-2-1.4-1.2-1.6 0.9-7.1 6.8-1.4 12.4 0 0 7.7-5.7 6.3-8.7-1.4-2.9-3.5-2.5-3.5-2.5z"/>
		<path class="s1" d="m133 343.4c0 0-1.2-1.5 0.6-1.7 1.7-0.2 9.6 1.9 7.7 9.7 0 0-9.5-0.7-10-4-0.4-3.3 1.7-4 1.7-4z"/>
		<path class="s5" d="m133 343.4c0 0-1.2-1.5 0.6-1.7 1.7-0.2 9.6 1.9 7.7 9.7 0 0-9.5-0.7-10-4-0.4-3.3 1.7-4 1.7-4z"/>
		<path fill-rule="evenodd" class="s6" d="m102.2 416.7h30.9l4.1-30h-39.2l4.2 30z"/>
		<path fill-rule="evenodd" class="s7" d="m102.2 416.7h30.9l4.1-30h-39.2l4.2 30z"/>
		<path class="s6" d="m141.1 384.2v2.9q0 0.7-0.3 1.3-0.3 0.6-0.8 1.1-0.4 0.5-1.1 0.8-0.6 0.2-1.3 0.2h-40.3q-0.7 0-1.4-0.2-0.6-0.3-1.1-0.8-0.5-0.5-0.7-1.1-0.3-0.6-0.3-1.3v-2.9z"/>
	</g>
	<g id="freepik--speech-bubble--inject-78">
		<path class="s1" d="m398.6 99.3h-28.7c-1.2 0-2.3 0.2-3.4 0.7-1.1 0.4-2 1.1-2.9 1.9-0.8 0.8-1.4 1.8-1.9 2.9-0.4 1-0.6 2.2-0.6 3.4l-0.1 25c0 1.1 0.3 2.3 0.7 3.3 0.5 1.1 1.1 2.1 1.9 2.9 0.9 0.8 1.8 1.5 2.9 1.9 1.1 0.5 2.2 0.7 3.4 0.7h8.4l-2 7.9 8-7.9h14.4c1.1 0 2.3-0.2 3.4-0.7 1-0.4 2-1.1 2.8-1.9 0.8-0.8 1.5-1.8 1.9-2.9 0.5-1 0.7-2.2 0.7-3.4v-24.9c0-1.2-0.2-2.4-0.7-3.4-0.4-1.1-1.1-2.1-1.9-2.9-0.8-0.8-1.8-1.5-2.9-1.9-1.1-0.5-2.2-0.7-3.4-0.7z"/>
		<path class="s8" d="m398.6 99.3h-28.7c-1.2 0-2.3 0.2-3.4 0.7-1.1 0.4-2 1.1-2.9 1.9-0.8 0.8-1.4 1.8-1.9 2.9-0.4 1-0.6 2.2-0.6 3.4l-0.1 25c0 1.1 0.3 2.3 0.7 3.3 0.5 1.1 1.1 2.1 1.9 2.9 0.9 0.8 1.8 1.5 2.9 1.9 1.1 0.5 2.2 0.7 3.4 0.7h8.4l-2 7.9 8-7.9h14.4c1.1 0 2.3-0.2 3.4-0.7 1-0.4 2-1.1 2.8-1.9 0.8-0.8 1.5-1.8 1.9-2.9 0.5-1 0.7-2.2 0.7-3.4v-24.9c0-1.2-0.2-2.4-0.7-3.4-0.4-1.1-1.1-2.1-1.9-2.9-0.8-0.8-1.8-1.5-2.9-1.9-1.1-0.5-2.2-0.7-3.4-0.7z"/>
		<path fill-rule="evenodd" class="s3" d="m384.3 131.7c-6.2 0-11.2-5-11.2-11.2 0-6.1 5-11.1 11.2-11.1 6.1 0 11.1 5 11.1 11.1 0 6.2-5 11.2-11.1 11.2z"/>
		<path class="s1" d="m384.3 106.3c-5.8 0-11 3.5-13.2 8.8-2.2 5.3-1 11.5 3.1 15.5 4.1 4.1 10.2 5.3 15.5 3.1 5.3-2.2 8.8-7.4 8.8-13.1 0-1.9-0.3-3.8-1.1-5.5-0.7-1.7-1.7-3.3-3.1-4.6-1.3-1.4-2.9-2.4-4.6-3.1-1.7-0.7-3.6-1.1-5.4-1.1zm8 10l-8.5 10.1q-0.1 0.1-0.2 0.2-0.2 0.1-0.3 0.2-0.1 0-0.3 0-0.1 0.1-0.2 0.1-0.2 0-0.3-0.1-0.2 0-0.3 0-0.1-0.1-0.2-0.2-0.1-0.1-0.2-0.2l-5.6-6.6c-0.3-0.2-0.4-0.6-0.4-0.9 0.1-0.4 0.2-0.7 0.5-1 0.3-0.2 0.6-0.3 1-0.3 0.3 0.1 0.7 0.3 0.9 0.5l4.6 5.4 7.5-8.9c0.3-0.3 0.6-0.4 0.9-0.4 0.4 0 0.7 0.1 1 0.3 0.2 0.2 0.4 0.5 0.4 0.8 0.1 0.4 0 0.7-0.3 1z"/>
	</g>
	<g id="freepik--Character--inject-78">
		<path class="s1" d="m393.6 253.6c0 0-17.4-2.2-43.8 5 0 0-4.2-47.2-3.7-53.7 0.5-6.4 40.7-4.5 40.7-4.5 0 0 1 18.8 3.7 30.2 2.6 11.4 4.5 20.8 3.1 23z"/>
		<path class="s5" d="m393.6 253.6c0 0-17.4-2.2-43.8 5 0 0-4.2-47.2-3.7-53.7 0.5-6.4 40.7-4.5 40.7-4.5 0 0 1 18.8 3.7 30.2 2.6 11.4 4.5 20.8 3.1 23z"/>
		<path fill-rule="evenodd" class="s9" d="m337.1 409.6l7.1 2 1.7-11 0.9-5.9-7.1-2-1.2 7.9-1.4 9z"/>
		<path fill-rule="evenodd" class="s9" d="m377.9 410.2l7.4 1v-10.6l0.1-6.6-7.3-1-0.1 7.6v9.6z"/>
		<path fill-rule="evenodd" class="s5" d="m378.1 393l-0.1 7.6h7.3l0.1-6.6-7.3-1z"/>
		<path fill-rule="evenodd" class="s5" d="m338.5 400.6h7.4l0.9-5.9-7.1-2-1.2 7.9z"/>
		<path class="s9" d="m305.6 208.8l-7-2.1 1.3 8.1c-0.1 0 6.3 1.4 7-1.9z"/>
		<path fill-rule="evenodd" class="s9" d="m291.5 208.6l3.5 6.5 4.9-0.3-1.3-8.1-7.1 1.9z"/>
		<path fill-rule="evenodd" class="s9" d="m315.3 210.9l-11.5-2.6-1.1 5.6 10.5 2.6 2.1-5.6z"/>
		<path class="s1" d="m350.4 205.8l-0.7 0.8c-1.5 1.7-5 5.8-8.7 9.4-3 2.9-6 5.4-8 5.9-5.7 1.5-26.3-4.6-26.3-4.6l2.2-8.3c0 0 19.2 2.5 20.6 2.5 1.2 0 12.9-16.9 15.7-18.3z"/>
		<path class="s5" d="m349.7 206.6c-1.5 1.7-5 5.8-8.7 9.4 0.7-5.9 2.9-11.2 5.7-14.6q0.1-0.2 0.2-0.3 0.1-0.1 0.2-0.2 0.2-0.1 0.3-0.2 0.1-0.1 0.2-0.2z"/>
		<path class="s6" d="m337.2 408.5l8.1-0.2q0.1 0 0.2 0 0.1 0.1 0.2 0.1 0.1 0.1 0.1 0.2 0.1 0.1 0.1 0.2l1.7 6.5q0.1 0.2 0 0.4 0 0.3-0.2 0.5-0.1 0.2-0.3 0.3-0.2 0.1-0.5 0.1c-2.9 0-7.1 0-10.7 0.1-4.3 0.1-7-0.1-12 0-3 0.1-4-3-2.8-3.3 5.8-1.4 9.5-1.1 14.4-4.3q0.2-0.1 0.4-0.2 0.2-0.1 0.4-0.2 0.2-0.1 0.5-0.1 0.2-0.1 0.4-0.1z"/>
		<path class="s1" d="m336.5 409.6c-1.2 0.2-3.3 0.6-4.1-0.1q-0.1-0.1-0.2-0.2 0-0.1-0.1-0.2 0-0.1 0-0.2-0.1-0.2-0.1-0.3 0 0 0.1-0.1 0-0.1 0-0.1 0-0.1 0.1-0.2 0 0 0.1 0c0.9-0.6 3.9 0.9 4.3 1q0 0 0 0.1 0 0 0 0 0 0 0.1 0 0 0.1 0 0.1 0 0-0.1 0 0 0.1 0 0.1 0 0 0 0-0.1 0-0.1 0zm-4-1.1q-0.1 0.1-0.1 0.1 0 0 0 0 0 0 0 0.1 0 0-0.1 0 0 0.1 0.1 0.2 0 0.1 0 0.1 0 0.1 0.1 0.2 0 0 0.1 0.1c0.5 0.4 1.7 0.4 3.3 0.1-1.2-0.5-2.8-1.1-3.4-0.9z"/>
		<path class="s1" d="m336.5 409.6l-0.1-0.1c-0.9-0.3-2.7-1.9-2.6-2.7 0-0.2 0.1-0.4 0.6-0.5q0.1 0 0.3 0 0.1 0 0.2 0 0.2 0.1 0.3 0.1 0.1 0.1 0.2 0.2c1 0.7 1.2 2.7 1.3 2.8q0 0 0 0 0 0-0.1 0 0 0.1 0 0.1 0 0 0 0zm-2.2-2.8c-0.2 0-0.2 0.1-0.2 0.1-0.1 0.5 1.2 1.7 2.1 2.3q0-0.4-0.1-0.7-0.1-0.3-0.3-0.6-0.1-0.2-0.3-0.5-0.1-0.3-0.4-0.5 0-0.1-0.1-0.1-0.1 0-0.2-0.1-0.1 0-0.2 0-0.1 0-0.2 0 0 0 0 0 0 0-0.1 0 0 0 0 0 0 0 0 0.1z"/>
		<path class="s6" d="m378.2 408.5l8.1-0.2q0.1 0 0.2 0 0.1 0.1 0.2 0.1 0.1 0.1 0.2 0.2 0 0.1 0.1 0.2l1.6 6.5q0.1 0.2 0.1 0.4-0.1 0.3-0.2 0.5-0.2 0.2-0.4 0.3-0.2 0.1-0.5 0.1c-2.9 0-7.1 0-10.7 0.1-4.3 0.1-7-0.1-12 0-3 0.1-4-3-2.8-3.3 5.8-1.4 9.5-1.1 14.4-4.3q0.2-0.1 0.4-0.2 0.2-0.1 0.4-0.2 0.2-0.1 0.5-0.1 0.2-0.1 0.4-0.1z"/>
		<path class="s1" d="m377.6 409.6c-1.2 0.2-3.3 0.6-4.2-0.1q-0.1-0.1-0.1-0.2-0.1-0.1-0.2-0.2 0-0.1 0-0.2 0-0.2 0-0.3 0 0 0-0.1 0-0.1 0-0.1 0.1-0.1 0.1-0.2 0.1 0 0.1 0c0.9-0.6 3.9 0.9 4.3 1q0 0 0 0 0 0.1 0.1 0.1 0 0 0 0 0 0.1 0 0.1 0 0 0 0 0 0.1-0.1 0.1 0 0 0 0 0 0-0.1 0zm-4-1.1q0 0.1-0.1 0.1 0 0 0 0 0 0 0 0.1 0 0 0 0 0 0.1 0 0.2 0 0.1 0 0.1 0.1 0.1 0.1 0.2 0.1 0 0.1 0.1c0.5 0.4 1.7 0.4 3.3 0.1-1.2-0.5-2.8-1.1-3.4-0.9z"/>
		<path class="s1" d="m377.6 409.6l-0.2-0.1c-0.9-0.3-2.7-1.9-2.6-2.7 0-0.2 0.1-0.4 0.6-0.5q0.2 0 0.3 0 0.1 0 0.3 0 0.1 0.1 0.2 0.1 0.1 0.1 0.2 0.2 0.3 0.3 0.5 0.6 0.2 0.3 0.4 0.7 0.1 0.3 0.2 0.7 0.1 0.4 0.2 0.8 0 0 0 0 0 0 0 0.1 0 0-0.1 0 0 0 0 0zm-2.2-2.8c-0.2 0-0.2 0.1-0.2 0.1-0.1 0.5 1.2 1.7 2.1 2.3q0-0.4-0.1-0.7-0.1-0.3-0.2-0.6-0.2-0.2-0.3-0.5-0.2-0.3-0.4-0.5-0.1-0.1-0.2-0.1-0.1 0-0.2-0.1-0.1 0-0.2 0-0.1 0-0.2 0z"/>
		<path class="s6" d="m393.1 249.3c3.8 16.8-2.8 149-2.8 149h-12.9l-5.5-110.2-20.2 110.2-13.8-1c9-85.4 16.9-136.3 16.9-136.3v-6.5z"/>
		<path class="s10" d="m337.9 397.3l13.8 1 15.9-86.7 4.3-23.5 5.5 110.2h12.9c0 0 6.6-132.2 2.8-149l-38.3 5.2v6.5c0 0-7.9 50.9-16.9 136.3z"/>
		<path class="s6" d="m386.1 187q-0.1 3-0.2 6 0 3 0.1 6.1 0.1 3 0.2 6 0.2 3 0.5 6c0.6 5.6 1.3 10.9 2.1 15.7 1.9 11.1 3.9 19.5 4.2 22.5l-38.2 5.2c-13.9-39-8.7-61.6-8.7-61.6q1.1-0.5 2.2-0.9 1.1-0.4 2.2-0.8 1.1-0.3 2.2-0.7 1.1-0.3 2.2-0.6 0.9-0.3 1.9-0.5 2-0.4 4.1-0.7 2-0.4 4-0.7 2.1-0.2 4.1-0.5 2-0.2 4.1-0.3c1-0.1 2.1-0.2 3.1-0.3 5.2-0.2 9.9 0.1 9.9 0.1z"/>
		<path class="s9" d="m365.7 169.4c0.2 5.4 0.8 15.4 5.3 18 0 0-2.8 5.3-8.8 5.8-4.5 0.4-4.2-4.1-4.2-4.1 2.6-1.9 2-5.2 0-9z"/>
		<path class="s5" d="m362.5 173.8l-4.5 6.3q0.2 0.4 0.3 0.7 0.2 0.3 0.4 0.7 0.1 0.3 0.2 0.6 0.2 0.4 0.3 0.7c2.1-0.8 4.5-4 4.2-6.3q-0.1-0.3-0.2-0.7 0-0.3-0.1-0.7-0.1-0.3-0.3-0.6-0.1-0.4-0.3-0.7z"/>
		<path class="s6" d="m346.2 158.7c-0.9 2.8-0.4 8.5 3.4 6.6 3.9-1.8-1.9-11.4-3.4-6.6z"/>
		<path class="s9" d="m366.2 162.4c0.4 7.2 1 11.3-2.1 15.4-4.8 6-13.9 3.8-16.5-3.1-2.3-6.2-2.6-16.8 4-20.4 1.5-0.8 3.1-1.2 4.8-1.2 1.6 0 3.3 0.4 4.7 1.2 1.5 0.8 2.7 2 3.6 3.4 0.9 1.5 1.4 3.1 1.5 4.7z"/>
		<path class="s6" d="m361.2 158.6v-8c0 0 8.4-0.7 8.1 3.7 4.7 2.3 2.4 9.6-3.9 13.2-3.4-2.8-3-9.4-3-9.4q-0.6 0.2-1.2 0.5z"/>
		<path class="s9" d="m369.6 168q-0.1 0.7-0.4 1.3-0.2 0.6-0.6 1.1-0.3 0.6-0.8 1.1-0.5 0.4-1 0.8c-2 1.3-3.8-0.3-3.8-2.5-0.1-2 0.8-5.2 3.1-5.6q0.8-0.1 1.5 0.1 0.8 0.3 1.3 0.9 0.5 0.5 0.7 1.3 0.2 0.7 0 1.5z"/>
		<path class="s6" d="m355.6 165.6c0.1 0.6-0.2 1.1-0.5 1.1-0.4 0.1-0.8-0.3-0.8-1-0.1-0.6 0.1-1 0.5-1.1 0.4 0 0.8 0.4 0.8 1z"/>
		<path class="s6" d="m349.1 166.3c0.1 0.6-0.2 1.1-0.6 1.2-0.4 0-0.7-0.4-0.8-1-0.1-0.6 0.2-1.1 0.6-1.2 0.4 0 0.7 0.5 0.8 1z"/>
		<path class="s11" d="m351.2 166.4q-0.2 0.7-0.4 1.3-0.3 0.7-0.5 1.3-0.3 0.7-0.6 1.3-0.4 0.6-0.7 1.2 0.3 0.1 0.6 0.2 0.4 0.1 0.8 0.2 0.3 0 0.7-0.1 0.3 0 0.7-0.2z"/>
		<path class="s6" d="m355.1 173.5q0 0-0.1 0-0.1 0.1-0.2 0.1-0.1 0-0.2 0-0.1 0-0.2 0-0.1 0-0.1 0-0.1-0.1-0.1-0.1 0-0.1 0.1-0.2 0 0 0.1 0 0.5-0.1 1.1-0.2 0.5-0.2 0.9-0.5 0.5-0.3 0.9-0.7 0.3-0.3 0.6-0.8 0 0 0.1-0.1 0 0 0 0 0 0 0.1 0 0 0 0 0 0.1 0 0.1 0.1 0 0 0 0 0 0 0 0.1 0 0 0 0-0.2 0.5-0.6 0.8-0.3 0.4-0.7 0.7-0.4 0.3-0.8 0.5-0.5 0.2-1 0.3z"/>
		<path class="s6" d="m357.4 163.3q-0.1 0-0.1 0 0 0-0.1 0 0 0-0.1-0.1 0 0 0 0-0.3-0.2-0.5-0.4-0.3-0.2-0.6-0.3-0.3-0.1-0.6-0.2-0.3 0-0.7 0 0 0-0.1 0-0.1 0-0.1 0-0.1-0.1-0.1-0.1 0-0.1-0.1-0.2 0 0 0-0.1 0.1-0.1 0.1-0.1 0-0.1 0.1-0.1 0-0.1 0.1-0.1 0.4 0 0.8 0 0.4 0.1 0.8 0.2 0.4 0.2 0.7 0.4 0.4 0.2 0.6 0.5 0.1 0.1 0.1 0.1 0 0.1 0 0.2 0 0 0 0.1 0 0.1-0.1 0.1 0 0 0 0 0 0 0 0.1 0 0-0.1 0 0 0 0 0z"/>
		<path class="s6" d="m346 164.4q0 0 0 0-0.1 0-0.1 0 0 0-0.1 0 0 0 0 0-0.1 0-0.1 0-0.1-0.1-0.1-0.2 0 0 0-0.1 0 0 0-0.1 0.1-0.4 0.3-0.7 0.2-0.4 0.5-0.7 0.3-0.3 0.7-0.5 0.3-0.2 0.7-0.3 0.1 0 0.3 0 0.1 0.1 0.1 0.3 0 0.1 0 0.2-0.1 0.1-0.2 0.2-0.3 0.1-0.6 0.2-0.3 0.2-0.5 0.4-0.2 0.3-0.4 0.5-0.2 0.3-0.3 0.6 0 0 0 0.1 0 0-0.1 0 0 0.1 0 0.1-0.1 0-0.1 0z"/>
		<path class="s6" d="m364.9 161.5c0 0-5-1.8-7.3-4.7 0 0-4.5 1.2-5.4 3q-0.3-0.3-0.5-0.7-0.2-0.3-0.3-0.7-0.1-0.5 0-0.9 0.1-0.4 0.4-0.7c0.1-0.2-3.4 0.7-4.1 3q-0.4-0.2-0.7-0.5-0.4-0.3-0.6-0.7-0.2-0.5-0.3-0.9-0.1-0.5 0-0.9c0.1-0.3-1.5 0.6-2 3 0 0-3.7-7.8 8.7-10.1q-0.4-0.1-0.8-0.2-0.3-0.1-0.7-0.1-0.4-0.1-0.7-0.1-0.4-0.1-0.8-0.1c-0.2 0 8.7-3.5 15.5-0.3 6.9 3.2 5.7 9.4-0.4 12.6z"/>
		<path class="s1" d="m396 256l-12 1.6c0 0-4.9-34.6-7.1-45.8v-23.8l6.2-1.7 4.9 1.7q0.5 1.8 0.9 3.6 0.5 1.8 0.9 3.7 0.4 1.8 0.7 3.6 0.3 1.9 0.6 3.7c0.6 3.7 1.1 7.7 1.6 11.8 0.6 5.5 1.1 11.1 1.6 16.4 0.7 8.5 1.2 16 1.5 20.6 0.1 2.9 0.2 4.6 0.2 4.6z"/>
		<path class="s1" d="m376.9 211.8c0 0 1-16.8 6.3-25.5 0 0-0.2-2.5-1.2-2.9-1.1-0.4-5.1 2-5.1 2 0 0-2.5-1.7-3.1-0.9-0.5 0.8-1.9 6.1 3.1 27.3z"/>
		<path class="s8" d="m376.9 211.8c0 0 1-16.8 6.3-25.5 0 0-0.2-2.5-1.2-2.9-1.1-0.4-5.1 2-5.1 2 0 0-2.5-1.7-3.1-0.9-0.5 0.8-1.9 6.1 3.1 27.3z"/>
		<path class="s1" d="m349.6 260.6l1.4 1c0 0-2-11.1-1.2-39.3 0-1.4 0.1-2.7 0.1-4 1-23.8 4.8-28.2 5-28.4l-3.4 1.2-6.3 2.1c-1.9 20.4 4.4 67.4 4.4 67.4z"/>
		<path class="s1" d="m350.1 214.2c0 0-3.4-16.3-2.4-22 1-5.6 4.7-3.1 4.7-3.1 0 0 3.4-2.7 4.4 0.3 0 0-4.6 3.3-6.7 24.8z"/>
		<path class="s8" d="m350.1 214.2c0 0-3.4-16.3-2.4-22 1-5.6 4.7-3.1 4.7-3.1 0 0 3.4-2.7 4.4 0.3 0 0-4.6 3.3-6.7 24.8z"/>
		<path class="s5" d="m392.6 214.3c-5.1-2.8-5.8-10.3-5.8-10.3 0.3-0.1 2.2-0.8 4.2-1.4 0.6 3.7 1.2 7.7 1.6 11.7z"/>
		<path class="s5" d="m367.6 311.6l4.3-23.5-0.8-12.4c0 0-5.9 21.5-3.5 35.9z"/>
		<path class="s5" d="m395.8 251.3c-3.3-0.2-6.1-0.4-6.1-0.4l-0.6-13.1q0.4-0.2 0.8-0.4 0.4-0.1 0.9-0.2 0.4-0.1 0.8-0.1 0.5 0 0.9 0.1 0.3-0.8 0.6-1.6 0.2-0.8 0.5-1.6 0.2-0.8 0.4-1.6 0.2-0.8 0.3-1.7c0.7 8.5 1.2 16.1 1.4 20.6z"/>
		<path fill-rule="evenodd" class="s9" d="m396.9 230.7l-6.3 10.1 4.9 2.9 5.9-9.1-4.5-3.9z"/>
		<path class="s1" d="m387.7 187.8c4.3 0.5 22.2 25.1 23 32.5 0.8 7.5-10.6 20.3-10.6 20.3l-7.5-4.5c0 0 7.7-11.8 8.1-15 0.4-3.2-14.1-16.1-14.1-16.1q-0.4-1.1-0.7-2.2-0.3-1.2-0.6-2.3-0.2-1.2-0.3-2.4-0.1-1.1-0.2-2.3c-0.2-5.4 2.9-8 2.9-8z"/>
		<path class="s1" d="m389.1 237.8c0 0 6.5 1.4 9.1 5.5 0 0-2.7 8.4-4.7 9.3-1.9 1-6.7 1-6.7 1 0 0-0.3-9.4 2.3-15.8z"/>
		<path id="Forma 1" fill-rule="evenodd" class="s4" d="m182 211c-2.8 0-5-2.2-5-5 0-2.8 2.2-5 5-5 2.8 0 5 2.2 5 5 0 2.8-2.2 5-5 5z"/>
		<path id="Forma 1 copy 9" fill-rule="evenodd" class="s4" d="m182 242c-2.8 0-5-2.2-5-5 0-2.8 2.2-5 5-5 2.8 0 5 2.2 5 5 0 2.8-2.2 5-5 5z"/>
		<path id="Forma 1 copy 10" fill-rule="evenodd" class="s4" d="m196 242c-2.8 0-5-2.2-5-5 0-2.8 2.2-5 5-5 2.8 0 5 2.2 5 5 0 2.8-2.2 5-5 5z"/>
		<path id="Forma 1 copy 11" fill-rule="evenodd" class="s4" d="m210 242c-2.8 0-5-2.2-5-5 0-2.8 2.2-5 5-5 2.8 0 5 2.2 5 5 0 2.8-2.2 5-5 5z"/>
		<path id="Forma 1 copy 12" fill-rule="evenodd" class="s4" d="m224 242c-2.8 0-5-2.2-5-5 0-2.8 2.2-5 5-5 2.8 0 5 2.2 5 5 0 2.8-2.2 5-5 5z"/>
		<path id="Forma 1 copy 13" fill-rule="evenodd" class="s4" d="m238 242c-2.8 0-5-2.2-5-5 0-2.8 2.2-5 5-5 2.8 0 5 2.2 5 5 0 2.8-2.2 5-5 5z"/>
		<path id="Forma 1 copy 15" fill-rule="evenodd" class="s4" d="m252 242c-2.8 0-5-2.2-5-5 0-2.8 2.2-5 5-5 2.8 0 5 2.2 5 5 0 2.8-2.2 5-5 5z"/>
		<path id="Forma 1 copy 18" fill-rule="evenodd" class="s4" d="m181 273c-2.8 0-5-2.2-5-5 0-2.8 2.2-5 5-5 2.8 0 5 2.2 5 5 0 2.8-2.2 5-5 5z"/>
		<path id="Forma 1 copy 19" fill-rule="evenodd" class="s4" d="m195 273c-2.8 0-5-2.2-5-5 0-2.8 2.2-5 5-5 2.8 0 5 2.2 5 5 0 2.8-2.2 5-5 5z"/>
		<path id="Forma 1 copy 20" fill-rule="evenodd" class="s4" d="m209 273c-2.8 0-5-2.2-5-5 0-2.8 2.2-5 5-5 2.8 0 5 2.2 5 5 0 2.8-2.2 5-5 5z"/>
		<path id="Forma 1 copy 21" fill-rule="evenodd" class="s4" d="m223 273c-2.8 0-5-2.2-5-5 0-2.8 2.2-5 5-5 2.8 0 5 2.2 5 5 0 2.8-2.2 5-5 5z"/>
		<path id="Forma 1 copy 22" fill-rule="evenodd" class="s4" d="m181 303c-2.8 0-5-2.2-5-5 0-2.8 2.2-5 5-5 2.8 0 5 2.2 5 5 0 2.8-2.2 5-5 5z"/>
		<path id="Forma 1 copy 23" fill-rule="evenodd" class="s4" d="m195 303c-2.8 0-5-2.2-5-5 0-2.8 2.2-5 5-5 2.8 0 5 2.2 5 5 0 2.8-2.2 5-5 5z"/>
		<path id="Forma 1 copy 24" fill-rule="evenodd" class="s4" d="m210 303c-2.8 0-5-2.2-5-5 0-2.8 2.2-5 5-5 2.8 0 5 2.2 5 5 0 2.8-2.2 5-5 5z"/>
		<path id="Forma 1 copy 25" fill-rule="evenodd" class="s4" d="m224 303c-2.8 0-5-2.2-5-5 0-2.8 2.2-5 5-5 2.8 0 5 2.2 5 5 0 2.8-2.2 5-5 5z"/>
		<path id="Forma 1 copy 26" fill-rule="evenodd" class="s4" d="m238 303c-2.8 0-5-2.2-5-5 0-2.8 2.2-5 5-5 2.8 0 5 2.2 5 5 0 2.8-2.2 5-5 5z"/>
		<path id="Forma 1 copy 16" fill-rule="evenodd" class="s4" d="m266 242c-2.8 0-5-2.2-5-5 0-2.8 2.2-5 5-5 2.8 0 5 2.2 5 5 0 2.8-2.2 5-5 5z"/>
		<path id="Forma 1 copy 14" fill-rule="evenodd" class="s4" d="m224 242c-2.8 0-5-2.2-5-5 0-2.8 2.2-5 5-5 2.8 0 5 2.2 5 5 0 2.8-2.2 5-5 5z"/>
		<path id="Forma 1 copy 7" fill-rule="evenodd" class="s4" d="m266 211c-2.8 0-5-2.2-5-5 0-2.8 2.2-5 5-5 2.8 0 5 2.2 5 5 0 2.8-2.2 5-5 5z"/>
		<path id="Layer copy 2" class="s1" d="m389.1 237.8c0 0 6.5 1.4 9.1 5.5 0 0-2.7 8.4-4.7 9.3-1.9 1-6.7 1-6.7 1 0 0-0.3-9.4 2.3-15.8z"/>
		<path id="Forma 1 copy" fill-rule="evenodd" class="s4" d="m196 211c-2.8 0-5-2.2-5-5 0-2.8 2.2-5 5-5 2.8 0 5 2.2 5 5 0 2.8-2.2 5-5 5z"/>
		<path id="Forma 1 copy 2" fill-rule="evenodd" class="s4" d="m210 211c-2.8 0-5-2.2-5-5 0-2.8 2.2-5 5-5 2.8 0 5 2.2 5 5 0 2.8-2.2 5-5 5z"/>
		<path id="Forma 1 copy 3" fill-rule="evenodd" class="s4" d="m224 211c-2.8 0-5-2.2-5-5 0-2.8 2.2-5 5-5 2.8 0 5 2.2 5 5 0 2.8-2.2 5-5 5z"/>
		<path id="Forma 1 copy 4" fill-rule="evenodd" class="s4" d="m238 211c-2.8 0-5-2.2-5-5 0-2.8 2.2-5 5-5 2.8 0 5 2.2 5 5 0 2.8-2.2 5-5 5z"/>
		<path id="Forma 1 copy 5" fill-rule="evenodd" class="s4" d="m252 211c-2.8 0-5-2.2-5-5 0-2.8 2.2-5 5-5 2.8 0 5 2.2 5 5 0 2.8-2.2 5-5 5z"/>
	</g>
</svg>