<svg version="1.2" xmlns="http://www.w3.org/2000/svg" viewBox="0 0 500 500" width="500" height="500">
	<title>Celebration-amico</title>
	<style>
		tspan { white-space:pre } 
		.t0 { font-size: 30px;fill: #00843d;font-weight: 400;font-family: "DejaVuSans", "DejaVu Sans" } 
		.s1 { fill: #00843d } 
		.s2 { fill: #455a64 } 
		.s3 { fill: #37474f } 
	</style>
	<text id="+ copy 8" style="transform: matrix(1,0,0,1,431.176,115.478)" >
		<tspan x="0" y="0" class="t0">+
</tspan>
	</text>
	<g id="freepik--Confetti--inject-20">
		<path class="s1" d="m305.9 197.2c1.4-3.3 1.3-6.7 5.6-7.8 1.8-0.5 6.3-0.9 7.7 0.7q0.2 0.4 0.3 0.7 0 0.4 0 0.7-0.1 0.4-0.2 0.7-0.2 0.3-0.5 0.5c-1.1 1-1.9-0.2-2.2-1.2q-0.2-0.8-0.1-1.5 0.1-0.8 0.3-1.5 0.3-0.7 0.8-1.2 0.5-0.6 1.1-1 1.4-0.9 3-1.2 1.5-0.4 3.1-0.1 1.6 0.2 3 1.1 1.4 0.8 2.4 2c0.2 0.2 0.3 0 0.3-0.2-3.3-7.5-19-2.3-14 5 1.5 2.1 4.2 0.2 3.7-2.1-0.6-2.6-4.9-2.4-6.9-2.3q-0.7 0-1.4 0.1-0.8 0.1-1.4 0.4-0.7 0.3-1.3 0.7-0.7 0.3-1.2 0.8c-1.7 1.7-1.9 4.4-2.3 6.6 0 0.1 0.1 0.3 0.2 0.1z"/>
		<path class="s1" d="m418 34.9c3.1-0.9 7.3-0.7 9.9 1.4 2 1.6 3.1 5.1 0.2 6.3-1.2 0.4-5 0.4-5.4-1.1-0.4-1.1 0.8-1.8 1.8-1.9 2.7-0.4 5.3 2.4 5.2 5-0.1 3.9-4.6 5.2-7.8 5.3-0.2 0-0.2 0.4 0 0.4 5.4 0.5 11.5-4.6 6.7-9.6-1.3-1.4-3.4-2.3-5.2-1.6-1.1 0.4-1.9 1.4-1.4 2.5 0.8 1.9 4.2 2.2 5.9 1.7q0.7-0.1 1.2-0.6 0.6-0.4 0.9-1 0.3-0.6 0.4-1.3 0-0.7-0.2-1.3c-1.3-5-8.2-6-12.3-4.5-0.1 0-0.1 0.3 0.1 0.3z"/>
		<path class="s1" d="m458.2 241.3c3.1-0.9 7.3-0.6 9.9 1.4 2 1.6 3.1 5.1 0.2 6.3-1.2 0.4-5 0.4-5.4-1.1-0.3-1.1 0.8-1.8 1.8-1.9 2.7-0.4 5.3 2.5 5.2 5.1 0 3.9-4.6 5.1-7.8 5.2-0.2 0-0.1 0.4 0 0.4 5.5 0.5 11.5-4.5 6.7-9.6-1.3-1.4-3.3-2.3-5.2-1.6-1.1 0.4-1.9 1.4-1.4 2.6 0.9 1.8 4.3 2.1 5.9 1.7q0.7-0.2 1.3-0.6 0.5-0.5 0.8-1.1 0.3-0.6 0.4-1.3 0.1-0.7-0.2-1.3c-1.3-4.9-8.2-6-12.3-4.5-0.1 0 0 0.3 0.1 0.3z"/>
		<text id="+" style="transform: matrix(1,0,0,1,268.176,137.478)" >
			<tspan x="0" y="0" class="t0">+
</tspan>
		</text>
		<text id="+ copy" style="transform: matrix(1,0,0,1,431.176,115.478)" >
			<tspan x="0" y="0" class="t0">+
</tspan>
		</text>
		<text id="+ copy 2" style="transform: matrix(1,0,0,1,382.176,216.478)" >
			<tspan x="0" y="0" class="t0">+
</tspan>
		</text>
		<text id="+ copy 3" style="transform: matrix(1,0,0,1,343.176,277.478)" >
			<tspan x="0" y="0" class="t0">+
</tspan>
		</text>
		<text id="+ copy 4" style="transform: matrix(1,0,0,1,271.176,340.478)" >
			<tspan x="0" y="0" class="t0">+
</tspan>
		</text>
		<text id="+ copy 5" style="transform: matrix(1,0,0,1,25.176,116.478)" >
			<tspan x="0" y="0" class="t0">+
</tspan>
		</text>
		<text id="+ copy 6" style="transform: matrix(1,0,0,1,54.176,348.478)" >
			<tspan x="0" y="0" class="t0">+
</tspan>
		</text>
		<text id="+ copy 7" style="transform: matrix(1,0,0,1,41.176,240.478)" >
			<tspan x="0" y="0" class="t0">+
</tspan>
		</text>
		<path class="s2" d="m310.7 153c0 0-0.3 4.8 3.3 7.5l3.8-1.1c0 0-2.6-1.2-3.8-6.4z"/>
		<path class="s3" d="m341.4 207.5c0 0-0.3 4.9 3.3 7.6l3.8-1.2c0 0-2.5-1.2-3.8-6.4z"/>
		<path class="s2" d="m459.3 60.1c0 0-2.2 4.3-6.7 4.8l-2.7-2.9c0 0 2.8 0.3 6.5-3.6z"/>
		<path class="s2" d="m433.5 214.5c0 0-2.2 4.4-6.7 4.9l-2.7-2.9c0 0 2.8 0.2 6.5-3.6z"/>
		<path class="s1" d="m371.9 123.8c0 0-2.2 4.3-6.6 4.9l-2.7-2.9c0 0 2.8 0.2 6.4-3.7z"/>
		<path class="s1" d="m415 77c0 0-4.8 0.6-7.7-2.8l0.8-3.8c0 0 1.4 2.4 6.7 3.3z"/>
		<path class="s1" d="m321.9 107.4c0 0-4.8 0.6-7.7-2.8l0.9-3.8c0 0 1.4 2.4 6.6 3.3z"/>
		<path class="s1" d="m465.8 143.2c0 0-4.8 0.6-7.7-2.8l0.9-3.8c0 0 1.3 2.4 6.6 3.3z"/>
		<path class="s2" d="m382.1 94.8c0 0-2.2 4.3-6.7 4.8l-2.7-2.9c0 0 3.3 0.5 7-3.3z"/>
		<path class="s3" d="m386.9 101.1c0 0-0.8 4.8-5 6.6l-3.4-2q0.9-0.4 1.7-1 0.9-0.5 1.6-1.2 0.7-0.6 1.3-1.4 0.6-0.8 1.1-1.6z"/>
		<path class="s1" d="m210.4 203.8c-1.5-3.3-1.3-6.8-5.6-7.9-1.9-0.4-6.3-0.9-7.8 0.8q-0.1 0.3-0.2 0.6-0.1 0.4 0 0.7 0 0.4 0.2 0.7 0.2 0.3 0.4 0.6c1.1 1 2-0.2 2.3-1.3q0.1-0.7 0.1-1.5-0.1-0.7-0.4-1.4-0.3-0.7-0.8-1.3-0.4-0.6-1.1-1-1.3-0.9-2.9-1.2-1.6-0.4-3.2-0.1-1.6 0.3-3 1.1-1.4 0.8-2.4 2.1c-0.2 0.2-0.3 0-0.3-0.3 3.3-7.5 19-2.3 14 5-1.5 2.2-4.2 0.2-3.7-2.1 0.6-2.5 5-2.4 6.9-2.3q0.7 0 1.5 0.1 0.7 0.2 1.4 0.4 0.6 0.3 1.3 0.7 0.6 0.4 1.1 0.9c1.7 1.6 2 4.3 2.3 6.6 0 0.1-0.1 0.2-0.1 0.1z"/>
		<path class="s1" d="m71.3 175.5c-6.2 0.5-5.1 12.4-0.1 14q0.2 0.1 0.5 0.1 0.2 0 0.5 0 0.2 0 0.5-0.1 0.2 0 0.4-0.1 0.3-0.2 0.5-0.5 0.2-0.3 0.4-0.6 0.1-0.3 0.2-0.6 0.1-0.4 0.1-0.7c-0.6-2-4 0.5-4.4 1.3q-0.5 0.8-0.7 1.7-0.3 0.9-0.2 1.8 0.1 0.9 0.4 1.8 0.4 0.8 0.9 1.5c2.6 2.8 7.5 2.9 10.7 1.3 0.2-0.1 0.2 0.2 0.1 0.3-3.5 2.2-9.3 1.9-11.8-1.6-2-2.8-0.6-10.2 3.8-9.6 4.2 0.6 1.3 5.4-1.9 4.7-3.1-0.6-4.2-4.8-4.5-7.4-0.4-3.2 0.5-7.6 4.6-7.6 0.1 0 0.1 0.3 0 0.3z"/>
		<path class="s2" d="m209.7 164.4c0 0 0.3 4.8-3.3 7.5l-3.8-1.1c0 0 2.5-1.2 3.8-6.4z"/>
		<path class="s3" d="m194.8 222.3c0 0 0.3 4.8-3.3 7.5l-3.7-1.2c0 0 2.5-1.2 3.7-6.3z"/>
		<path class="s2" d="m44.6 60.1c0 0 2.2 4.3 6.7 4.8l2.7-2.9c0 0-2.8 0.3-6.5-3.6z"/>
		<path class="s2" d="m91.1 209.3c0 0 2.2 4.3 6.7 4.8l2.7-2.9c0 0-2.8 0.3-6.5-3.6z"/>
		<path class="s1" d="m138.5 129.4c0 0 2.2 4.3 6.6 4.9l2.7-2.9c0 0-2.8 0.2-6.4-3.7z"/>
		<path class="s1" d="m88.9 77c0 0 4.8 0.6 7.7-2.8l-0.9-3.8c0 0-1.4 2.4-6.6 3.3z"/>
		<path class="s1" d="m181.9 103.4c0 0 4.8 0.6 7.7-2.8l-0.8-3.9c0 0-1.4 2.5-6.7 3.3z"/>
		<path class="s2" d="m121.8 94.8c0 0 2.2 4.3 6.6 4.8l2.7-2.9c0 0-3.3 0.5-7-3.3z"/>
		<path class="s3" d="m117 101.1c0 0 0.9 4.8 5 6.6l3.4-2q-0.9-0.4-1.7-1-0.8-0.5-1.6-1.2-0.7-0.6-1.3-1.4-0.6-0.8-1.1-1.6z"/>
		<path id="Layer copy 3" class="s1" d="m395 124.9c3.1-0.9 7.3-0.7 9.9 1.4 2 1.6 3.1 5.1 0.2 6.3-1.2 0.4-5 0.4-5.4-1.1-0.4-1.1 0.8-1.8 1.8-1.9 2.7-0.4 5.3 2.5 5.2 5-0.1 3.9-4.6 5.2-7.8 5.2-0.2 0-0.2 0.4 0 0.5 5.4 0.5 11.5-4.6 6.7-9.6-1.3-1.4-3.4-2.4-5.2-1.6-1.1 0.4-1.9 1.4-1.4 2.5 0.8 1.9 4.2 2.2 5.9 1.7q0.7-0.1 1.2-0.6 0.6-0.4 0.9-1 0.3-0.6 0.4-1.3 0-0.7-0.2-1.3c-1.3-5-8.2-6-12.3-4.5-0.1 0-0.1 0.3 0.1 0.3z"/>
		<path id="Layer copy 4" class="s1" d="m435.2 331.3c3.1-0.9 7.3-0.6 9.9 1.4 2 1.6 3.1 5.1 0.2 6.3-1.2 0.4-5 0.4-5.4-1.1-0.3-1.1 0.8-1.8 1.8-1.9 2.7-0.4 5.3 2.5 5.2 5.1 0 3.9-4.6 5.1-7.8 5.2-0.2 0-0.1 0.4 0 0.4 5.5 0.5 11.5-4.5 6.7-9.6-1.3-1.4-3.3-2.3-5.2-1.6-1.1 0.4-1.9 1.4-1.4 2.6 0.9 1.8 4.3 2.1 5.9 1.7q0.7-0.2 1.3-0.6 0.5-0.5 0.8-1.1 0.3-0.6 0.4-1.3 0.1-0.7-0.2-1.3c-1.3-4.9-8.2-6-12.3-4.5-0.1 0 0 0.3 0.1 0.3z"/>
		<path id="Layer copy 7" class="s2" d="m351 125.8c0 0-0.3 4.9 3.3 7.6l3.8-1.2c0 0-2.5-1.2-3.8-6.4z"/>
		<path id="Layer copy 8" class="s2" d="m287.7 243c0 0-0.3 4.8 3.3 7.5l3.8-1.1c0 0-2.6-1.2-3.8-6.4z"/>
		<path id="Layer copy 9" class="s3" d="m318.4 297.5c0 0-0.3 4.9 3.3 7.6l3.8-1.2c0 0-2.5-1.2-3.8-6.4z"/>
		<path id="Layer copy 10" class="s2" d="m436.3 150.1c0 0-2.2 4.3-6.7 4.8l-2.7-2.9c0 0 2.8 0.3 6.5-3.6z"/>
		<path id="Layer copy 11" class="s2" d="m410.5 304.5c0 0-2.2 4.4-6.7 4.9l-2.7-2.9c0 0 2.8 0.2 6.5-3.6z"/>
		<path id="Layer copy 12" class="s1" d="m348.9 213.8c0 0-2.2 4.3-6.6 4.8l-2.7-2.8c0 0 2.8 0.2 6.4-3.7z"/>
		<path id="Layer copy 13" class="s2" d="m308.9 160.5c0 0-2.2 4.3-6.6 4.8l-2.7-2.8c0 0 2.8 0.2 6.4-3.7z"/>
		<path id="Layer copy 14" class="s1" d="m392 167c0 0-4.8 0.6-7.7-2.8l0.8-3.8c0 0 1.4 2.4 6.7 3.3z"/>
		<path id="Layer copy 15" class="s1" d="m322.3 143.4c0 0-4.8 0.6-7.8-2.8l0.9-3.8c0 0 1.4 2.4 6.6 3.3z"/>
		<path id="Layer copy 16" class="s1" d="m241.4 132.9c0 0-4.8 0.6-7.7-2.8l0.8-3.8c0 0 1.4 2.4 6.7 3.3z"/>
		<path id="Layer copy 17" class="s1" d="m298.9 197.4c0 0-4.8 0.6-7.7-2.8l0.9-3.8c0 0 1.4 2.4 6.6 3.3z"/>
		<path id="Layer copy 18" class="s1" d="m442.8 233.2c0 0-4.8 0.6-7.7-2.8l0.9-3.8c0 0 1.3 2.4 6.6 3.3z"/>
		<path id="Layer copy 19" class="s2" d="m359.1 184.8c0-0.1-2.2 4.3-6.7 4.8l-2.7-2.9c0 0 3.3 0.5 7-3.3z"/>
		<path id="Layer copy 20" class="s3" d="m363.9 191.1c0 0-0.8 4.8-5 6.6l-3.4-2q0.9-0.4 1.7-1 0.9-0.5 1.6-1.2 0.7-0.6 1.3-1.4 0.6-0.8 1.1-1.6z"/>
		<path id="Layer copy 21" class="s1" d="m194.9 129.8c4.7-0.4 11 7.4 6.4 11.1-2.5 2.1-8.1 1.2-8-2.7q0-0.1 0.1-0.1 0-0.1 0-0.2 0.1 0 0.2-0.1 0 0 0.1 0c3.7-0.9 7.3 0.7 6.7 5q-0.2 1.4-0.9 2.6-0.7 1.2-1.8 2.1-1 0.9-2.3 1.5-1.3 0.5-2.7 0.6c-0.2 0-0.2-0.4 0-0.5 3.2-0.6 6.2-2.6 6.8-6q0.1-0.5 0.1-1 0.1-0.4 0-0.9-0.1-0.4-0.3-0.9-0.2-0.4-0.5-0.8-0.1-0.2-0.3-0.4-0.2-0.1-0.4-0.3-0.2-0.1-0.5-0.2-0.2-0.1-0.4-0.2c-0.6-0.2-2.6-0.5-3 0-0.9 0.9 1.5 2.4 2.2 2.6q0.5 0.2 1.1 0.3 0.5 0.1 1.1 0 0.5 0 1-0.2 0.5-0.2 1-0.5c2-1.3 1.5-3.9 0.5-5.7-1.2-2.4-3.5-4.4-6.3-4.5-0.3 0-0.1-0.5 0.1-0.5z"/>
		<path id="Layer copy 23" class="s1" d="m64.5 124.9c-3.1-0.9-7.3-0.7-9.9 1.4-2 1.6-3.1 5.1-0.2 6.3 1.2 0.4 5 0.4 5.4-1.1 0.4-1.1-0.8-1.8-1.8-1.9-2.7-0.4-5.3 2.5-5.2 5 0.1 3.9 4.6 5.2 7.8 5.2 0.2 0 0.2 0.4 0 0.5-5.4 0.5-11.5-4.6-6.7-9.6 1.3-1.4 3.4-2.4 5.2-1.6 1.1 0.4 1.9 1.4 1.4 2.5-0.8 1.9-4.2 2.2-5.9 1.7q-0.7-0.1-1.2-0.6-0.6-0.4-0.9-1-0.3-0.6-0.4-1.3 0-0.7 0.2-1.3c1.3-5 8.2-6 12.3-4.5 0.1 0 0.1 0.3-0.1 0.3z"/>
		<path id="Layer copy 24" class="s1" d="m28.8 327.6c-3.1-0.9-7.3-0.6-9.9 1.4-2 1.6-3.1 5.1-0.2 6.3 1.2 0.4 5 0.4 5.4-1.1 0.3-1.1-0.8-1.8-1.8-1.9-2.7-0.4-5.3 2.5-5.2 5.1 0.1 3.9 4.6 5.1 7.8 5.2 0.2 0 0.2 0.4 0 0.4-5.5 0.5-11.5-4.5-6.7-9.6 1.3-1.4 3.3-2.3 5.2-1.6 1.1 0.5 1.9 1.4 1.4 2.6-0.8 1.8-4.3 2.1-5.9 1.7q-0.7-0.2-1.2-0.6-0.6-0.5-0.9-1.1-0.3-0.6-0.4-1.3-0.1-0.7 0.2-1.3c1.3-4.9 8.2-6 12.3-4.5 0.1 0 0.1 0.3-0.1 0.3z"/>
		<path id="Layer copy 26" class="s1" d="m48.3 265.5c-6.2 0.5-5.1 12.4-0.1 14q0.2 0.1 0.5 0.1 0.2 0 0.5 0 0.2 0 0.5-0.1 0.2 0 0.4-0.1 0.3-0.2 0.5-0.5 0.2-0.3 0.4-0.6 0.1-0.3 0.2-0.6 0.1-0.4 0.1-0.7c-0.6-2-4 0.5-4.4 1.3q-0.5 0.8-0.7 1.7-0.3 0.9-0.2 1.8 0.1 0.9 0.4 1.8 0.4 0.8 0.9 1.5c2.6 2.8 7.5 2.9 10.7 1.3 0.2-0.1 0.2 0.2 0.1 0.3-3.5 2.2-9.3 1.9-11.8-1.6-2-2.8-0.6-10.2 3.8-9.6 4.2 0.6 1.3 5.4-1.9 4.7-3.1-0.6-4.2-4.8-4.5-7.4-0.4-3.2 0.5-7.6 4.6-7.6 0.1 0 0.1 0.3 0 0.3z"/>
		<path id="Layer copy 44" class="s1" d="m48.3 265.5c-6.2 0.5-5.1 12.4-0.1 14q0.2 0.1 0.5 0.1 0.2 0 0.5 0 0.2 0 0.5-0.1 0.2 0 0.4-0.1 0.3-0.2 0.5-0.5 0.2-0.3 0.4-0.6 0.1-0.3 0.2-0.6 0.1-0.4 0.1-0.7c-0.6-2-4 0.5-4.4 1.3q-0.5 0.8-0.7 1.7-0.3 0.9-0.2 1.8 0.1 0.9 0.4 1.8 0.4 0.8 0.9 1.5c2.6 2.8 7.5 2.9 10.7 1.3 0.2-0.1 0.2 0.2 0.1 0.3-3.5 2.2-9.3 1.9-11.8-1.6-2-2.8-0.6-10.2 3.8-9.6 4.2 0.6 1.3 5.4-1.9 4.7-3.1-0.6-4.2-4.8-4.5-7.4-0.4-3.2 0.5-7.6 4.6-7.6 0.1 0 0.1 0.3 0 0.3z"/>
		<path id="Layer copy 43" class="s1" d="m125.3 266.5c-6.2 0.5-5.1 12.4-0.1 14q0.2 0.1 0.5 0.1 0.2 0 0.5 0 0.2 0 0.5-0.1 0.2 0 0.4-0.1 0.3-0.2 0.5-0.5 0.2-0.3 0.4-0.6 0.1-0.3 0.2-0.6 0.1-0.4 0.1-0.7c-0.6-2-4 0.5-4.4 1.3q-0.5 0.8-0.7 1.7-0.3 0.9-0.2 1.8 0.1 0.9 0.4 1.8 0.4 0.8 0.9 1.5c2.6 2.8 7.5 2.9 10.7 1.3 0.2-0.1 0.2 0.2 0.1 0.3-3.5 2.2-9.3 1.9-11.8-1.6-2-2.8-0.6-10.2 3.8-9.6 4.2 0.6 1.3 5.4-1.8 4.7-3.2-0.6-4.3-4.8-4.6-7.4-0.4-3.2 0.6-7.6 4.6-7.6 0.1 0 0.1 0.3 0 0.3z"/>
		<path id="Layer copy 45" class="s1" d="m239.3 245.5c-6.2 0.5-5.1 12.4-0.1 14q0.2 0.1 0.5 0.1 0.2 0 0.5 0 0.2 0 0.5-0.1 0.2 0 0.4-0.1 0.3-0.2 0.5-0.5 0.2-0.3 0.4-0.6 0.1-0.3 0.2-0.6 0.1-0.4 0-0.7c-0.6-2-4 0.5-4.3 1.3q-0.5 0.8-0.7 1.7-0.3 0.9-0.2 1.8 0.1 0.9 0.4 1.8 0.4 0.8 0.9 1.5c2.6 2.8 7.5 2.9 10.7 1.3 0.2-0.1 0.2 0.2 0.1 0.3-3.5 2.2-9.3 1.9-11.8-1.6-2-2.8-0.6-10.2 3.8-9.6 4.2 0.6 1.3 5.4-1.9 4.7-3.1-0.6-4.2-4.8-4.5-7.4-0.4-3.2 0.5-7.6 4.6-7.6 0.1 0 0.1 0.3 0 0.3z"/>
		<path id="Layer copy 27" class="s1" d="m126.5 165.7c4.3-0.5 13.6 3.1 11.2 9-1.3 3.2-7 5.2-8.9 1.6q-0.1-0.1-0.1-0.2 0-0.1 0.1-0.1 0-0.1 0.1-0.2 0 0 0.1-0.1c9-5.1 18.5 9.7 8.9 15-0.3 0.2-0.3-0.3-0.1-0.4q1.2-0.9 2.1-2.2 0.8-1.2 1.1-2.7 0.2-1.5-0.1-3-0.4-1.5-1.2-2.7-0.4-0.6-0.8-1.1-0.5-0.5-1-1-0.5-0.5-1.1-0.8-0.5-0.4-1.1-0.7c-1.3-0.6-4.3-1.4-5.5-0.2-0.5 0.5-0.5-0.2-0.2 0.5q0.1 0.1 0.2 0.2 0.1 0.2 0.2 0.3 0.2 0.1 0.3 0.1 0.2 0.1 0.4 0.1 0.3 0.2 0.7 0.2 0.4 0.1 0.8 0.1 0.4-0.1 0.7-0.1 0.4-0.1 0.8-0.2c2-0.7 3.5-2.6 3-4.8-1.1-4.4-6.7-6-10.7-6.1-0.2 0-0.1-0.5 0.1-0.5z"/>
		<path id="Layer copy 28" class="s2" d="m109 134.6c0 0 0.3 4.9-3.3 7.6l-3.8-1.2c0 0 2.5-1.2 3.8-6.4z"/>
		<path id="Layer copy 29" class="s2" d="m186.7 254.4c0 0 0.3 4.8-3.3 7.5l-3.8-1.1c0 0 2.5-1.2 3.8-6.4z"/>
		<path id="Layer copy 30" class="s3" d="m171.8 312.3c0 0 0.3 4.8-3.3 7.5l-3.7-1.2c0 0 2.5-1.2 3.7-6.3z"/>
		<path id="Layer copy 31" class="s2" d="m21.6 150.1c0 0 2.2 4.3 6.7 4.8l2.7-2.8c0 0-2.8 0.2-6.5-3.7z"/>
		<path id="Layer copy 32" class="s2" d="m68.1 299.3c0 0 2.2 4.3 6.7 4.8l2.7-2.9c0 0-2.8 0.3-6.5-3.6z"/>
		<path id="Layer copy 33" class="s1" d="m115.5 219.4c0 0 2.2 4.3 6.6 4.9l2.7-2.9c0 0-2.8 0.2-6.4-3.7z"/>
		<path id="Layer copy 34" class="s2" d="m159 162.9c0 0 2.2 4.3 6.7 4.8l2.6-2.9c0 0-2.7 0.3-6.4-3.6z"/>
		<path id="Layer copy 35" class="s1" d="m65.9 167c0 0 4.8 0.6 7.7-2.8l-0.9-3.8c0 0-1.4 2.4-6.6 3.3z"/>
		<path id="Layer copy 36" class="s1" d="m148 129.6c0 0 4.8 0.6 7.7-2.8l-0.8-3.9c0 0-1.4 2.4-6.7 3.3z"/>
		<path id="Layer copy 37" class="s1" d="m158.9 193.4c0 0 4.8 0.6 7.7-2.8l-0.8-3.9c0 0-1.4 2.5-6.7 3.4z"/>
		<path id="Layer copy 38" class="s1" d="m3 288.5c0 0 4.8 0.6 7.7-2.8l-0.8-3.9c0 0-1.4 2.4-6.7 3.3z"/>
		<path id="Layer copy 39" class="s2" d="m98.8 184.8c0-0.1 2.2 4.3 6.6 4.8l2.7-2.9c0 0-3.3 0.5-7-3.3z"/>
		<path id="Layer copy 40" class="s3" d="m94 191.1c0 0 0.9 4.8 5 6.6l3.4-2q-0.9-0.4-1.7-1-0.8-0.5-1.6-1.2-0.7-0.6-1.3-1.4-0.6-0.8-1.1-1.6z"/>
		<path id="Layer copy 41" class="s2" d="m251.9 166.2c0 0-2.2 4.4-6.7 4.9l-2.7-2.9c0 0 3.3 0.5 7-3.3z"/>
		<text id="" style="transform: matrix(1,0,0,1,207.132,79.478)" >
		</text>
		<path id="Layer copy 42" class="s3" d="m230.3 161.1c0 0-0.8 4.7-5 6.5l-3.4-2q0.9-0.4 1.7-0.9 0.9-0.6 1.6-1.2 0.7-0.7 1.3-1.5 0.6-0.7 1.1-1.6z"/>
	</g>
</svg>