<svg width="178" height="320" viewBox="0 0 178 320" fill="none" xmlns="http://www.w3.org/2000/svg">
<g filter="url(#filter0_d_448_761)">
<path d="M92.689 221.849C92.8747 220.523 97.3579 189.631 88.3915 178.954C87.4958 177.83 86.3633 176.919 85.0748 176.284C83.7863 175.648 82.3735 175.306 80.9372 175.279C62.8186 174.855 60.3382 189.419 60.3117 189.565L62.4472 189.896C62.54 189.366 64.6888 177.057 80.8841 177.441C82.0142 177.458 83.1263 177.727 84.1386 178.23C85.1509 178.732 86.0376 179.456 86.7335 180.346C95.0898 190.281 90.5933 221.226 90.5535 221.531L92.689 221.849Z" fill="#00843D" fill-opacity="0.39"/>
<path d="M93.7752 220.444L95.9372 220.378C95.9372 220.086 95.2209 191.887 109.122 186.064C122.73 180.36 128.858 192.086 129.11 192.59L131.047 191.622C130.967 191.476 123.791 177.575 108.286 184.074C93.0191 190.468 93.7486 219.277 93.7752 220.444Z" fill="#00843D" fill-opacity="0.39"/>
<path d="M93.7235 222.658C93.7235 222.207 93.8429 177.561 102.544 164.562C110.887 152.041 124.363 157.93 124.934 158.196L125.822 156.233C125.663 156.153 110.131 149.296 100.74 163.369C91.6941 176.951 91.5615 220.788 91.5615 222.658H93.7235Z" fill="#00843D" fill-opacity="0.39"/>
<path d="M78.3367 176.353C78.3367 176.353 86.2951 179.271 83.8943 186.155C81.4936 193.039 56.5308 204.367 56.5308 204.367C56.5308 204.367 46.0655 194.777 55.6819 179.165C65.2983 163.553 78.1245 171.432 78.3367 176.353Z" fill="#00843D" fill-opacity="0.6"/>
<path d="M102.941 162.242C102.941 162.242 97.3166 161.645 97.7676 158.262C98.2186 154.88 119.6 146.033 132.254 160.278C132.254 160.278 124.176 174.153 112.504 174.325C100.832 174.497 102.941 162.242 102.941 162.242Z" fill="#00843D" fill-opacity="0.6"/>
<path d="M108.698 185.069C108.698 185.069 104.825 181.938 109.003 180.413C113.181 178.888 133.714 179.325 133.926 199.646C133.926 199.646 110.051 203.625 107.066 195.879C104.082 188.133 108.698 185.069 108.698 185.069Z" fill="#00843D" fill-opacity="0.6"/>
<path d="M74.0918 263.272H111.178L115.184 222.658H70.0861L74.0918 263.272Z" fill="#00843D" fill-opacity="0.39"/>
<path d="M68.0968 218.175H117.16V227.142H68.0968V218.175Z" fill="#00843D" fill-opacity="0.6"/>
<path d="M55.4767 37.9118C55.4767 37.9118 57.4795 17.2598 51.4975 7.17921C45.5154 -2.9014 35.5144 -1.44236 24.492 5.85282C13.4697 13.148 14.0666 25.8549 17.5285 38.8137L21.5872 39.9412L22.1045 35.1131L23.2851 40.233L30.3945 41.7053V36.7446L32.1586 41.7053L48.407 41.188L50.0649 36.413L50.5292 40.2993L55.4767 37.9118Z" fill="#263238"/>
<path d="M50.397 66.217C55.5435 75.2896 61.0082 84.1101 66.7648 92.8245L68.8605 96.0211C68.9799 96.2201 69.3645 96.7507 69.6696 97.1618C69.9857 97.5757 70.3268 97.97 70.6909 98.3423C71.3646 99.0322 72.0969 99.6624 72.8795 100.226C75.5685 102.017 78.5836 103.26 81.7531 103.887C87.2548 105.025 92.9088 105.232 98.4789 104.497C99.1939 104.415 99.8555 104.078 100.343 103.549C100.83 103.019 101.111 102.332 101.133 101.613C101.156 100.893 100.919 100.19 100.466 99.6308C100.012 99.0717 99.3731 98.6945 98.6646 98.5678H98.4656C93.6804 97.8112 88.9804 96.5895 84.4324 94.9202C82.5613 94.2425 80.8238 93.2413 79.2992 91.9624C79.0588 91.728 78.837 91.4752 78.636 91.2063C78.636 91.0869 78.4636 90.9808 78.4238 90.8747C78.3507 90.7058 78.2665 90.5418 78.1718 90.384L76.275 87.0016C71.2215 77.9556 66.0883 68.9361 60.7297 60.1023C59.9206 58.7251 58.5975 57.7257 57.0516 57.324C55.5056 56.9223 53.8634 57.1511 52.4861 57.9602C51.1089 58.7693 50.1095 60.0924 49.7078 61.6383C49.306 63.1843 49.5349 64.8265 50.344 66.2038L50.397 66.217Z" fill="#FFB573"/>
<path d="M108.732 98.779L106.451 96.8823C106.029 96.5279 105.528 96.2802 104.99 96.1601C104.452 96.0401 103.893 96.0512 103.36 96.1926L98.3066 97.519C97.3084 97.7829 96.3879 98.2819 95.6218 98.9741C94.8558 99.6663 94.2664 100.532 93.9029 101.498L93.452 102.705C97.0067 106.127 103.387 107.188 103.387 107.188L105.164 107.706C105.527 107.818 105.909 107.859 106.288 107.824C106.666 107.789 107.034 107.679 107.371 107.502C107.707 107.324 108.005 107.082 108.248 106.79C108.491 106.497 108.673 106.159 108.785 105.796L109.833 102.267C110.008 101.642 109.998 100.979 109.802 100.359C109.607 99.7398 109.235 99.1906 108.732 98.779Z" fill="#FFB573"/>
<path d="M53.555 51.8401C63.2377 53.6175 64.8161 60.1301 72.0449 73.1553C70.693 75.901 68.7444 78.3098 66.3416 80.2054C63.9388 82.1011 61.1426 83.4356 58.1576 84.1113C58.1576 84.1113 41.445 61.3371 53.555 51.8401Z" fill="#00843D"/>
<path opacity="0.8" d="M53.555 51.8401C63.2377 53.6175 64.8161 60.1301 72.0449 73.1553C70.693 75.901 68.7444 78.3098 66.3416 80.2054C63.9388 82.1011 61.1426 83.4356 58.1576 84.1113C58.1576 84.1113 41.445 61.3371 53.555 51.8401Z" fill="white"/>
<path opacity="0.1" d="M64.0718 70.1162C64.7901 73.3235 65.8715 76.4385 67.2949 79.401C64.7222 81.7615 61.5682 83.3957 58.156 84.1362C55.5137 80.4126 53.2896 76.4093 51.5241 72.1986L64.0718 70.1162Z" fill="black"/>
<path d="M65.2131 64.8901C65.4321 70.6031 65.3435 76.3237 64.9478 82.0271C64.6427 89.4682 65.9426 110.651 60.6636 111.99C56.5915 114.378 35.9395 113.503 22.7551 111.805C16.4813 109.961 27.119 93.5005 15.4733 62.7281C13.4439 57.4225 17.5159 51.9312 23.4316 51.3741C25.01 51.2282 26.6813 51.0956 28.3923 51.016C34.4162 50.611 40.4605 50.611 46.4844 51.016C48.4475 51.1884 50.4635 51.4139 52.4266 51.6792C59.4432 52.4883 65.0009 58.2581 65.2131 64.8901Z" fill="#00843D"/>
<path opacity="0.8" d="M65.2131 64.8901C65.4321 70.6031 65.3435 76.3237 64.9478 82.0271C64.6427 89.4682 65.9426 110.651 60.6636 111.99C56.5915 114.378 35.9395 113.503 22.7551 111.805C16.4813 109.961 27.119 93.5005 15.4733 62.7281C13.4439 57.4225 17.5159 51.9312 23.4316 51.3741C25.01 51.2282 26.6813 51.0956 28.3923 51.016C34.4162 50.611 40.4605 50.611 46.4844 51.016C48.4475 51.1884 50.4635 51.4139 52.4266 51.6792C59.4432 52.4883 65.0009 58.2581 65.2131 64.8901Z" fill="white"/>
<path d="M61.6318 112.642C61.6318 112.642 68.3434 164.822 67.7598 197.955C70.081 229.02 72.0308 294.238 75.5723 301.295C75.4529 302.873 69.9086 303.231 68.423 302.276C68.423 302.276 45.1846 248.398 48.3148 197.955C26.9731 145.311 28.2465 112.642 28.2465 112.642L61.6318 112.642Z" fill="#FFB573"/>
<path d="M52.5469 112.642C52.5469 112.642 37.2933 171.534 31.245 200.449C24.9048 230.823 16.5352 281.863 18.3126 302.038C16.6016 303.046 13.458 303.165 10.0226 302.038C10.0226 302.038 -3.58623 234.246 10.1154 201.736C4.10687 129.885 23.1274 112.642 23.1274 112.642L52.5469 112.642Z" fill="#FFB573"/>
<path opacity="0.1" d="M24.6786 70.7791C25.3418 77.61 22.3574 84.4277 21.031 87.0539C20.7471 83.213 20.193 79.3968 19.373 75.6337L24.6786 70.7791Z" fill="black"/>
<path d="M29.6521 30.5768C31.2305 36.3864 33.167 47.0506 29.3736 50.9369C29.3736 50.9369 26.7207 56.0436 42.0273 55.5793C43.176 58.7422 44.1502 61.9658 44.9454 65.2355C44.9454 65.2355 46.1392 57.7414 45.0781 55.4069C54.9597 54.558 47.4656 50.9369 47.4656 50.9369C40.8336 49.3851 40.6744 44.5703 41.457 40.0472L29.6521 30.5768Z" fill="#FFB573"/>
<path opacity="0.2" d="M34.4669 34.384L41.457 39.9947C41.2526 41.0526 41.1461 42.1271 41.1387 43.2046C38.6318 42.8464 35.024 40.1273 34.5067 37.5276C34.3012 36.491 34.2877 35.4255 34.4669 34.384Z" fill="black"/>
<path d="M24.6792 18.8917C26.4565 28.2825 27.0004 32.2883 32.359 36.798C40.4235 43.5759 51.4989 39.9946 52.56 30.4048C53.515 21.7832 50.4643 7.85603 40.7949 4.76553C38.7369 4.02766 36.519 3.85371 34.3712 4.26169C32.2234 4.66968 30.2238 5.64475 28.5798 7.08583C26.9357 8.52691 25.7071 10.3815 25.0212 12.4574C24.3354 14.5332 24.2173 16.7548 24.6792 18.8917Z" fill="#FFB573"/>
<path d="M32.7695 12.1003C27.5833 18.7986 38.2342 26.4917 27.5833 26.0407C16.9323 25.5897 21.2564 10.5617 27.5833 7.13958C33.9102 3.71748 32.7695 12.1003 32.7695 12.1003Z" fill="#263238"/>
<path d="M27.6106 7.25865C28.937 13.6651 29.9716 15.3231 35.6751 13.5856C34.8247 12.2986 34.4494 10.7555 34.614 9.22171C35.1764 10.7667 36.3181 12.0322 37.7973 12.7499C39.324 12.0967 40.9158 11.6076 42.5459 11.2909C42.2473 10.3992 42.1521 9.45199 42.2673 8.51872C42.7123 9.59587 43.4641 10.5184 44.4293 11.1715C46.1783 11.1881 47.9126 11.4928 49.5625 12.0735C49.536 5.29557 38.1024 -1.98633 27.6106 7.25865Z" fill="#263238"/>
<path d="M39.5748 20.456C39.6809 21.2519 40.1849 21.862 40.7022 21.7824C41.2195 21.7028 41.5246 21.0794 41.4185 20.2836C41.3124 19.4877 40.7951 18.8776 40.2778 18.9572C39.7605 19.0368 39.4554 19.6602 39.5748 20.456Z" fill="#263238"/>
<path d="M49.1632 19.887C49.2825 20.6829 49.7866 21.3063 50.2906 21.2134C50.7946 21.1206 51.1262 20.4971 51.0069 19.7013C50.8875 18.9055 50.3834 18.2953 49.8794 18.3749C49.3754 18.4545 49.0438 19.0912 49.1632 19.887Z" fill="#263238"/>
<path d="M49.6683 18.4667L51.459 17.777C51.459 17.777 50.7029 19.3156 49.6683 18.4667Z" fill="#263238"/>
<path d="M46.6838 21.3983C47.6434 23.1607 48.8198 24.796 50.1855 26.2662C49.8256 26.5776 49.4006 26.8047 48.9416 26.9309C48.4827 27.0572 48.0014 27.0793 47.5328 26.9957L46.6838 21.3983Z" fill="#ED893E"/>
<path d="M43.4337 30.2718C43.8752 30.3059 44.3186 30.3059 44.7601 30.2718C44.7905 30.2704 44.8203 30.2625 44.8475 30.2486C44.8746 30.2348 44.8984 30.2152 44.9172 30.1913C44.9361 30.1674 44.9496 30.1397 44.9568 30.1101C44.964 30.0805 44.9648 30.0497 44.9591 30.0198C44.9558 29.9884 44.9463 29.9579 44.9311 29.9302C44.916 29.9024 44.8954 29.878 44.8708 29.8582C44.8461 29.8385 44.8178 29.8238 44.7874 29.8151C44.757 29.8064 44.7252 29.8039 44.6938 29.8076C43.7092 29.875 42.722 29.7219 41.8042 29.3593C40.8863 28.9967 40.0609 28.4339 39.3882 27.7118C39.3437 27.6689 39.2843 27.6449 39.2224 27.6449C39.1606 27.6449 39.1011 27.6689 39.0566 27.7118C39.0145 27.7541 38.9908 27.8113 38.9908 27.871C38.9908 27.9307 39.0145 27.9879 39.0566 28.0302C40.2004 29.2771 41.7534 30.0725 43.4337 30.2718Z" fill="#263238"/>
<path d="M23.7633 27.9505C24.1454 28.7796 24.6969 29.5195 25.3822 30.1226C26.0675 30.7257 26.8716 31.1786 27.7425 31.4522C29.9311 32.0358 30.8728 29.5289 30.1433 27.022C29.4933 24.7672 27.5701 21.7165 25.4346 22.3001C23.2991 22.8837 22.6757 25.7487 23.7633 27.9505Z" fill="#FFB573"/>
<path d="M36.8944 16.1859C36.9552 16.1885 37.0158 16.1767 37.0711 16.1513C37.1264 16.1259 37.175 16.0878 37.2127 16.04C37.5846 15.6114 38.0561 15.2808 38.5858 15.0773C39.1154 14.8737 39.687 14.8035 40.2502 14.8728C40.3079 14.8863 40.3678 14.8875 40.426 14.8764C40.4842 14.8653 40.5395 14.8422 40.5882 14.8084C40.637 14.7747 40.6781 14.7311 40.7089 14.6805C40.7398 14.6299 40.7598 14.5734 40.7675 14.5147C40.7835 14.3888 40.7514 14.2615 40.6776 14.1582C40.6038 14.0549 40.4938 13.9833 40.3695 13.9576C39.6576 13.853 38.9308 13.9294 38.2563 14.1798C37.5817 14.4302 36.981 14.8464 36.5097 15.3901C36.4238 15.4791 36.3758 15.598 36.3758 15.7217C36.3758 15.8454 36.4238 15.9643 36.5097 16.0533C36.5615 16.1002 36.6223 16.1362 36.6885 16.159C36.7546 16.1818 36.8246 16.191 36.8944 16.1859Z" fill="#263238"/>
<path d="M51.3263 15.3238C51.3838 15.3287 51.4417 15.3218 51.4964 15.3035C51.5511 15.2853 51.6016 15.2561 51.6446 15.2177C51.7297 15.1309 51.7773 15.0142 51.7773 14.8927C51.7773 14.7712 51.7297 14.6545 51.6446 14.5677C51.1598 13.9889 50.5495 13.528 49.86 13.22C49.1706 12.9121 48.4201 12.7652 47.6654 12.7904C47.6063 12.7983 47.5495 12.8182 47.4984 12.8489C47.4473 12.8796 47.4029 12.9205 47.3682 12.9689C47.3334 13.0173 47.3089 13.0724 47.2961 13.1306C47.2834 13.1889 47.2827 13.2491 47.294 13.3077C47.3194 13.4305 47.3886 13.5399 47.4887 13.6155C47.5887 13.6912 47.7128 13.7279 47.8379 13.7188C48.4336 13.708 49.0242 13.8311 49.566 14.0791C50.1078 14.327 50.5869 14.6935 50.9682 15.1514C51.0615 15.252 51.1894 15.3136 51.3263 15.3238Z" fill="#263238"/>
<path d="M40.0648 19.0102L41.8555 18.3204C41.8555 18.3204 41.1127 19.8856 40.0648 19.0102Z" fill="#263238"/>
<path d="M20.7254 115.135L21.8264 111.289C35.1946 112.618 48.6656 112.533 62.0161 111.037L62.2284 115.295C64.722 122.47 71.1152 172.078 71.1152 193.486C46.5902 198.314 29.0419 195.316 18.8685 191.854C17.1309 186.92 13.1517 169.451 13.1517 169.451C13.1517 169.451 10.3795 186.694 10.1938 192C8.60217 191.257 6.06878 190.448 5.326 189.719C2.96501 181.243 8.35016 128.89 20.7254 115.135Z" fill="#263238"/>
<path d="M8.24387 311.149H10.1406L10.6712 308.801L16.9583 311.6H32.8751C32.8751 311.6 35.4085 309.053 27.8215 307.023C27.4504 306.923 27.0905 306.785 26.7471 306.612C22.7016 304.716 16.945 298.309 16.945 298.309H8.20408C7.93814 298.713 7.69891 299.134 7.48786 299.569C6.51959 301.532 4.90136 305.564 8.24387 311.149Z" fill="#263238"/>
<path d="M7.50243 299.663C8.65639 298.337 13.9089 304.027 17.7555 305.95C21.1908 307.661 25.0507 308.417 26.7617 306.68C22.7162 304.783 16.3495 296.506 16.3495 296.506H9.31958C9.31958 296.506 7.84729 298.788 7.50243 299.663Z" fill="#FFB573"/>
<path d="M65.32 311.149H67.2168L67.7474 308.801L74.0345 311.6H89.9512C89.9512 311.6 92.4846 309.053 84.8977 307.023C84.5266 306.923 84.1667 306.785 83.8233 306.612C79.7778 304.716 74.0212 298.309 74.0212 298.309H65.2803C65.0143 298.713 64.7751 299.134 64.564 299.569C63.556 301.532 61.9643 305.564 65.32 311.149Z" fill="#263238"/>
<path d="M64.5766 299.663C65.7306 298.337 70.9832 304.027 74.8297 305.95C78.2651 307.661 82.1249 308.417 83.8359 306.68C79.7904 304.783 73.4237 296.506 73.4237 296.506H66.3938C66.3938 296.506 64.9878 298.788 64.5766 299.663Z" fill="#FFB573"/>
<path d="M57.5342 112.177V115.201C59.2187 114.936 60.89 114.618 62.5215 114.22V111.421C62.5215 111.421 60.7176 111.779 57.5342 112.177Z" fill="#263238"/>
<path d="M36.032 113.105L35.7535 115.984C42.7176 116.446 49.7103 116.224 56.631 115.32L56.6973 112.283C49.8378 113.056 42.9313 113.331 36.032 113.105Z" fill="#263238"/>
<path d="M20.5008 114.299C25.2649 115.102 30.0691 115.647 34.8922 115.93L35.1973 113.065C30.8865 112.919 26.1911 112.574 21.2038 111.938L20.5008 114.299Z" fill="#263238"/>
<path opacity="0.4" d="M57.5342 112.177V115.201C59.2187 114.936 60.89 114.618 62.5215 114.22V111.421C62.5215 111.421 60.7176 111.779 57.5342 112.177Z" fill="white"/>
<path opacity="0.4" d="M36.032 113.105L35.7535 115.984C42.7176 116.446 49.7103 116.224 56.631 115.32L56.6973 112.283C49.8378 113.056 42.9313 113.331 36.032 113.105Z" fill="white"/>
<path opacity="0.4" d="M20.5008 114.299C25.2649 115.102 30.0691 115.647 34.8922 115.93L35.1973 113.065C30.8865 112.919 26.1911 112.574 21.2038 111.938L20.5008 114.299Z" fill="white"/>
<path d="M50.1987 113.079V115.732C50.1956 115.913 50.1241 116.086 49.9986 116.216C49.8731 116.347 49.703 116.425 49.5222 116.435L45.238 116.621C45.1407 116.626 45.0432 116.611 44.9521 116.577C44.8609 116.542 44.7782 116.489 44.7092 116.42C44.6403 116.351 44.5868 116.268 44.5521 116.177C44.5175 116.086 44.5027 115.988 44.5085 115.891L44.6543 113.238C44.6609 113.064 44.7329 112.9 44.8559 112.777C44.9789 112.654 45.1438 112.582 45.3175 112.575L49.4559 112.35C49.5538 112.344 49.6518 112.359 49.7435 112.393C49.8353 112.428 49.9189 112.481 49.9888 112.55C50.0588 112.619 50.1136 112.701 50.1497 112.792C50.1859 112.883 50.2025 112.981 50.1987 113.079Z" fill="white"/>
<path d="M42.0273 55.6053C42.0273 55.6053 34.321 53.6289 30.0898 48.8274C30.0898 48.8274 26.5749 49.8487 25.9647 51.0823C25.3546 52.3158 26.8269 60.1946 30.4744 60.4466C32.6373 60.536 34.7934 60.1487 36.7898 59.312C38.7863 58.4754 40.5744 57.2099 42.0273 55.6053Z" fill="#00843D"/>
<path d="M45.0788 55.4075C45.0788 55.4075 51.2067 59.5591 53.8197 58.6837C56.4327 57.8082 51.3791 50.1019 42.8106 48.802C42.8106 48.802 46.9225 51.4946 45.0788 55.4075Z" fill="#00843D"/>
<path opacity="0.7" d="M42.0273 55.6053C42.0273 55.6053 34.321 53.6289 30.0898 48.8274C30.0898 48.8274 26.5749 49.8487 25.9647 51.0823C25.3546 52.3158 26.8269 60.1946 30.4744 60.4466C32.6373 60.536 34.7934 60.1487 36.7898 59.312C38.7863 58.4754 40.5744 57.2099 42.0273 55.6053Z" fill="white"/>
<path opacity="0.7" d="M45.0788 55.4075C45.0788 55.4075 51.2067 59.5591 53.8197 58.6837C56.4327 57.8082 51.3791 50.1019 42.8106 48.802C42.8106 48.802 46.9225 51.4946 45.0788 55.4075Z" fill="white"/>
<path d="M170.21 20.5759L92.1385 9.10255C90.6095 8.96128 89.0742 9.29739 87.744 10.0646C86.4138 10.8319 85.3541 11.9925 84.7108 13.3868L32.3844 134.54C32.0824 135.113 31.9249 135.751 31.9255 136.399C31.9262 137.047 32.0851 137.685 32.3883 138.257C32.6916 138.83 33.1301 139.32 33.6657 139.684C34.2013 140.049 34.8178 140.277 35.4617 140.349L113.52 151.823C115.048 151.967 116.583 151.634 117.913 150.869C119.244 150.104 120.304 148.945 120.948 147.552L173.274 26.4253C173.585 25.8516 173.749 25.2105 173.754 24.5582C173.758 23.906 173.602 23.2626 173.3 22.6848C172.997 22.107 172.557 21.6124 172.018 21.2447C171.479 20.8769 170.859 20.6473 170.21 20.5759Z" fill="#00843D"/>
<path opacity="0.6" d="M170.21 20.5759L92.1385 9.10255C90.6095 8.96128 89.0742 9.29739 87.744 10.0646C86.4138 10.8319 85.3541 11.9925 84.7108 13.3868L32.3844 134.54C32.0824 135.113 31.9249 135.751 31.9255 136.399C31.9262 137.047 32.0851 137.685 32.3883 138.257C32.6916 138.83 33.1301 139.32 33.6657 139.684C34.2013 140.049 34.8178 140.277 35.4617 140.349L113.52 151.823C115.048 151.967 116.583 151.634 117.913 150.869C119.244 150.104 120.304 148.945 120.948 147.552L173.274 26.4253C173.585 25.8516 173.749 25.2105 173.754 24.5582C173.758 23.906 173.602 23.2626 173.3 22.6848C172.997 22.107 172.557 21.6124 172.018 21.2447C171.479 20.8769 170.859 20.6473 170.21 20.5759Z" fill="white"/>
<path d="M90.5215 15.217L38.9911 134.526L115.139 145.721L166.67 26.3985L90.5215 15.217Z" fill="#00843D"/>
<path opacity="0.4" d="M102.169 124.208C86.9705 123.98 74.9435 104.212 75.3061 80.0555C75.6688 55.8988 88.2837 36.5008 103.482 36.729C118.681 36.9571 130.708 56.725 130.345 80.8817C129.983 105.038 117.368 124.436 102.169 124.208Z" fill="white"/>
<path d="M103.691 50.2744L122.614 66.0028L111.764 68.7104L111.602 77.8875L94.7735 82.0988L94.9358 72.9217L84.0867 75.6293L103.691 50.2744Z" fill="white"/>
<path d="M111.435 87.9571L94.606 92.1683L94.7343 84.6838L111.563 80.4725L111.435 87.9571Z" fill="white"/>
<path d="M111.323 95.0315L94.4946 99.2428L94.5574 95.6015L111.386 91.3903L111.323 95.0315Z" fill="white"/>
<path d="M111.216 101.418L94.3872 105.629L94.419 103.966L111.248 99.7547L111.216 101.418Z" fill="white"/>
<path d="M111.077 109.924L94.2485 114.136L94.2619 113.298L111.078 109.092L111.077 109.924Z" fill="white"/>
<path opacity="0.2" d="M35.6759 140.582L113.787 151.786C115.316 151.922 116.85 151.581 118.178 150.809C119.505 150.037 120.561 148.873 121.2 147.477L173.108 26.1442C173.408 25.5699 173.564 24.9311 173.561 24.2832C173.558 23.6354 173.397 22.998 173.092 22.4265C172.786 21.855 172.346 21.3667 171.809 21.004C171.272 20.6412 170.655 20.4151 170.011 20.3452L91.9136 9.1408C90.3853 9.00173 88.8514 9.34036 87.5237 10.1099C86.1959 10.8795 85.1397 12.0421 84.5006 13.4374L32.5918 134.743C32.2833 135.318 32.1208 135.96 32.1186 136.612C32.1164 137.264 32.2746 137.907 32.5793 138.484C32.8839 139.061 33.3257 139.554 33.8657 139.92C34.4057 140.285 35.0273 140.513 35.6759 140.582Z" fill="black"/>
<path d="M12.2763 62.7811C10.6448 68.0867 9.19905 73.3923 7.91245 78.7642C7.26251 81.417 6.65239 84.1759 6.10857 86.948C5.84328 88.3408 5.56473 89.7335 5.35251 91.2058C5.2464 91.9485 5.14029 92.6913 5.0607 93.5004C5.0607 93.9116 4.98114 94.3361 4.95461 94.8268C4.95461 95.0391 4.95461 95.3176 4.95461 95.6227V96.0604C4.94258 96.2813 4.94258 96.5027 4.95461 96.7236C5.11316 98.4067 5.74296 100.011 6.77176 101.353C7.52628 102.304 8.4207 103.136 9.42455 103.82C10.908 104.826 12.5123 105.642 14.1996 106.247C17.0423 107.256 19.9731 107.998 22.9538 108.462C28.5617 109.362 34.2405 109.744 39.9184 109.603C40.6475 109.585 41.3452 109.302 41.8808 108.807C42.4164 108.312 42.7531 107.639 42.8279 106.914C42.9028 106.188 42.7105 105.46 42.2873 104.866C41.864 104.272 41.2387 103.853 40.5286 103.687H40.4357C35.2495 102.533 29.9704 101.233 25.0362 99.708C22.6773 99.0003 20.376 98.1135 18.1522 97.0552C17.2977 96.6524 16.4995 96.1396 15.778 95.5298C15.5392 95.3043 15.4199 95.1054 15.4729 95.1319C15.6785 95.3702 15.8037 95.6672 15.831 95.9808V96.1399V96.0604V95.8216L15.9504 95.1054C16.0565 94.5615 16.1892 93.9647 16.3351 93.3678L17.2768 89.6008C17.9665 87.0409 18.6961 84.4544 19.4256 81.8679C20.8979 76.6817 22.3834 71.4425 23.816 66.243C24.2441 64.7144 24.0514 63.0786 23.2797 61.6914C22.508 60.3042 21.2198 59.2778 19.6953 58.8354C18.1707 58.3931 16.5332 58.5707 15.1388 59.3294C13.7445 60.0882 12.7062 61.3669 12.2498 62.8872L12.2763 62.7811Z" fill="#FFB573"/>
<path d="M23.0478 51.3619C16.5618 52.3567 9.29312 59.0948 4.0008 72.12C10.1287 82.7312 19.2411 84.0576 19.2411 84.0576C19.2411 84.0576 31.9612 66.4431 23.0478 51.3619Z" fill="#00843D"/>
<path d="M50.5576 100.704L47.812 99.5761C47.3029 99.3649 46.7505 99.2787 46.2013 99.3249C45.652 99.371 45.1218 99.5482 44.6551 99.8414L40.225 102.614C39.3544 103.162 38.6271 103.91 38.1035 104.796C37.5798 105.682 37.275 106.68 37.2141 107.707L37.1477 109.033C41.5646 111.222 47.9711 110.36 47.9711 110.36H49.8148C50.1956 110.362 50.5728 110.287 50.9245 110.142C51.2763 109.996 51.5955 109.782 51.8635 109.511C52.1315 109.241 52.3429 108.92 52.4853 108.567C52.6277 108.214 52.6984 107.836 52.6931 107.455V103.781C52.6887 103.112 52.4825 102.461 52.1015 101.912C51.7204 101.363 51.1822 100.942 50.5576 100.704Z" fill="#FFB573"/>
<path opacity="0.8" d="M23.0478 51.3619C16.5618 52.3567 9.29312 59.0948 4.0008 72.12C10.1287 82.7312 19.2411 84.0576 19.2411 84.0576C19.2411 84.0576 31.9612 66.4431 23.0478 51.3619Z" fill="white"/>
</g>
<defs>
<filter id="filter0_d_448_761" x="0" y="0" width="177.754" height="319.6" filterUnits="userSpaceOnUse" color-interpolation-filters="sRGB">
<feFlood flood-opacity="0" result="BackgroundImageFix"/>
<feColorMatrix in="SourceAlpha" type="matrix" values="0 0 0 0 0 0 0 0 0 0 0 0 0 0 0 0 0 0 127 0" result="hardAlpha"/>
<feOffset dy="4"/>
<feGaussianBlur stdDeviation="2"/>
<feComposite in2="hardAlpha" operator="out"/>
<feColorMatrix type="matrix" values="0 0 0 0 0 0 0 0 0 0 0 0 0 0 0 0 0 0 0.25 0"/>
<feBlend mode="normal" in2="BackgroundImageFix" result="effect1_dropShadow_448_761"/>
<feBlend mode="normal" in="SourceGraphic" in2="effect1_dropShadow_448_761" result="shape"/>
</filter>
</defs>
</svg>
